<?xml version="1.0" encoding="UTF-8" standalone="no"?>
<!DOCTYPE svg PUBLIC "-//W3C//DTD SVG 1.1//EN"
 "http://www.w3.org/Graphics/SVG/1.1/DTD/svg11.dtd">
<!-- Generated by graphviz version 2.40.1 (20161225.0304)
 -->
<!-- Title: %3 Pages: 1 -->
<svg width="2469pt" height="2756pt"
 viewBox="0.00 0.00 2469.12 2755.68" xmlns="http://www.w3.org/2000/svg" xmlns:xlink="http://www.w3.org/1999/xlink">
<g id="graph0" class="graph" transform="scale(1 1) rotate(0) translate(4 2751.684)">
<title>%3</title>
<polygon fill="#ffffff" stroke="transparent" points="-4,4 -4,-2751.684 2465.1225,-2751.684 2465.1225,4 -4,4"/>
<!-- Alberto Duport -->
<g id="node1" class="node">
<title>Alberto Duport</title>
<ellipse fill="none" stroke="#000000" cx="77.3914" cy="-1048" rx="64.2708" ry="64.2708"/>
<text text-anchor="middle" x="77.3914" y="-1043.8" font-family="Times,serif" font-size="14.00" fill="#000000">Alberto Duport</text>
</g>
<!-- Anna Kaufmann -->
<g id="node2" class="node">
<title>Anna Kaufmann</title>
<ellipse fill="none" stroke="#000000" cx="272.4841" cy="-1183" rx="68.5974" ry="68.5974"/>
<text text-anchor="middle" x="272.4841" y="-1178.8" font-family="Times,serif" font-size="14.00" fill="#000000">Anna Kaufmann</text>
</g>
<!-- Alberto Duport&#45;&#45;Anna Kaufmann -->
<g id="edge1" class="edge">
<title>Alberto Duport&#45;&#45;Anna Kaufmann</title>
<path fill="none" stroke="#000000" d="M130.4437,-1084.711C156.8467,-1102.9814 188.7848,-1125.0819 215.6835,-1143.6952"/>
<text text-anchor="middle" x="176.2829" y="-1118.8" font-family="Times,serif" font-size="14.00" fill="#000000">6</text>
</g>
<!-- Anne Olwada -->
<g id="node3" class="node">
<title>Anne Olwada</title>
<ellipse fill="none" stroke="#000000" cx="471.2602" cy="-665" rx="58.9495" ry="58.9495"/>
<text text-anchor="middle" x="471.2602" y="-660.8" font-family="Times,serif" font-size="14.00" fill="#000000">Anne Olwada</text>
</g>
<!-- Alberto Duport&#45;&#45;Anne Olwada -->
<g id="edge2" class="edge">
<title>Alberto Duport&#45;&#45;Anne Olwada</title>
<path fill="none" stroke="#000000" d="M123.7314,-1002.9388C200.8016,-927.9953 354.1991,-778.8308 428.6933,-706.3922"/>
<text text-anchor="middle" x="272.4841" y="-928.8" font-family="Times,serif" font-size="14.00" fill="#000000">6</text>
</g>
<!-- Christian Francois -->
<g id="node4" class="node">
<title>Christian Francois</title>
<ellipse fill="none" stroke="#000000" cx="670.5328" cy="-946" rx="75.3962" ry="75.3962"/>
<text text-anchor="middle" x="670.5328" y="-941.8" font-family="Times,serif" font-size="14.00" fill="#000000">Christian Francois</text>
</g>
<!-- Alberto Duport&#45;&#45;Christian Francois -->
<g id="edge3" class="edge">
<title>Alberto Duport&#45;&#45;Christian Francois</title>
<path fill="none" stroke="#000000" d="M140.8679,-1037.0842C251.2952,-1018.0945 478.1971,-979.0751 595.946,-958.8264"/>
<text text-anchor="middle" x="368.6854" y="-1001.8" font-family="Times,serif" font-size="14.00" fill="#000000">6</text>
</g>
<!-- Clement Duchot -->
<g id="node5" class="node">
<title>Clement Duchot</title>
<ellipse fill="none" stroke="#000000" cx="857.0454" cy="-1206" rx="68.1301" ry="68.1301"/>
<text text-anchor="middle" x="857.0454" y="-1201.8" font-family="Times,serif" font-size="14.00" fill="#000000">Clement Duchot</text>
</g>
<!-- Alberto Duport&#45;&#45;Clement Duchot -->
<g id="edge4" class="edge">
<title>Alberto Duport&#45;&#45;Clement Duchot</title>
<path fill="none" stroke="#000000" d="M141.8659,-1048.5873C199.9388,-1051.9743 285.4185,-1064.3118 347.1854,-1105 374.8854,-1123.2471 361.4353,-1149.4567 390.1854,-1166 429.8513,-1188.8244 549.7389,-1180.0832 595.3349,-1184 660.9795,-1189.639 735.9004,-1195.9214 788.7107,-1200.3243"/>
<text text-anchor="middle" x="471.2602" y="-1185.8" font-family="Times,serif" font-size="14.00" fill="#000000">6</text>
</g>
<!-- Elvira Lores -->
<g id="node6" class="node">
<title>Elvira Lores</title>
<ellipse fill="none" stroke="#000000" cx="1022.4209" cy="-788" rx="54.1216" ry="54.1216"/>
<text text-anchor="middle" x="1022.4209" y="-783.8" font-family="Times,serif" font-size="14.00" fill="#000000">Elvira Lores</text>
</g>
<!-- Alberto Duport&#45;&#45;Elvira Lores -->
<g id="edge5" class="edge">
<title>Alberto Duport&#45;&#45;Elvira Lores</title>
<path fill="none" stroke="#000000" d="M89.7086,-984.4091C117.7726,-859.0318 199.3922,-581.8984 390.1854,-464 534.1128,-375.0618 633.3774,-375.2113 770.7306,-474 872.6822,-547.3268 955.55,-672.4869 995.8698,-740.5399"/>
<text text-anchor="middle" x="573.8349" y="-401.8" font-family="Times,serif" font-size="14.00" fill="#000000">6</text>
</g>
<!-- Esmana Liubiata -->
<g id="node7" class="node">
<title>Esmana Liubiata</title>
<ellipse fill="none" stroke="#000000" cx="1189.2603" cy="-1172" rx="69.558" ry="69.558"/>
<text text-anchor="middle" x="1189.2603" y="-1167.8" font-family="Times,serif" font-size="14.00" fill="#000000">Esmana Liubiata</text>
</g>
<!-- Alberto Duport&#45;&#45;Esmana Liubiata -->
<g id="edge6" class="edge">
<title>Alberto Duport&#45;&#45;Esmana Liubiata</title>
<path fill="none" stroke="#000000" d="M93.865,-1110.6403C125.7124,-1217.225 206.9639,-1430.6 365.1854,-1516 440.6679,-1556.7416 1031.0297,-1332.9285 1101.4817,-1284 1121.2657,-1270.2601 1138.7124,-1250.7402 1152.7326,-1231.8359"/>
<text text-anchor="middle" x="670.5328" y="-1480.8" font-family="Times,serif" font-size="14.00" fill="#000000">6</text>
</g>
<!-- Fjodor Kowalski -->
<g id="node8" class="node">
<title>Fjodor Kowalski</title>
<ellipse fill="none" stroke="#000000" cx="1371.8391" cy="-1172" rx="69.601" ry="69.601"/>
<text text-anchor="middle" x="1371.8391" y="-1167.8" font-family="Times,serif" font-size="14.00" fill="#000000">Fjodor Kowalski</text>
</g>
<!-- Alberto Duport&#45;&#45;Fjodor Kowalski -->
<g id="edge7" class="edge">
<title>Alberto Duport&#45;&#45;Fjodor Kowalski</title>
<path fill="none" stroke="#000000" d="M84.9666,-1111.9752C97.2523,-1194.2697 127.6397,-1338.7627 197.7829,-1441 259.2796,-1530.6348 287.4439,-1556.4976 390.1854,-1592 577.0333,-1656.5655 1095.1611,-1511.5664 1259.0389,-1401 1273.4266,-1391.2928 1276.0166,-1386.3908 1284.0389,-1371 1298.0925,-1344.0382 1290.9089,-1333.2943 1302.0389,-1305 1311.6325,-1280.6117 1324.4511,-1254.8744 1336.484,-1232.6059"/>
<text text-anchor="middle" x="767.2306" y="-1580.8" font-family="Times,serif" font-size="14.00" fill="#000000">6</text>
</g>
<!-- Immanuel Karagianni -->
<g id="node9" class="node">
<title>Immanuel Karagianni</title>
<ellipse fill="none" stroke="#000000" cx="1572.0963" cy="-469" rx="87.4139" ry="87.4139"/>
<text text-anchor="middle" x="1572.0963" y="-464.8" font-family="Times,serif" font-size="14.00" fill="#000000">Immanuel Karagianni</text>
</g>
<!-- Alberto Duport&#45;&#45;Immanuel Karagianni -->
<g id="edge8" class="edge">
<title>Alberto Duport&#45;&#45;Immanuel Karagianni</title>
<path fill="none" stroke="#000000" d="M80.932,-983.3892C91.9968,-789.9106 127.8841,-224.2582 172.7829,-155 200.6692,-111.9841 221.2199,-97 272.4841,-97 272.4841,-97 272.4841,-97 946.8602,-97 1071.1711,-97 1338.7055,-288.302 1441.6394,-358 1464.1702,-373.256 1487.261,-391.7866 1507.633,-409.3021"/>
<text text-anchor="middle" x="857.0454" y="-99.8" font-family="Times,serif" font-size="14.00" fill="#000000">6</text>
</g>
<!-- Kim Passa -->
<g id="node10" class="node">
<title>Kim Passa</title>
<ellipse fill="none" stroke="#000000" cx="1750.2448" cy="-1314" rx="47.8839" ry="47.8839"/>
<text text-anchor="middle" x="1750.2448" y="-1309.8" font-family="Times,serif" font-size="14.00" fill="#000000">Kim Passa</text>
</g>
<!-- Alberto Duport&#45;&#45;Kim Passa -->
<g id="edge9" class="edge">
<title>Alberto Duport&#45;&#45;Kim Passa</title>
<path fill="none" stroke="#000000" d="M82.7207,-1112.3945C98.1632,-1277.6777 149.8781,-1704 272.4841,-1704 272.4841,-1704 272.4841,-1704 1097.9817,-1704 1163.5395,-1704 1611.9313,-1568.0552 1659.5532,-1523 1711.7961,-1473.573 1670.3671,-1431.3149 1702.5532,-1367 1706.0432,-1360.0263 1710.7038,-1353.2751 1715.7474,-1347.0593"/>
<text text-anchor="middle" x="946.8602" y="-1706.8" font-family="Times,serif" font-size="14.00" fill="#000000">6</text>
</g>
<!-- Miu Hanwan -->
<g id="node11" class="node">
<title>Miu Hanwan</title>
<ellipse fill="none" stroke="#000000" cx="1897.4627" cy="-758" rx="56.5528" ry="56.5528"/>
<text text-anchor="middle" x="1897.4627" y="-753.8" font-family="Times,serif" font-size="14.00" fill="#000000">Miu Hanwan</text>
</g>
<!-- Alberto Duport&#45;&#45;Miu Hanwan -->
<g id="edge10" class="edge">
<title>Alberto Duport&#45;&#45;Miu Hanwan</title>
<path fill="none" stroke="#000000" d="M81.6795,-983.6351C90.8628,-876.7515 118.514,-657.9934 197.7829,-492 256.5464,-368.9458 268.8683,-315.271 390.1854,-253 464.2897,-214.9629 494.2568,-236.9767 577.3349,-243 752.5009,-255.6999 794.3435,-276.2808 968.3602,-300 1024.3458,-307.6311 1038.3411,-309.6085 1094.4817,-316 1219.8803,-330.2764 1541.1182,-329.3906 1659.5532,-373 1662.1423,-373.9534 1821.3409,-483.749 1822.9363,-486 1868.873,-550.814 1886.5177,-642.7305 1893.2805,-701.3599"/>
<text text-anchor="middle" x="1022.4209" y="-316.8" font-family="Times,serif" font-size="14.00" fill="#000000">6</text>
</g>
<!-- Nico Ojenbeer -->
<g id="node12" class="node">
<title>Nico Ojenbeer</title>
<ellipse fill="none" stroke="#000000" cx="2058.9044" cy="-804" rx="61.8309" ry="61.8309"/>
<text text-anchor="middle" x="2058.9044" y="-799.8" font-family="Times,serif" font-size="14.00" fill="#000000">Nico Ojenbeer</text>
</g>
<!-- Alberto Duport&#45;&#45;Nico Ojenbeer -->
<g id="edge11" class="edge">
<title>Alberto Duport&#45;&#45;Nico Ojenbeer</title>
<path fill="none" stroke="#000000" d="M81.1043,-983.6215C91.9453,-804.0491 125.7842,-300.4552 172.7829,-142 190.9909,-80.612 208.4527,-38 272.4841,-38 272.4841,-38 272.4841,-38 1280.5389,-38 1363.5946,-38 1387.6531,-29.321 1466.6394,-55 1561.5666,-85.8615 1593.198,-95.4307 1659.5532,-170 1690.6317,-204.9257 1669.461,-232.976 1702.5532,-266 1789.146,-352.4143 1873.9887,-285.4491 1953.9891,-378 2000.9973,-432.3829 2035.7207,-638.1536 2050.72,-742.5107"/>
<text text-anchor="middle" x="1097.9817" y="-40.8" font-family="Times,serif" font-size="14.00" fill="#000000">6</text>
</g>
<!-- Penn Osterwalder -->
<g id="node13" class="node">
<title>Penn Osterwalder</title>
<ellipse fill="none" stroke="#000000" cx="2237.04" cy="-1074" rx="73.441" ry="73.441"/>
<text text-anchor="middle" x="2237.04" y="-1069.8" font-family="Times,serif" font-size="14.00" fill="#000000">Penn Osterwalder</text>
</g>
<!-- Alberto Duport&#45;&#45;Penn Osterwalder -->
<g id="edge12" class="edge">
<title>Alberto Duport&#45;&#45;Penn Osterwalder</title>
<path fill="none" stroke="#000000" d="M80.588,-1112.3756C91.2693,-1292.4131 133.3112,-1788 272.4841,-1788 272.4841,-1788 272.4841,-1788 1280.5389,-1788 1605.2037,-1788 1700.8381,-1708.2777 1953.9891,-1505 1974.5787,-1488.4667 1977.0161,-1481.2733 1996.9891,-1464 2049.8679,-1418.2687 2079.2525,-1423.211 2120.8198,-1367 2178.7601,-1288.6481 2122.6116,-1240.3062 2163.8198,-1152 2168.5323,-1141.9015 2175.0579,-1132.2519 2182.2879,-1123.3957"/>
<text text-anchor="middle" x="1189.2603" y="-1790.8" font-family="Times,serif" font-size="14.00" fill="#000000">6</text>
</g>
<!-- Tesca Lobes -->
<g id="node14" class="node">
<title>Tesca Lobes</title>
<ellipse fill="none" stroke="#000000" cx="2407.1913" cy="-804" rx="53.8625" ry="53.8625"/>
<text text-anchor="middle" x="2407.1913" y="-799.8" font-family="Times,serif" font-size="14.00" fill="#000000">Tesca Lobes</text>
</g>
<!-- Alberto Duport&#45;&#45;Tesca Lobes -->
<g id="edge13" class="edge">
<title>Alberto Duport&#45;&#45;Tesca Lobes</title>
<path fill="none" stroke="#000000" d="M79.769,-983.598C86.2991,-831.4594 108.5161,-438.438 172.7829,-117 180.3361,-79.2218 172.4341,-63.0118 197.7829,-34 221.784,-6.5306 236.0064,0 272.4841,0 272.4841,0 272.4841,0 2237.04,0 2327.3959,0 2320.5671,-88.8467 2335.2601,-178 2369.9488,-388.4823 2393.527,-641.5228 2402.794,-750.1617"/>
<text text-anchor="middle" x="1280.5389" y="-2.8" font-family="Times,serif" font-size="14.00" fill="#000000">6</text>
</g>
<!-- Anna Kaufmann&#45;&#45;Anne Olwada -->
<g id="edge14" class="edge">
<title>Anna Kaufmann&#45;&#45;Anne Olwada</title>
<path fill="none" stroke="#000000" d="M297.1573,-1118.7031C336.563,-1016.0137 413.0289,-816.7475 450.0963,-720.1518"/>
<text text-anchor="middle" x="368.6854" y="-942.8" font-family="Times,serif" font-size="14.00" fill="#000000">6</text>
</g>
<!-- Anna Kaufmann&#45;&#45;Christian Francois -->
<g id="edge15" class="edge">
<title>Anna Kaufmann&#45;&#45;Christian Francois</title>
<path fill="none" stroke="#000000" d="M338.8813,-1164.6113C355.5711,-1160.2378 373.4862,-1155.7554 390.1854,-1152 472.7432,-1133.434 508.877,-1166.7392 577.3349,-1117 610.5687,-1092.8535 633.2496,-1053.1088 647.9085,-1018.0112"/>
<text text-anchor="middle" x="471.2602" y="-1154.8" font-family="Times,serif" font-size="14.00" fill="#000000">6</text>
</g>
<!-- Anna Kaufmann&#45;&#45;Clement Duchot -->
<g id="edge16" class="edge">
<title>Anna Kaufmann&#45;&#45;Clement Duchot</title>
<path fill="none" stroke="#000000" d="M339.7344,-1198.0097C356.1614,-1201.1579 373.7427,-1204.097 390.1854,-1206 555.2205,-1225.0999 597.6231,-1216.8883 763.7306,-1220 766.8412,-1220.0583 767.6295,-1220.2499 770.7306,-1220 776.7834,-1219.5123 783.052,-1218.8352 789.3212,-1218.0398"/>
<text text-anchor="middle" x="573.8349" y="-1221.8" font-family="Times,serif" font-size="14.00" fill="#000000">6</text>
</g>
<!-- Anna Kaufmann&#45;&#45;Elvira Lores -->
<g id="edge17" class="edge">
<title>Anna Kaufmann&#45;&#45;Elvira Lores</title>
<path fill="none" stroke="#000000" d="M312.4848,-1126.689C367.9301,-1052.5743 475.0099,-922.9441 595.3349,-848 728.83,-764.8531 786.0919,-785.017 943.3602,-784 946.4712,-783.9799 947.2503,-783.9138 950.3602,-784 956.1217,-784.1598 962.1393,-784.3913 968.135,-784.6636"/>
<text text-anchor="middle" x="670.5328" y="-850.8" font-family="Times,serif" font-size="14.00" fill="#000000">6</text>
</g>
<!-- Anna Kaufmann&#45;&#45;Esmana Liubiata -->
<g id="edge18" class="edge">
<title>Anna Kaufmann&#45;&#45;Esmana Liubiata</title>
<path fill="none" stroke="#000000" d="M318.5437,-1234.7259C355.7594,-1270.6147 411.6072,-1312 471.2602,-1312 471.2602,-1312 471.2602,-1312 857.0454,-1312 960.3162,-1312 1068.4734,-1253.8411 1132.3173,-1212.4938"/>
<text text-anchor="middle" x="767.2306" y="-1314.8" font-family="Times,serif" font-size="14.00" fill="#000000">6</text>
</g>
<!-- Anna Kaufmann&#45;&#45;Fjodor Kowalski -->
<g id="edge19" class="edge">
<title>Anna Kaufmann&#45;&#45;Fjodor Kowalski</title>
<path fill="none" stroke="#000000" d="M309.0046,-1241.3619C329.3865,-1268.7504 357.3037,-1299.0344 390.1854,-1316 663.3718,-1456.9527 771.0582,-1436.8564 1076.4817,-1402 1170.5534,-1391.2641 1213.0444,-1416.646 1284.0389,-1354 1301.4352,-1338.6494 1292.6279,-1326.2062 1302.0389,-1305 1312.6695,-1281.0455 1325.7109,-1255.4014 1337.6318,-1233.0861"/>
<text text-anchor="middle" x="857.0454" y="-1430.8" font-family="Times,serif" font-size="14.00" fill="#000000">6</text>
</g>
<!-- Anna Kaufmann&#45;&#45;Immanuel Karagianni -->
<g id="edge20" class="edge">
<title>Anna Kaufmann&#45;&#45;Immanuel Karagianni</title>
<path fill="none" stroke="#000000" d="M297.6944,-1118.7185C315.0422,-1071.249 336.7656,-1004.6248 347.1854,-944 365.2663,-838.8009 338.207,-567.2761 365.1854,-464 391.3131,-363.9803 367.8842,-257 471.2602,-257 471.2602,-257 471.2602,-257 767.2306,-257 1040.6961,-257 1349.6994,-372.8584 1492.2478,-433.2768"/>
<text text-anchor="middle" x="946.8602" y="-274.8" font-family="Times,serif" font-size="14.00" fill="#000000">6</text>
</g>
<!-- Anna Kaufmann&#45;&#45;Kim Passa -->
<g id="edge21" class="edge">
<title>Anna Kaufmann&#45;&#45;Kim Passa</title>
<path fill="none" stroke="#000000" d="M303.2022,-1244.6213C324.1636,-1282.5835 354.5403,-1330.5945 390.1854,-1366 621.9315,-1596.1885 768.6629,-1552.8669 1094.4817,-1576 1221.6456,-1585.0286 1564.806,-1562.2945 1659.5532,-1477 1698.5653,-1441.88 1675.6041,-1412.0456 1702.5532,-1367 1706.4933,-1360.4141 1711.3222,-1353.9096 1716.3784,-1347.8333"/>
<text text-anchor="middle" x="1022.4209" y="-1577.8" font-family="Times,serif" font-size="14.00" fill="#000000">6</text>
</g>
<!-- Anna Kaufmann&#45;&#45;Miu Hanwan -->
<g id="edge22" class="edge">
<title>Anna Kaufmann&#45;&#45;Miu Hanwan</title>
<path fill="none" stroke="#000000" d="M296.2276,-1118.1643C312.8005,-1070.5637 334.1979,-1004.0159 347.1854,-944 363.6195,-868.0569 331.9621,-648.4537 390.1854,-597 424.0327,-567.0881 508.0424,-592.8549 1484.6394,-696 1573.4847,-705.3836 1596.1832,-703.8745 1684.5532,-717 1738.3565,-724.9914 1799.2554,-737.0241 1842.0976,-745.9898"/>
<text text-anchor="middle" x="1097.9817" y="-657.8" font-family="Times,serif" font-size="14.00" fill="#000000">6</text>
</g>
<!-- Anna Kaufmann&#45;&#45;Nico Ojenbeer -->
<g id="edge23" class="edge">
<title>Anna Kaufmann&#45;&#45;Nico Ojenbeer</title>
<path fill="none" stroke="#000000" d="M297.7394,-1118.7263C315.1094,-1071.2605 336.8407,-1004.6377 347.1854,-944 360.122,-868.1693 336.0651,-307.6685 390.1854,-253 498.7066,-143.3795 926.0154,-182.9619 1076.4817,-149 1095.9572,-144.6042 1099.731,-138.9203 1119.4817,-136 1180.84,-126.9277 1197.0144,-135.6603 1259.0389,-136 1340.1983,-136.4445 1373.1285,-94.4879 1441.6394,-138 1478.7227,-161.5521 1452.1467,-197.4348 1484.6394,-227 1545.9805,-282.8145 1587.8474,-250.3315 1659.5532,-292 1681.1034,-304.5229 1681.1505,-315.2266 1702.5532,-328 1741.7381,-351.386 1756.1506,-347.6612 1797.9363,-366 1868.3999,-396.925 1904.2941,-382.2473 1953.9891,-441 1992.6997,-486.7663 2029.6074,-652.1776 2047.5591,-743.0898"/>
<text text-anchor="middle" x="1189.2603" y="-138.8" font-family="Times,serif" font-size="14.00" fill="#000000">6</text>
</g>
<!-- Anna Kaufmann&#45;&#45;Penn Osterwalder -->
<g id="edge24" class="edge">
<title>Anna Kaufmann&#45;&#45;Penn Osterwalder</title>
<path fill="none" stroke="#000000" d="M289.1021,-1249.847C306.2643,-1307.2514 338.0105,-1389.1815 390.1854,-1444 460.8006,-1518.1931 499.9375,-1511.7111 595.3349,-1549 947.3395,-1686.5913 1066.8918,-1681.0182 1441.6394,-1632 1541.0153,-1619.0013 1569.769,-1618.5345 1659.5532,-1574 1751.0258,-1528.628 1752.4405,-1483.9346 1840.9363,-1433 1957.2023,-1366.082 2026.7508,-1415.6391 2120.8198,-1320 2174.8662,-1265.0515 2129.3681,-1220.9451 2163.8198,-1152 2168.8011,-1142.0313 2175.4696,-1132.4508 2182.7606,-1123.6241"/>
<text text-anchor="middle" x="1280.5389" y="-1654.8" font-family="Times,serif" font-size="14.00" fill="#000000">6</text>
</g>
<!-- Anna Kaufmann&#45;&#45;Tesca Lobes -->
<g id="edge25" class="edge">
<title>Anna Kaufmann&#45;&#45;Tesca Lobes</title>
<path fill="none" stroke="#000000" d="M290.2663,-1249.6732C313.3444,-1332.0038 354.845,-1465.7442 390.1854,-1503 458.4641,-1574.9795 503.2966,-1553.9598 595.3349,-1591 748.6573,-1652.7036 782.0919,-1685.8389 943.3602,-1722 1103.8482,-1757.9861 1516.5801,-1782 1681.0532,-1782 1681.0532,-1782 1681.0532,-1782 2237.04,-1782 2358.0752,-1782 2319.5721,-1648.0142 2335.2601,-1528 2367.8815,-1278.4439 2393.2978,-978.7704 2402.9632,-858.171"/>
<text text-anchor="middle" x="1371.8391" y="-1776.8" font-family="Times,serif" font-size="14.00" fill="#000000">6</text>
</g>
<!-- Anne Olwada&#45;&#45;Christian Francois -->
<g id="edge26" class="edge">
<title>Anne Olwada&#45;&#45;Christian Francois</title>
<path fill="none" stroke="#000000" d="M505.5163,-713.3056C539.1227,-760.6949 590.4958,-833.1376 626.9843,-884.5911"/>
<text text-anchor="middle" x="573.8349" y="-816.8" font-family="Times,serif" font-size="14.00" fill="#000000">6</text>
</g>
<!-- Anne Olwada&#45;&#45;Clement Duchot -->
<g id="edge27" class="edge">
<title>Anne Olwada&#45;&#45;Clement Duchot</title>
<path fill="none" stroke="#000000" d="M479.3661,-723.6221C494.479,-826.6198 529.1849,-1034.856 570.3349,-1095 577.9222,-1106.0895 583.3613,-1105.9027 595.3349,-1112 630.3433,-1129.8272 726.6141,-1162.9792 792.1038,-1184.7655"/>
<text text-anchor="middle" x="670.5328" y="-1171.8" font-family="Times,serif" font-size="14.00" fill="#000000">6</text>
</g>
<!-- Anne Olwada&#45;&#45;Elvira Lores -->
<g id="edge28" class="edge">
<title>Anne Olwada&#45;&#45;Elvira Lores</title>
<path fill="none" stroke="#000000" d="M529.9177,-656.8331C624.1345,-646.5221 812.5693,-637.6494 950.3602,-707 966.6684,-715.208 980.9639,-728.825 992.4304,-742.5737"/>
<text text-anchor="middle" x="767.2306" y="-659.8" font-family="Times,serif" font-size="14.00" fill="#000000">6</text>
</g>
<!-- Anne Olwada&#45;&#45;Esmana Liubiata -->
<g id="edge29" class="edge">
<title>Anne Olwada&#45;&#45;Esmana Liubiata</title>
<path fill="none" stroke="#000000" d="M477.796,-723.7418C490.1707,-823.8093 520.3526,-1021.0023 570.3349,-1067 628.916,-1120.9109 846.9312,-1101.3245 925.3602,-1115 992.3151,-1126.6748 1068.086,-1143.4107 1121.2059,-1155.7291"/>
<text text-anchor="middle" x="857.0454" y="-1117.8" font-family="Times,serif" font-size="14.00" fill="#000000">6</text>
</g>
<!-- Anne Olwada&#45;&#45;Fjodor Kowalski -->
<g id="edge30" class="edge">
<title>Anne Olwada&#45;&#45;Fjodor Kowalski</title>
<path fill="none" stroke="#000000" d="M482.9333,-722.9785C502.8927,-815.8957 546.2126,-991.6366 595.3349,-1030 654.524,-1076.2253 688.8796,-1037.8805 763.7306,-1044 984.2066,-1062.0251 1052.0337,-1015.0037 1259.0389,-1093 1280.0696,-1100.924 1300.8644,-1113.6802 1318.761,-1126.6514"/>
<text text-anchor="middle" x="946.8602" y="-1050.8" font-family="Times,serif" font-size="14.00" fill="#000000">6</text>
</g>
<!-- Anne Olwada&#45;&#45;Immanuel Karagianni -->
<g id="edge31" class="edge">
<title>Anne Olwada&#45;&#45;Immanuel Karagianni</title>
<path fill="none" stroke="#000000" d="M501.0448,-613.8852C518.2432,-588.6651 542.0692,-559.8916 570.3349,-542 772.7779,-413.8577 856.556,-444.1959 1094.4817,-416 1231.803,-399.7264 1391.5227,-426.7438 1487.0707,-447.8156"/>
<text text-anchor="middle" x="1022.4209" y="-430.8" font-family="Times,serif" font-size="14.00" fill="#000000">6</text>
</g>
<!-- Anne Olwada&#45;&#45;Kim Passa -->
<g id="edge32" class="edge">
<title>Anne Olwada&#45;&#45;Kim Passa</title>
<path fill="none" stroke="#000000" d="M481.5816,-723.2078C497.1298,-811.0849 527.3953,-982.8942 552.3349,-1129 556.4289,-1152.9841 553.9523,-1219.0109 570.3349,-1237 632.3662,-1305.114 701.2541,-1229.4987 770.7306,-1290 786.3548,-1303.6058 776.1688,-1316.5247 788.7306,-1333 835.4962,-1394.3347 883.7718,-1375.0433 925.3602,-1440 944.0771,-1469.2338 916.133,-1494.4682 943.3602,-1516 1069.1773,-1615.499 1527.2155,-1516.6462 1659.5532,-1426 1686.323,-1407.6637 1682.1186,-1392.2044 1702.5532,-1367 1707.3085,-1361.1348 1712.5054,-1355.0555 1717.6635,-1349.1971"/>
<text text-anchor="middle" x="1097.9817" y="-1560.8" font-family="Times,serif" font-size="14.00" fill="#000000">6</text>
</g>
<!-- Anne Olwada&#45;&#45;Miu Hanwan -->
<g id="edge33" class="edge">
<title>Anne Olwada&#45;&#45;Miu Hanwan</title>
<path fill="none" stroke="#000000" d="M529.6631,-655.5031C543.0255,-653.3484 557.1697,-651.0819 570.3349,-649 874.9626,-600.8267 952.9052,-526.5727 1259.0389,-564 1361.5851,-576.5371 1383.7704,-597.6763 1484.6394,-620 1623.1458,-650.6534 1661.1773,-643.3088 1797.9363,-681 1809.321,-684.1377 1812.8233,-683.9022 1822.9363,-690 1835.3858,-697.5066 1847.5967,-707.2937 1858.4149,-717.0934"/>
<text text-anchor="middle" x="1189.2603" y="-566.8" font-family="Times,serif" font-size="14.00" fill="#000000">6</text>
</g>
<!-- Anne Olwada&#45;&#45;Nico Ojenbeer -->
<g id="edge34" class="edge">
<title>Anne Olwada&#45;&#45;Nico Ojenbeer</title>
<path fill="none" stroke="#000000" d="M491.9337,-609.3194C511.9152,-562.3998 546.3816,-496.4657 595.3349,-455 685.778,-378.3905 980.1788,-298.3658 1094.4817,-267 1177.2592,-244.285 1198.5807,-221.9387 1284.0389,-230 1355.0262,-236.6963 1376.3589,-231.321 1441.6394,-260 1463.4498,-269.5818 1463.2281,-281.5567 1484.6394,-292 1557.0939,-327.3396 1585.4875,-308.1753 1659.5532,-340 1680.0723,-348.8167 1683.0163,-355.1799 1702.5532,-366 1757.3136,-396.3277 1912.3523,-446.2576 1953.9891,-493 1962.6591,-502.7332 2012.5456,-657.4725 2040.2915,-744.9307"/>
<text text-anchor="middle" x="1280.5389" y="-232.8" font-family="Times,serif" font-size="14.00" fill="#000000">6</text>
</g>
<!-- Anne Olwada&#45;&#45;Penn Osterwalder -->
<g id="edge35" class="edge">
<title>Anne Olwada&#45;&#45;Penn Osterwalder</title>
<path fill="none" stroke="#000000" d="M481.177,-606.6344C495.3009,-541.1045 527.4402,-435.8695 595.3349,-374 662.0519,-313.2038 701.4736,-335.0987 788.7306,-312 859.6938,-293.2146 881.0452,-302.1682 950.3602,-278 958.8058,-275.0553 960.0325,-272.2634 968.3602,-269 1033.4917,-243.4763 1051.1593,-240.0209 1119.4817,-225 1279.7763,-189.7588 1320.9748,-182.2564 1484.6394,-170 1562.1618,-164.1945 1582.0885,-163.4694 1659.5532,-170 1791.8178,-181.1505 1841.0035,-150.3399 1953.9891,-220 2195.1757,-368.7012 2105.2607,-544.7747 2163.8198,-822 2177.0255,-884.5174 2197.7381,-954.1699 2213.7687,-1004.3755"/>
<text text-anchor="middle" x="1371.8391" y="-191.8" font-family="Times,serif" font-size="14.00" fill="#000000">6</text>
</g>
<!-- Anne Olwada&#45;&#45;Tesca Lobes -->
<g id="edge36" class="edge">
<title>Anne Olwada&#45;&#45;Tesca Lobes</title>
<path fill="none" stroke="#000000" d="M482.6391,-607.0883C498.8747,-534.5719 533.7604,-408.7353 595.3349,-317 651.359,-233.5338 673.8427,-211.0051 763.7306,-166 867.9699,-113.8095 1163.9642,-76 1280.5389,-76 1280.5389,-76 1280.5389,-76 2237.04,-76 2375.434,-76 2401.3298,-581.1607 2406.1192,-749.8764"/>
<text text-anchor="middle" x="1463.1394" y="-78.8" font-family="Times,serif" font-size="14.00" fill="#000000">6</text>
</g>
<!-- Christian Francois&#45;&#45;Clement Duchot -->
<g id="edge41" class="edge">
<title>Christian Francois&#45;&#45;Clement Duchot</title>
<path fill="none" stroke="#000000" d="M710.4793,-1009.7513C732.6558,-1044.2008 761.2462,-1087.1157 788.7306,-1124 796.1484,-1133.9548 804.3628,-1144.3156 812.4487,-1154.188"/>
<text text-anchor="middle" x="767.2306" y="-1098.8" font-family="Times,serif" font-size="14.00" fill="#000000">7</text>
</g>
<!-- Christian Francois&#45;&#45;Elvira Lores -->
<g id="edge42" class="edge">
<title>Christian Francois&#45;&#45;Elvira Lores</title>
<path fill="none" stroke="#000000" d="M718.4187,-887.8253C732.1864,-872.9172 747.8095,-857.5623 763.7306,-845 822.6696,-798.495 911.6361,-788.1227 968.3655,-786.7113"/>
<text text-anchor="middle" x="857.0454" y="-830.8" font-family="Times,serif" font-size="14.00" fill="#000000">7</text>
</g>
<!-- Christian Francois&#45;&#45;Esmana Liubiata -->
<g id="edge43" class="edge">
<title>Christian Francois&#45;&#45;Esmana Liubiata</title>
<path fill="none" stroke="#000000" d="M737.7417,-979.7958C797.5843,-1009.3557 887.8647,-1052.6537 968.3602,-1086 1026.4654,-1110.0708 1043.0119,-1110.8289 1101.4817,-1134 1109.2007,-1137.059 1117.2529,-1140.3726 1125.2138,-1143.7248"/>
<text text-anchor="middle" x="946.8602" y="-1081.8" font-family="Times,serif" font-size="14.00" fill="#000000">6</text>
</g>
<!-- Christian Francois&#45;&#45;Fjodor Kowalski -->
<g id="edge44" class="edge">
<title>Christian Francois&#45;&#45;Fjodor Kowalski</title>
<path fill="none" stroke="#000000" d="M745.4806,-955.7898C844.9026,-968.9992 1014.9996,-992.4341 1076.4817,-1006 1159.106,-1024.2309 1181.5756,-1025.9622 1259.0389,-1060 1286.5783,-1072.1009 1311.1157,-1094.2016 1330.2149,-1115.5929"/>
<text text-anchor="middle" x="1022.4209" y="-1008.8" font-family="Times,serif" font-size="14.00" fill="#000000">6</text>
</g>
<!-- Christian Francois&#45;&#45;Immanuel Karagianni -->
<g id="edge45" class="edge">
<title>Christian Francois&#45;&#45;Immanuel Karagianni</title>
<path fill="none" stroke="#000000" d="M726.3493,-895.147C733.8282,-886.0883 740.6552,-876.249 745.7306,-866 767.3257,-822.392 737.9604,-799.2783 763.7306,-758 866.4777,-593.4215 937.9865,-573.5749 1119.4817,-505 1240.0453,-459.4471 1391.23,-457.3964 1484.7441,-461.8618"/>
<text text-anchor="middle" x="1097.9817" y="-516.8" font-family="Times,serif" font-size="14.00" fill="#000000">7</text>
</g>
<!-- Christian Francois&#45;&#45;Kim Passa -->
<g id="edge46" class="edge">
<title>Christian Francois&#45;&#45;Kim Passa</title>
<path fill="none" stroke="#000000" d="M705.1723,-1012.9654C719.0952,-1041.6964 734.4793,-1075.9654 745.7306,-1108 772.2711,-1183.566 737.4994,-1221.4372 788.7306,-1283 838.9812,-1343.3844 1238.123,-1464.4464 1277.0389,-1471 1443.4822,-1499.0297 1630.9209,-1393.2641 1710.7968,-1341.2687"/>
<text text-anchor="middle" x="1189.2603" y="-1469.8" font-family="Times,serif" font-size="14.00" fill="#000000">7</text>
</g>
<!-- Christian Francois&#45;&#45;Miu Hanwan -->
<g id="edge47" class="edge">
<title>Christian Francois&#45;&#45;Miu Hanwan</title>
<path fill="none" stroke="#000000" d="M723.9182,-893.0053C731.6256,-884.2978 739.1611,-875.128 745.7306,-866 769.3105,-833.2369 757.9215,-812.0813 788.7306,-786 853.0817,-731.5239 885.8971,-742.5654 968.3602,-725 1280.0767,-658.6014 1365.9451,-680.9469 1684.5532,-689 1746.1158,-690.5561 1765.5711,-673.6034 1822.9363,-696 1835.4788,-700.8968 1847.4601,-708.7879 1858.0063,-717.3235"/>
<text text-anchor="middle" x="1280.5389" y="-683.8" font-family="Times,serif" font-size="14.00" fill="#000000">7</text>
</g>
<!-- Christian Francois&#45;&#45;Nico Ojenbeer -->
<g id="edge48" class="edge">
<title>Christian Francois&#45;&#45;Nico Ojenbeer</title>
<path fill="none" stroke="#000000" d="M742.8371,-925.1763C830.9089,-900.9888 984.6416,-862.5457 1119.4817,-848 1181.1494,-841.3477 1200.3059,-828.0605 1259.0389,-848 1281.8505,-855.7444 1279.2273,-873.2556 1302.0389,-881 1331.5892,-891.0322 1609.9403,-882.9299 1684.5532,-875 1796.3786,-863.1151 1924.7669,-835.7053 1998.4079,-818.6306"/>
<text text-anchor="middle" x="1371.8391" y="-888.8" font-family="Times,serif" font-size="14.00" fill="#000000">7</text>
</g>
<!-- Christian Francois&#45;&#45;Penn Osterwalder -->
<g id="edge49" class="edge">
<title>Christian Francois&#45;&#45;Penn Osterwalder</title>
<path fill="none" stroke="#000000" d="M745.7856,-945.869C948.7194,-945.9273 1504.0795,-948.9169 1684.5532,-979 1756.2677,-990.9541 1770.4381,-1009.2274 1840.9363,-1027 1909.503,-1044.2857 1926.8859,-1048.7403 1996.9891,-1058 2052.6833,-1065.3564 2116.1176,-1069.3994 2163.7852,-1071.5801"/>
<text text-anchor="middle" x="1463.1394" y="-962.8" font-family="Times,serif" font-size="14.00" fill="#000000">7</text>
</g>
<!-- Christian Francois&#45;&#45;Tesca Lobes -->
<g id="edge50" class="edge">
<title>Christian Francois&#45;&#45;Tesca Lobes</title>
<path fill="none" stroke="#000000" d="M726.5071,-895.2243C733.9655,-886.1556 740.7449,-876.293 745.7306,-866 769.4319,-817.0685 755.5593,-798.752 763.7306,-745 769.1722,-709.2047 774.5196,-617.3011 788.7306,-584 840.3292,-463.0872 857.9613,-420.3751 968.3602,-349 1049.9148,-296.2733 1722.3217,-150 1819.4363,-150 1819.4363,-150 1819.4363,-150 2237.04,-150 2360.6675,-150 2396.0605,-593.2339 2404.71,-749.924"/>
<text text-anchor="middle" x="1572.0963" y="-211.8" font-family="Times,serif" font-size="14.00" fill="#000000">6</text>
</g>
<!-- Clement Duchot&#45;&#45;Elvira Lores -->
<g id="edge51" class="edge">
<title>Clement Duchot&#45;&#45;Elvira Lores</title>
<path fill="none" stroke="#000000" d="M905.2945,-1156.9618C913.1269,-1146.742 920.3129,-1135.5447 925.3602,-1124 950.1374,-1067.3267 931.2225,-1046.6503 943.3602,-986 951.675,-944.4522 953.0981,-933.5276 968.3602,-894 976.0243,-874.1505 986.2726,-853.1144 995.7849,-835.0596"/>
<text text-anchor="middle" x="946.8602" y="-988.8" font-family="Times,serif" font-size="14.00" fill="#000000">7</text>
</g>
<!-- Clement Duchot&#45;&#45;Esmana Liubiata -->
<g id="edge52" class="edge">
<title>Clement Duchot&#45;&#45;Esmana Liubiata</title>
<path fill="none" stroke="#000000" d="M925.0757,-1199.0375C981.8354,-1193.2286 1062.3985,-1184.9835 1119.6061,-1179.1286"/>
<text text-anchor="middle" x="1022.4209" y="-1197.8" font-family="Times,serif" font-size="14.00" fill="#000000">6</text>
</g>
<!-- Clement Duchot&#45;&#45;Fjodor Kowalski -->
<g id="edge53" class="edge">
<title>Clement Duchot&#45;&#45;Fjodor Kowalski</title>
<path fill="none" stroke="#000000" d="M921.6291,-1229.2002C1002.3868,-1254.6216 1144.0091,-1287.2749 1259.0389,-1251 1280.5865,-1244.2049 1301.5965,-1231.6616 1319.5298,-1218.5398"/>
<text text-anchor="middle" x="1097.9817" y="-1268.8" font-family="Times,serif" font-size="14.00" fill="#000000">6</text>
</g>
<!-- Clement Duchot&#45;&#45;Immanuel Karagianni -->
<g id="edge54" class="edge">
<title>Clement Duchot&#45;&#45;Immanuel Karagianni</title>
<path fill="none" stroke="#000000" d="M907.9795,-1160.2526C914.8361,-1151.8426 920.9981,-1142.6478 925.3602,-1133 942.377,-1095.3629 939.0592,-989.0807 943.3602,-948 953.745,-848.8102 931.0896,-817.5061 968.3602,-725 1009.5988,-622.6452 1023.8842,-583.1204 1119.4817,-528 1123.4237,-525.7271 1354.8932,-496.3203 1485.2329,-479.9026"/>
<text text-anchor="middle" x="1189.2603" y="-530.8" font-family="Times,serif" font-size="14.00" fill="#000000">7</text>
</g>
<!-- Clement Duchot&#45;&#45;Kim Passa -->
<g id="edge55" class="edge">
<title>Clement Duchot&#45;&#45;Kim Passa</title>
<path fill="none" stroke="#000000" d="M915.3073,-1242.1218C931.9747,-1251.2843 950.4805,-1260.3913 968.3602,-1267 1110.4919,-1319.5344 1151.3183,-1321.3609 1302.0389,-1337 1363.7522,-1343.4035 1379.5962,-1337.4271 1441.6394,-1337 1549.6214,-1336.2567 1578.1924,-1350.656 1684.5532,-1332 1691.0757,-1330.8559 1697.8881,-1329.3511 1704.5514,-1327.698"/>
<text text-anchor="middle" x="1280.5389" y="-1338.8" font-family="Times,serif" font-size="14.00" fill="#000000">7</text>
</g>
<!-- Clement Duchot&#45;&#45;Miu Hanwan -->
<g id="edge56" class="edge">
<title>Clement Duchot&#45;&#45;Miu Hanwan</title>
<path fill="none" stroke="#000000" d="M906.8152,-1159.0747C913.7307,-1150.8762 920.2161,-1142.0554 925.3602,-1133 933.8712,-1118.0175 958.0944,-997.8393 968.3602,-984 980.2832,-967.9265 1100.5722,-892.5534 1119.4817,-886 1265.8852,-835.2614 1313.5645,-878.0098 1466.6394,-854 1603.2861,-832.567 1761.417,-793.6329 1842.8042,-772.5321"/>
<text text-anchor="middle" x="1371.8391" y="-865.8" font-family="Times,serif" font-size="14.00" fill="#000000">7</text>
</g>
<!-- Clement Duchot&#45;&#45;Nico Ojenbeer -->
<g id="edge57" class="edge">
<title>Clement Duchot&#45;&#45;Nico Ojenbeer</title>
<path fill="none" stroke="#000000" d="M911.6087,-1164.6795C962.5423,-1128.3999 1042.1118,-1077.4123 1119.4817,-1051 1417.6687,-949.2059 1520.211,-1050.3778 1822.9363,-963 1896.5034,-941.7658 1917.1093,-935.0987 1978.9891,-890 1979.617,-889.5423 1997.7962,-869.9893 2016.6555,-849.645"/>
<text text-anchor="middle" x="1463.1394" y="-1004.8" font-family="Times,serif" font-size="14.00" fill="#000000">7</text>
</g>
<!-- Clement Duchot&#45;&#45;Penn Osterwalder -->
<g id="edge58" class="edge">
<title>Clement Duchot&#45;&#45;Penn Osterwalder</title>
<path fill="none" stroke="#000000" d="M906.7319,-1252.893C925.1818,-1268.8132 946.8684,-1285.875 968.3602,-1299 1018.9498,-1329.8951 1401.5465,-1495.2088 1459.6394,-1507 1462.6883,-1507.6188 1463.5473,-1507.3434 1466.6394,-1507 1565.3018,-1496.0442 1590.2693,-1489.0622 1684.5532,-1458 1736.8623,-1440.7666 1747.552,-1430.2407 1797.9363,-1408 1817.0505,-1399.5626 1821.6097,-1396.9389 1840.9363,-1389 1890.662,-1368.574 1903.9217,-1365.5734 1953.9891,-1346 2028.4074,-1316.9069 2065.0235,-1336.1949 2120.8198,-1279 2162.433,-1236.3438 2134.0739,-1203.6371 2163.8198,-1152 2169.2897,-1142.5046 2176.1275,-1133.2429 2183.4121,-1124.6116"/>
<text text-anchor="middle" x="1572.0963" y="-1507.8" font-family="Times,serif" font-size="14.00" fill="#000000">7</text>
</g>
<!-- Clement Duchot&#45;&#45;Tesca Lobes -->
<g id="edge59" class="edge">
<title>Clement Duchot&#45;&#45;Tesca Lobes</title>
<path fill="none" stroke="#000000" d="M895.4377,-1262.6744C941.3879,-1326.1625 1024.1793,-1427.6666 1119.4817,-1485 1344.4196,-1620.3215 1418.5481,-1668 1681.0532,-1668 1681.0532,-1668 1681.0532,-1668 2237.04,-1668 2287.5782,-1668 2290.0291,-1627.3122 2310.2601,-1581 2367.3319,-1450.3531 2395.9528,-1012.1847 2404.4315,-858.1263"/>
<text text-anchor="middle" x="1681.0532" y="-1670.8" font-family="Times,serif" font-size="14.00" fill="#000000">6</text>
</g>
<!-- Elvira Lores&#45;&#45;Esmana Liubiata -->
<g id="edge60" class="edge">
<title>Elvira Lores&#45;&#45;Esmana Liubiata</title>
<path fill="none" stroke="#000000" d="M1044.0612,-837.8076C1074.0829,-906.9058 1128.3916,-1031.9036 1161.4058,-1107.8896"/>
<text text-anchor="middle" x="1097.9817" y="-971.8" font-family="Times,serif" font-size="14.00" fill="#000000">6</text>
</g>
<!-- Elvira Lores&#45;&#45;Fjodor Kowalski -->
<g id="edge61" class="edge">
<title>Elvira Lores&#45;&#45;Fjodor Kowalski</title>
<path fill="none" stroke="#000000" d="M1069.211,-815.8133C1120.5155,-848.0325 1202.9865,-905.0778 1259.0389,-970 1294.738,-1011.3482 1324.3421,-1065.7737 1344.2518,-1107.7123"/>
<text text-anchor="middle" x="1189.2603" y="-972.8" font-family="Times,serif" font-size="14.00" fill="#000000">6</text>
</g>
<!-- Elvira Lores&#45;&#45;Immanuel Karagianni -->
<g id="edge62" class="edge">
<title>Elvira Lores&#45;&#45;Immanuel Karagianni</title>
<path fill="none" stroke="#000000" d="M1059.3977,-748.0749C1065.9436,-739.3309 1072.0676,-729.7559 1076.4817,-720 1095.0971,-678.8567 1063.3391,-652.7024 1094.4817,-620 1146.2459,-565.6432 1186.4732,-601.1939 1259.0389,-582 1352.1312,-557.3768 1376.8737,-554.8513 1466.6394,-520 1475.5498,-516.5405 1484.743,-512.6323 1493.8149,-508.5567"/>
<text text-anchor="middle" x="1280.5389" y="-580.8" font-family="Times,serif" font-size="14.00" fill="#000000">7</text>
</g>
<!-- Elvira Lores&#45;&#45;Kim Passa -->
<g id="edge63" class="edge">
<title>Elvira Lores&#45;&#45;Kim Passa</title>
<path fill="none" stroke="#000000" d="M1038.4441,-840.0233C1050.1322,-879.3015 1065.742,-934.679 1076.4817,-984 1089.2684,-1042.7218 1076.7141,-1208.7782 1119.4817,-1251 1201.3228,-1331.7967 1569.9484,-1322.6583 1702.5445,-1316.5793"/>
<text text-anchor="middle" x="1371.8391" y="-1321.8" font-family="Times,serif" font-size="14.00" fill="#000000">7</text>
</g>
<!-- Elvira Lores&#45;&#45;Miu Hanwan -->
<g id="edge64" class="edge">
<title>Elvira Lores&#45;&#45;Miu Hanwan</title>
<path fill="none" stroke="#000000" d="M1076.2194,-781.5254C1132.4721,-774.9204 1223.353,-764.7142 1302.0389,-758 1371.9703,-752.0328 1389.4891,-750.2233 1459.6394,-748 1596.4262,-743.6647 1757.3097,-750.3698 1840.7786,-754.733"/>
<text text-anchor="middle" x="1463.1394" y="-750.8" font-family="Times,serif" font-size="14.00" fill="#000000">7</text>
</g>
<!-- Elvira Lores&#45;&#45;Nico Ojenbeer -->
<g id="edge65" class="edge">
<title>Elvira Lores&#45;&#45;Nico Ojenbeer</title>
<path fill="none" stroke="#000000" d="M1073.934,-770.9765C1227.034,-721.365 1677.6498,-582.718 1822.9363,-620 1887.3079,-636.5184 1901.4971,-651.2428 1953.9891,-692 1977.8744,-710.5457 2001.2031,-734.6621 2019.7737,-755.7642"/>
<text text-anchor="middle" x="1572.0963" y="-657.8" font-family="Times,serif" font-size="14.00" fill="#000000">7</text>
</g>
<!-- Elvira Lores&#45;&#45;Penn Osterwalder -->
<g id="edge66" class="edge">
<title>Elvira Lores&#45;&#45;Penn Osterwalder</title>
<path fill="none" stroke="#000000" d="M1076.499,-786.8785C1181.6555,-784.8244 1406.4985,-781.0982 1441.6394,-786 1541.3681,-799.9112 1571.7069,-798.7823 1659.5532,-848 1741.9794,-894.181 1731.6252,-949.3574 1815.9363,-992 1846.6343,-1007.5264 2052.3439,-1043.35 2164.4723,-1062.0881"/>
<text text-anchor="middle" x="1681.0532" y="-867.8" font-family="Times,serif" font-size="14.00" fill="#000000">7</text>
</g>
<!-- Elvira Lores&#45;&#45;Tesca Lobes -->
<g id="edge67" class="edge">
<title>Elvira Lores&#45;&#45;Tesca Lobes</title>
<path fill="none" stroke="#000000" d="M1030.4075,-734.5228C1042.0024,-663.304 1065.3321,-542.407 1094.4817,-509 1207.7641,-379.1724 1647.1339,-234 1819.4363,-234 1819.4363,-234 1819.4363,-234 2237.04,-234 2271.8805,-234 2288.0189,-235.1822 2310.2601,-262 2371.5873,-335.9463 2396.3668,-627.9007 2404.1836,-749.9367"/>
<text text-anchor="middle" x="1750.2448" y="-250.8" font-family="Times,serif" font-size="14.00" fill="#000000">6</text>
</g>
<!-- Esmana Liubiata&#45;&#45;Fjodor Kowalski -->
<g id="edge68" class="edge">
<title>Esmana Liubiata&#45;&#45;Fjodor Kowalski</title>
<path fill="none" stroke="#000000" d="M1259.0671,-1172C1273.0601,-1172 1287.7671,-1172 1301.769,-1172"/>
<text text-anchor="middle" x="1280.5389" y="-1174.8" font-family="Times,serif" font-size="14.00" fill="#000000">6</text>
</g>
<!-- Esmana Liubiata&#45;&#45;Immanuel Karagianni -->
<g id="edge69" class="edge">
<title>Esmana Liubiata&#45;&#45;Immanuel Karagianni</title>
<path fill="none" stroke="#000000" d="M1215.6275,-1106.9573C1229.373,-1071.982 1245.9911,-1027.9452 1259.0389,-988 1281.3698,-919.6357 1255.3723,-886.7227 1302.0389,-832 1354.2035,-770.8303 1419.9544,-822.4476 1466.6394,-757 1490.8829,-723.013 1468.1973,-608.3735 1484.6394,-570 1490.6686,-555.9286 1499.402,-542.3996 1509.0445,-530.0686"/>
<text text-anchor="middle" x="1371.8391" y="-834.8" font-family="Times,serif" font-size="14.00" fill="#000000">6</text>
</g>
<!-- Esmana Liubiata&#45;&#45;Kim Passa -->
<g id="edge70" class="edge">
<title>Esmana Liubiata&#45;&#45;Kim Passa</title>
<path fill="none" stroke="#000000" d="M1242.6982,-1217.3322C1260.531,-1230.2209 1281.1937,-1242.9334 1302.0389,-1251 1381.9612,-1281.9281 1600.0719,-1285.612 1684.5532,-1300 1690.7607,-1301.0572 1697.2724,-1302.2913 1703.6836,-1303.5807"/>
<text text-anchor="middle" x="1463.1394" y="-1282.8" font-family="Times,serif" font-size="14.00" fill="#000000">6</text>
</g>
<!-- Esmana Liubiata&#45;&#45;Miu Hanwan -->
<g id="edge71" class="edge">
<title>Esmana Liubiata&#45;&#45;Miu Hanwan</title>
<path fill="none" stroke="#000000" d="M1236.1707,-1120.0802C1255.5404,-1100.1094 1278.8599,-1077.8409 1302.0389,-1060 1340.3148,-1030.5391 1632.4868,-858.3784 1677.5532,-841 1739.1961,-817.2294 1762.3353,-836.3136 1822.9363,-810 1833.2111,-805.5386 1843.5191,-799.5521 1853.0516,-793.2295"/>
<text text-anchor="middle" x="1572.0963" y="-948.8" font-family="Times,serif" font-size="14.00" fill="#000000">6</text>
</g>
<!-- Esmana Liubiata&#45;&#45;Nico Ojenbeer -->
<g id="edge72" class="edge">
<title>Esmana Liubiata&#45;&#45;Nico Ojenbeer</title>
<path fill="none" stroke="#000000" d="M1242.9471,-1127.288C1260.7924,-1114.4305 1281.3996,-1101.5797 1302.0389,-1093 1443.1499,-1034.3407 1870.9582,-1080.0858 1978.9891,-972 2011.2222,-939.7504 1976.6989,-911.8328 1996.9891,-871 2001.2883,-862.348 2007.0541,-854.0151 2013.3435,-846.3405"/>
<text text-anchor="middle" x="1681.0532" y="-1052.8" font-family="Times,serif" font-size="14.00" fill="#000000">6</text>
</g>
<!-- Esmana Liubiata&#45;&#45;Penn Osterwalder -->
<g id="edge73" class="edge">
<title>Esmana Liubiata&#45;&#45;Penn Osterwalder</title>
<path fill="none" stroke="#000000" d="M1226.4345,-1231.2476C1254.9069,-1275.7597 1291.1046,-1330.19 1302.0389,-1337 1374.9078,-1382.3836 1599.0341,-1398.4847 1684.5532,-1391 1735.5288,-1386.5386 1749.1271,-1386.3649 1797.9363,-1371 1818.0409,-1364.6712 1821.7187,-1359.6561 1840.9363,-1351 1964.6613,-1295.2711 2020.2723,-1320.1251 2120.8198,-1229 2149.8636,-1202.6779 2140.6781,-1183.6363 2163.8198,-1152 2170.2895,-1143.1555 2177.6663,-1134.2447 2185.1883,-1125.7679"/>
<text text-anchor="middle" x="1750.2448" y="-1392.8" font-family="Times,serif" font-size="14.00" fill="#000000">6</text>
</g>
<!-- Esmana Liubiata&#45;&#45;Tesca Lobes -->
<g id="edge74" class="edge">
<title>Esmana Liubiata&#45;&#45;Tesca Lobes</title>
<path fill="none" stroke="#000000" d="M1221.4855,-1234.0274C1250.4355,-1288.8995 1290.1623,-1361.8147 1302.0389,-1372 1488.5801,-1531.9766 1573.6923,-1567 1819.4363,-1567 1819.4363,-1567 1819.4363,-1567 2237.04,-1567 2314.0331,-1567 2286.9341,-1483.3746 2310.2601,-1410 2373.0435,-1212.508 2396.3785,-965.3015 2403.9668,-857.9243"/>
<text text-anchor="middle" x="1819.4363" y="-1569.8" font-family="Times,serif" font-size="14.00" fill="#000000">6</text>
</g>
<!-- Fjodor Kowalski&#45;&#45;Immanuel Karagianni -->
<g id="edge78" class="edge">
<title>Fjodor Kowalski&#45;&#45;Immanuel Karagianni</title>
<path fill="none" stroke="#000000" d="M1393.1409,-1105.2569C1407.7716,-1058.2108 1427.1003,-993.583 1441.6394,-936 1454.8695,-883.601 1459.1028,-870.5153 1466.6394,-817 1474.3141,-762.5033 1463.553,-620.8346 1484.6394,-570 1490.5493,-555.7525 1499.2903,-542.0917 1508.9927,-529.6742"/>
<text text-anchor="middle" x="1463.1394" y="-861.8" font-family="Times,serif" font-size="14.00" fill="#000000">6</text>
</g>
<!-- Fjodor Kowalski&#45;&#45;Kim Passa -->
<g id="edge79" class="edge">
<title>Fjodor Kowalski&#45;&#45;Kim Passa</title>
<path fill="none" stroke="#000000" d="M1441.7892,-1173.8721C1501.0946,-1177.1827 1587.7155,-1186.1218 1659.5532,-1210 1689.5614,-1219.9744 1712.7357,-1247.3131 1728.1454,-1271.4573"/>
<text text-anchor="middle" x="1572.0963" y="-1212.8" font-family="Times,serif" font-size="14.00" fill="#000000">6</text>
</g>
<!-- Fjodor Kowalski&#45;&#45;Miu Hanwan -->
<g id="edge80" class="edge">
<title>Fjodor Kowalski&#45;&#45;Miu Hanwan</title>
<path fill="none" stroke="#000000" d="M1424.5535,-1126.1481C1435.9561,-1116.6336 1448.0677,-1106.8246 1459.6394,-1098 1615.493,-979.1456 1678.3204,-980.2988 1822.9363,-848 1837.4554,-834.7176 1851.6714,-818.5794 1863.7296,-803.6566"/>
<text text-anchor="middle" x="1681.0532" y="-960.8" font-family="Times,serif" font-size="14.00" fill="#000000">6</text>
</g>
<!-- Fjodor Kowalski&#45;&#45;Nico Ojenbeer -->
<g id="edge81" class="edge">
<title>Fjodor Kowalski&#45;&#45;Nico Ojenbeer</title>
<path fill="none" stroke="#000000" d="M1435.3319,-1142.7031C1474.0105,-1127.4724 1524.9143,-1112 1572.0963,-1112 1572.0963,-1112 1572.0963,-1112 1819.4363,-1112 1906.8486,-1112 1933.7415,-1071.7901 1978.9891,-997 2008.2709,-948.5998 1972.693,-922.0852 1996.9891,-871 2001.1386,-862.2752 2006.826,-853.9042 2013.0829,-846.2138"/>
<text text-anchor="middle" x="1750.2448" y="-1114.8" font-family="Times,serif" font-size="14.00" fill="#000000">6</text>
</g>
<!-- Fjodor Kowalski&#45;&#45;Penn Osterwalder -->
<g id="edge82" class="edge">
<title>Fjodor Kowalski&#45;&#45;Penn Osterwalder</title>
<path fill="none" stroke="#000000" d="M1441.5808,-1167.4578C1529.6002,-1162.1255 1685.6708,-1154 1819.4363,-1154 1819.4363,-1154 1819.4363,-1154 2058.9044,-1154 2100.7733,-1154 2143.7028,-1135.3815 2176.9256,-1116.1085"/>
<text text-anchor="middle" x="1819.4363" y="-1156.8" font-family="Times,serif" font-size="14.00" fill="#000000">6</text>
</g>
<!-- Fjodor Kowalski&#45;&#45;Tesca Lobes -->
<g id="edge83" class="edge">
<title>Fjodor Kowalski&#45;&#45;Tesca Lobes</title>
<path fill="none" stroke="#000000" d="M1417.5874,-1225.5375C1430.3359,-1238.5158 1444.7868,-1251.6242 1459.6394,-1262 1556.6454,-1329.7674 1593.5827,-1324.8696 1702.5532,-1371 1744.5758,-1388.7894 1757.4214,-1388.0024 1797.9363,-1409 1818.1842,-1419.4939 1820.5966,-1426.6853 1840.9363,-1437 1907.0671,-1470.5364 1924.0485,-1482.6718 1996.9891,-1496 2051.1285,-1505.8927 2069.7649,-1516.5511 2120.8198,-1496 2229.1302,-1452.4019 2254.6306,-1416.6513 2310.2601,-1314 2352.8798,-1235.3552 2387.6837,-972.0437 2401.1681,-857.7268"/>
<text text-anchor="middle" x="1897.4627" y="-1489.8" font-family="Times,serif" font-size="14.00" fill="#000000">6</text>
</g>
<!-- Immanuel Karagianni&#45;&#45;Kim Passa -->
<g id="edge89" class="edge">
<title>Immanuel Karagianni&#45;&#45;Kim Passa</title>
<path fill="none" stroke="#000000" d="M1635.1231,-530.0793C1644.7681,-542.4092 1653.5089,-555.9351 1659.5532,-570 1708.8324,-684.6704 1683.1389,-1006.7084 1702.5532,-1130 1710.0989,-1177.9196 1724.7041,-1231.4763 1735.7733,-1268.3959"/>
<text text-anchor="middle" x="1681.0532" y="-685.8" font-family="Times,serif" font-size="14.00" fill="#000000">7</text>
</g>
<!-- Immanuel Karagianni&#45;&#45;Miu Hanwan -->
<g id="edge90" class="edge">
<title>Immanuel Karagianni&#45;&#45;Miu Hanwan</title>
<path fill="none" stroke="#000000" d="M1649.3902,-510.2124C1712.9764,-545.2249 1796.7344,-594.2474 1822.9363,-623 1844.9358,-647.1411 1862.8929,-678.9328 1875.6641,-705.6004"/>
<text text-anchor="middle" x="1750.2448" y="-603.8" font-family="Times,serif" font-size="14.00" fill="#000000">7</text>
</g>
<!-- Immanuel Karagianni&#45;&#45;Nico Ojenbeer -->
<g id="edge91" class="edge">
<title>Immanuel Karagianni&#45;&#45;Nico Ojenbeer</title>
<path fill="none" stroke="#000000" d="M1659.5698,-467.5443C1750.5208,-470.7716 1891.578,-489.7841 1978.9891,-570 2004.8063,-593.6921 2030.1945,-682.3249 2045.2021,-743.4391"/>
<text text-anchor="middle" x="1819.4363" y="-493.8" font-family="Times,serif" font-size="14.00" fill="#000000">7</text>
</g>
<!-- Immanuel Karagianni&#45;&#45;Penn Osterwalder -->
<g id="edge92" class="edge">
<title>Immanuel Karagianni&#45;&#45;Penn Osterwalder</title>
<path fill="none" stroke="#000000" d="M1657.8394,-450.0595C1739.225,-436.7616 1862.385,-429.1412 1953.9891,-479 2077.621,-546.2911 2088.0431,-602.6458 2145.8198,-731 2162.7426,-768.5949 2154.0588,-781.9441 2163.8198,-822 2178.9478,-884.0803 2199.4764,-953.7747 2214.9476,-1004.1074"/>
<text text-anchor="middle" x="1897.4627" y="-481.8" font-family="Times,serif" font-size="14.00" fill="#000000">7</text>
</g>
<!-- Immanuel Karagianni&#45;&#45;Tesca Lobes -->
<g id="edge93" class="edge">
<title>Immanuel Karagianni&#45;&#45;Tesca Lobes</title>
<path fill="none" stroke="#000000" d="M1622.1746,-397.1339C1666.8608,-342.2613 1737.736,-276 1819.4363,-276 1819.4363,-276 1819.4363,-276 2237.04,-276 2335.8769,-276 2385.6032,-615.4066 2401.4346,-749.9761"/>
<text text-anchor="middle" x="1975.4891" y="-278.8" font-family="Times,serif" font-size="14.00" fill="#000000">6</text>
</g>
<!-- Kim Passa&#45;&#45;Miu Hanwan -->
<g id="edge98" class="edge">
<title>Kim Passa&#45;&#45;Miu Hanwan</title>
<path fill="none" stroke="#000000" d="M1762.5433,-1267.5521C1789.5638,-1165.5034 1853.999,-922.1501 1882.9456,-812.8271"/>
<text text-anchor="middle" x="1819.4363" y="-1055.8" font-family="Times,serif" font-size="14.00" fill="#000000">7</text>
</g>
<!-- Kim Passa&#45;&#45;Nico Ojenbeer -->
<g id="edge99" class="edge">
<title>Kim Passa&#45;&#45;Nico Ojenbeer</title>
<path fill="none" stroke="#000000" d="M1787.6232,-1283.9881C1840.1679,-1241.0817 1931.9376,-1163.2839 1953.9891,-1126 1977.5304,-1086.1971 1970.7328,-1070.5006 1978.9891,-1025 1991.2923,-957.1968 1968.1893,-933.6036 1996.9891,-871 2001.0268,-862.2229 2006.6557,-853.8246 2012.8883,-846.1228"/>
<text text-anchor="middle" x="1897.4627" y="-1240.8" font-family="Times,serif" font-size="14.00" fill="#000000">7</text>
</g>
<!-- Kim Passa&#45;&#45;Penn Osterwalder -->
<g id="edge100" class="edge">
<title>Kim Passa&#45;&#45;Penn Osterwalder</title>
<path fill="none" stroke="#000000" d="M1797.2284,-1304.9836C1875.3379,-1288.2722 2034.3284,-1246.7981 2145.8198,-1168 2161.2333,-1157.1063 2176.241,-1143.3954 2189.4858,-1129.8392"/>
<text text-anchor="middle" x="1975.4891" y="-1257.8" font-family="Times,serif" font-size="14.00" fill="#000000">7</text>
</g>
<!-- Kim Passa&#45;&#45;Tesca Lobes -->
<g id="edge101" class="edge">
<title>Kim Passa&#45;&#45;Tesca Lobes</title>
<path fill="none" stroke="#000000" d="M1785.7996,-1346.2925C1857.5555,-1407.3671 2023.2839,-1527.454 2145.8198,-1455 2276.3664,-1377.8094 2253.1952,-1296.5148 2310.2601,-1156 2351.8785,-1053.5203 2381.7968,-927.1981 2396.6283,-857.153"/>
<text text-anchor="middle" x="2058.9044" y="-1480.8" font-family="Times,serif" font-size="14.00" fill="#000000">6</text>
</g>
<!-- Miu Hanwan&#45;&#45;Nico Ojenbeer -->
<g id="edge103" class="edge">
<title>Miu Hanwan&#45;&#45;Nico Ojenbeer</title>
<path fill="none" stroke="#000000" d="M1952.1195,-773.5735C1967.3045,-777.9002 1983.8679,-782.6197 1999.3198,-787.0224"/>
<text text-anchor="middle" x="1975.4891" y="-783.8" font-family="Times,serif" font-size="14.00" fill="#000000">7</text>
</g>
<!-- Miu Hanwan&#45;&#45;Penn Osterwalder -->
<g id="edge104" class="edge">
<title>Miu Hanwan&#45;&#45;Penn Osterwalder</title>
<path fill="none" stroke="#000000" d="M1932.3763,-802.66C1950.7317,-825.1767 1974.1228,-852.4223 1996.9891,-875 2055.1552,-932.4319 2128.221,-991.3473 2178.3725,-1030.0147"/>
<text text-anchor="middle" x="2058.9044" y="-987.8" font-family="Times,serif" font-size="14.00" fill="#000000">7</text>
</g>
<!-- Miu Hanwan&#45;&#45;Tesca Lobes -->
<g id="edge105" class="edge">
<title>Miu Hanwan&#45;&#45;Tesca Lobes</title>
<path fill="none" stroke="#000000" d="M1951.7611,-741.796C1966.3161,-738.1599 1982.1371,-734.8368 1996.9891,-733 2127.1756,-716.8993 2278.9535,-759.3177 2356.2674,-785.3701"/>
<text text-anchor="middle" x="2142.3198" y="-738.8" font-family="Times,serif" font-size="14.00" fill="#000000">6</text>
</g>
<!-- Nico Ojenbeer&#45;&#45;Penn Osterwalder -->
<g id="edge106" class="edge">
<title>Nico Ojenbeer&#45;&#45;Penn Osterwalder</title>
<path fill="none" stroke="#000000" d="M2105.6847,-844.7321C2119.6304,-858.2697 2134.2614,-873.9956 2145.8198,-890 2171.6005,-925.6974 2193.7366,-969.7748 2209.7446,-1005.839"/>
<text text-anchor="middle" x="2142.3198" y="-892.8" font-family="Times,serif" font-size="14.00" fill="#000000">7</text>
</g>
<!-- Nico Ojenbeer&#45;&#45;Tesca Lobes -->
<g id="edge107" class="edge">
<title>Nico Ojenbeer&#45;&#45;Tesca Lobes</title>
<path fill="none" stroke="#000000" d="M2121.1712,-804C2187.2075,-804 2290.4651,-804 2353.179,-804"/>
<text text-anchor="middle" x="2237.04" y="-806.8" font-family="Times,serif" font-size="14.00" fill="#000000">6</text>
</g>
<!-- Penn Osterwalder&#45;&#45;Tesca Lobes -->
<g id="edge108" class="edge">
<title>Penn Osterwalder&#45;&#45;Tesca Lobes</title>
<path fill="none" stroke="#000000" d="M2276.2898,-1011.7175C2307.4015,-962.3488 2350.1673,-894.487 2378.2299,-849.9565"/>
<text text-anchor="middle" x="2331.7601" y="-925.8" font-family="Times,serif" font-size="14.00" fill="#000000">6</text>
</g>
<!-- Carmen Finacse -->
<g id="node15" class="node">
<title>Carmen Finacse</title>
<ellipse fill="none" stroke="#000000" cx="77.3914" cy="-1978" rx="67.1523" ry="67.1523"/>
<text text-anchor="middle" x="77.3914" y="-1973.8" font-family="Times,serif" font-size="14.00" fill="#000000">Carmen Finacse</text>
</g>
<!-- Esmeralda Clay -->
<g id="node16" class="node">
<title>Esmeralda Clay</title>
<ellipse fill="none" stroke="#000000" cx="272.4841" cy="-2040" rx="66.1832" ry="66.1832"/>
<text text-anchor="middle" x="272.4841" y="-2035.8" font-family="Times,serif" font-size="14.00" fill="#000000">Esmeralda Clay</text>
</g>
<!-- Carmen Finacse&#45;&#45;Esmeralda Clay -->
<g id="edge37" class="edge">
<title>Carmen Finacse&#45;&#45;Esmeralda Clay</title>
<path fill="none" stroke="#000000" d="M141.8128,-1998.4729C163.4555,-2005.351 187.567,-2013.0135 209.1273,-2019.8654"/>
<text text-anchor="middle" x="176.2829" y="-2011.8" font-family="Times,serif" font-size="14.00" fill="#000000">3</text>
</g>
<!-- Karen Clarens -->
<g id="node17" class="node">
<title>Karen Clarens</title>
<ellipse fill="none" stroke="#000000" cx="471.2602" cy="-1877" rx="60.8704" ry="60.8704"/>
<text text-anchor="middle" x="471.2602" y="-1872.8" font-family="Times,serif" font-size="14.00" fill="#000000">Karen Clarens</text>
</g>
<!-- Carmen Finacse&#45;&#45;Karen Clarens -->
<g id="edge38" class="edge">
<title>Carmen Finacse&#45;&#45;Karen Clarens</title>
<path fill="none" stroke="#000000" d="M135.8569,-1944.2619C155.055,-1934.448 176.8479,-1924.6042 197.7829,-1918 268.7499,-1895.6127 354.035,-1885.3048 410.2839,-1880.6558"/>
<text text-anchor="middle" x="272.4841" y="-1920.8" font-family="Times,serif" font-size="14.00" fill="#000000">3</text>
</g>
<!-- Kiu Kan -->
<g id="node18" class="node">
<title>Kiu Kan</title>
<ellipse fill="none" stroke="#000000" cx="670.5328" cy="-1976" rx="40.1333" ry="40.1333"/>
<text text-anchor="middle" x="670.5328" y="-1971.8" font-family="Times,serif" font-size="14.00" fill="#000000">Kiu Kan</text>
</g>
<!-- Carmen Finacse&#45;&#45;Kiu Kan -->
<g id="edge39" class="edge">
<title>Carmen Finacse&#45;&#45;Kiu Kan</title>
<path fill="none" stroke="#000000" d="M144.0572,-1967.5703C202.2532,-1959.0225 289.0714,-1947.6113 365.1854,-1943 368.2908,-1942.8119 369.0929,-1942.6605 372.1854,-1943 380.3316,-1943.8942 382.0961,-1945.6873 390.1854,-1947 474.9507,-1960.7553 575.2509,-1969.2801 629.9487,-1973.2812"/>
<text text-anchor="middle" x="368.6854" y="-1945.8" font-family="Times,serif" font-size="14.00" fill="#000000">3</text>
</g>
<!-- Sean Manney -->
<g id="node19" class="node">
<title>Sean Manney</title>
<ellipse fill="none" stroke="#000000" cx="857.0454" cy="-2028" rx="58.4736" ry="58.4736"/>
<text text-anchor="middle" x="857.0454" y="-2023.8" font-family="Times,serif" font-size="14.00" fill="#000000">Sean Manney</text>
</g>
<!-- Carmen Finacse&#45;&#45;Sean Manney -->
<g id="edge40" class="edge">
<title>Carmen Finacse&#45;&#45;Sean Manney</title>
<path fill="none" stroke="#000000" d="M114.4777,-2034.387C135.7159,-2062.5041 164.7042,-2094.7443 197.7829,-2115 226.9982,-2132.89 238.2265,-2134 272.4841,-2134 272.4841,-2134 272.4841,-2134 670.5328,-2134 725.655,-2134 779.38,-2098.5718 814.8999,-2068.6792"/>
<text text-anchor="middle" x="471.2602" y="-2136.8" font-family="Times,serif" font-size="14.00" fill="#000000">3</text>
</g>
<!-- Esmeralda Clay&#45;&#45;Karen Clarens -->
<g id="edge75" class="edge">
<title>Esmeralda Clay&#45;&#45;Karen Clarens</title>
<path fill="none" stroke="#000000" d="M324.7493,-1999.1175C340.1154,-1986.9552 356.8993,-1973.5304 372.1854,-1961 389.5382,-1946.7754 408.3687,-1930.9187 424.9068,-1916.8474"/>
<text text-anchor="middle" x="368.6854" y="-1968.8" font-family="Times,serif" font-size="14.00" fill="#000000">3</text>
</g>
<!-- Esmeralda Clay&#45;&#45;Kiu Kan -->
<g id="edge76" class="edge">
<title>Esmeralda Clay&#45;&#45;Kiu Kan</title>
<path fill="none" stroke="#000000" d="M338.2138,-2029.4317C421.3504,-2016.0646 561.9165,-1993.4638 630.495,-1982.4375"/>
<text text-anchor="middle" x="471.2602" y="-2023.8" font-family="Times,serif" font-size="14.00" fill="#000000">3</text>
</g>
<!-- Esmeralda Clay&#45;&#45;Sean Manney -->
<g id="edge77" class="edge">
<title>Esmeralda Clay&#45;&#45;Sean Manney</title>
<path fill="none" stroke="#000000" d="M338.9299,-2040.37C395.6368,-2040.5403 479.3495,-2040.4474 552.3349,-2039 637.9414,-2037.3023 737.0149,-2033.3586 798.362,-2030.6848"/>
<text text-anchor="middle" x="573.8349" y="-2041.8" font-family="Times,serif" font-size="14.00" fill="#000000">3</text>
</g>
<!-- Karen Clarens&#45;&#45;Kiu Kan -->
<g id="edge96" class="edge">
<title>Karen Clarens&#45;&#45;Kiu Kan</title>
<path fill="none" stroke="#000000" d="M525.9758,-1904.1831C560.4266,-1921.2985 603.9393,-1942.9159 634.1809,-1957.9401"/>
<text text-anchor="middle" x="573.8349" y="-1932.8" font-family="Times,serif" font-size="14.00" fill="#000000">3</text>
</g>
<!-- Karen Clarens&#45;&#45;Sean Manney -->
<g id="edge97" class="edge">
<title>Karen Clarens&#45;&#45;Sean Manney</title>
<path fill="none" stroke="#000000" d="M532.1362,-1873.7782C590.0839,-1873.2175 678.2173,-1879.0404 745.7306,-1913 776.5112,-1928.4828 803.5897,-1955.9478 823.3307,-1980.1547"/>
<text text-anchor="middle" x="670.5328" y="-1915.8" font-family="Times,serif" font-size="14.00" fill="#000000">3</text>
</g>
<!-- Kiu Kan&#45;&#45;Sean Manney -->
<g id="edge102" class="edge">
<title>Kiu Kan&#45;&#45;Sean Manney</title>
<path fill="none" stroke="#000000" d="M709.6319,-1986.9009C736.0163,-1994.2569 771.2515,-2004.0805 800.6575,-2012.279"/>
<text text-anchor="middle" x="767.2306" y="-2006.8" font-family="Times,serif" font-size="14.00" fill="#000000">3</text>
</g>
<!-- Francis Odell -->
<g id="node20" class="node">
<title>Francis Odell</title>
<ellipse fill="none" stroke="#000000" cx="77.3914" cy="-2215" rx="57.9977" ry="57.9977"/>
<text text-anchor="middle" x="77.3914" y="-2210.8" font-family="Times,serif" font-size="14.00" fill="#000000">Francis Odell</text>
</g>
<!-- Heinz Gutschmidt -->
<g id="node21" class="node">
<title>Heinz Gutschmidt</title>
<ellipse fill="none" stroke="#000000" cx="272.4841" cy="-2287" rx="74.9031" ry="74.9031"/>
<text text-anchor="middle" x="272.4841" y="-2282.8" font-family="Times,serif" font-size="14.00" fill="#000000">Heinz Gutschmidt</text>
</g>
<!-- Francis Odell&#45;&#45;Heinz Gutschmidt -->
<g id="edge84" class="edge">
<title>Francis Odell&#45;&#45;Heinz Gutschmidt</title>
<path fill="none" stroke="#000000" d="M131.995,-2235.1518C153.751,-2243.1809 179.0676,-2252.5241 202.1691,-2261.0499"/>
<text text-anchor="middle" x="176.2829" y="-2253.8" font-family="Times,serif" font-size="14.00" fill="#000000">3</text>
</g>
<!-- Maris Freeman -->
<g id="node22" class="node">
<title>Maris Freeman</title>
<ellipse fill="none" stroke="#000000" cx="471.2602" cy="-2256" rx="63.7777" ry="63.7777"/>
<text text-anchor="middle" x="471.2602" y="-2251.8" font-family="Times,serif" font-size="14.00" fill="#000000">Maris Freeman</text>
</g>
<!-- Francis Odell&#45;&#45;Maris Freeman -->
<g id="edge85" class="edge">
<title>Francis Odell&#45;&#45;Maris Freeman</title>
<path fill="none" stroke="#000000" d="M133.2584,-2198.6695C188.4119,-2185.0905 274.7611,-2170.6948 347.1854,-2189 371.9878,-2195.2688 397.2159,-2207.5839 418.3894,-2219.9645"/>
<text text-anchor="middle" x="272.4841" y="-2191.8" font-family="Times,serif" font-size="14.00" fill="#000000">3</text>
</g>
<!-- Heinz Gutschmidt&#45;&#45;Maris Freeman -->
<g id="edge88" class="edge">
<title>Heinz Gutschmidt&#45;&#45;Maris Freeman</title>
<path fill="none" stroke="#000000" d="M346.501,-2275.4567C366.7006,-2272.3065 388.3987,-2268.9226 407.9436,-2265.8745"/>
<text text-anchor="middle" x="368.6854" y="-2275.8" font-family="Times,serif" font-size="14.00" fill="#000000">3</text>
</g>
<!-- Francois de Perrier -->
<g id="node23" class="node">
<title>Francois de Perrier</title>
<ellipse fill="none" stroke="#000000" cx="77.3914" cy="-2491" rx="77.283" ry="77.283"/>
<text text-anchor="middle" x="77.3914" y="-2486.8" font-family="Times,serif" font-size="14.00" fill="#000000">Francois de Perrier</text>
</g>
<!-- Karel de Groot -->
<g id="node24" class="node">
<title>Karel de Groot</title>
<ellipse fill="none" stroke="#000000" cx="272.4841" cy="-2519" rx="63.2924" ry="63.2924"/>
<text text-anchor="middle" x="272.4841" y="-2514.8" font-family="Times,serif" font-size="14.00" fill="#000000">Karel de Groot</text>
</g>
<!-- Francois de Perrier&#45;&#45;Karel de Groot -->
<g id="edge86" class="edge">
<title>Francois de Perrier&#45;&#45;Karel de Groot</title>
<path fill="none" stroke="#000000" d="M154.2172,-2502.0261C172.6641,-2504.6737 192.1475,-2507.47 209.8608,-2510.0122"/>
<text text-anchor="middle" x="176.2829" y="-2507.8" font-family="Times,serif" font-size="14.00" fill="#000000">7</text>
</g>
<!-- Magdalena Predutta -->
<g id="node25" class="node">
<title>Magdalena Predutta</title>
<ellipse fill="none" stroke="#000000" cx="471.2602" cy="-2434" rx="81.1496" ry="81.1496"/>
<text text-anchor="middle" x="471.2602" y="-2429.8" font-family="Times,serif" font-size="14.00" fill="#000000">Magdalena Predutta</text>
</g>
<!-- Francois de Perrier&#45;&#45;Magdalena Predutta -->
<g id="edge87" class="edge">
<title>Francois de Perrier&#45;&#45;Magdalena Predutta</title>
<path fill="none" stroke="#000000" d="M144.5203,-2452.1611C161.3775,-2444.2547 179.8013,-2437.1056 197.7829,-2433 261.4286,-2418.4682 335.5994,-2419.8352 390.6281,-2424.2145"/>
<text text-anchor="middle" x="272.4841" y="-2435.8" font-family="Times,serif" font-size="14.00" fill="#000000">7</text>
</g>
<!-- Karel de Groot&#45;&#45;Magdalena Predutta -->
<g id="edge95" class="edge">
<title>Karel de Groot&#45;&#45;Magdalena Predutta</title>
<path fill="none" stroke="#000000" d="M330.7804,-2494.0715C351.4006,-2485.254 374.885,-2475.2116 396.6711,-2465.8955"/>
<text text-anchor="middle" x="368.6854" y="-2482.8" font-family="Times,serif" font-size="14.00" fill="#000000">7</text>
</g>
<!-- Karalda Nimwada -->
<g id="node26" class="node">
<title>Karalda Nimwada</title>
<ellipse fill="none" stroke="#000000" cx="77.3914" cy="-2673" rx="74.8684" ry="74.8684"/>
<text text-anchor="middle" x="77.3914" y="-2668.8" font-family="Times,serif" font-size="14.00" fill="#000000">Karalda Nimwada</text>
</g>
<!-- Pedro Alvares -->
<g id="node27" class="node">
<title>Pedro Alvares</title>
<ellipse fill="none" stroke="#000000" cx="272.4841" cy="-2673" rx="59.9358" ry="59.9358"/>
<text text-anchor="middle" x="272.4841" y="-2668.8" font-family="Times,serif" font-size="14.00" fill="#000000">Pedro Alvares</text>
</g>
<!-- Karalda Nimwada&#45;&#45;Pedro Alvares -->
<g id="edge94" class="edge">
<title>Karalda Nimwada&#45;&#45;Pedro Alvares</title>
<path fill="none" stroke="#000000" d="M152.2614,-2673C172.1407,-2673 193.3501,-2673 212.333,-2673"/>
<text text-anchor="middle" x="176.2829" y="-2675.8" font-family="Times,serif" font-size="14.00" fill="#000000">4</text>
</g>
</g>
</svg>
