<?xml version="1.0" encoding="UTF-8" standalone="no"?>
<!DOCTYPE svg PUBLIC "-//W3C//DTD SVG 1.1//EN"
 "http://www.w3.org/Graphics/SVG/1.1/DTD/svg11.dtd">
<!-- Generated by graphviz version 2.40.1 (20161225.0304)
 -->
<!-- Title: %3 Pages: 1 -->
<svg width="5799pt" height="172pt"
 viewBox="0.00 0.00 5798.62 172.00" xmlns="http://www.w3.org/2000/svg" xmlns:xlink="http://www.w3.org/1999/xlink">
<g id="graph0" class="graph" transform="scale(1 1) rotate(0) translate(4 168)">
<title>%3</title>
<polygon fill="#ffffff" stroke="transparent" points="-4,4 -4,-168 5794.6162,-168 5794.6162,4 -4,4"/>
<!-- Create Purchase Requisition -->
<g id="node1" class="node">
<title>Create Purchase Requisition</title>
<polygon fill="none" stroke="#000000" points="174.4423,-39 .1856,-39 .1856,-3 174.4423,-3 174.4423,-39"/>
<text text-anchor="middle" x="87.314" y="-16.8" font-family="Times,serif" font-size="14.00" fill="#000000">Create Purchase Requisition</text>
</g>
<!-- Analyze Purchase Requisition -->
<g id="node2" class="node">
<title>Analyze Purchase Requisition</title>
<polygon fill="none" stroke="#000000" points="445.0148,-83 260.5379,-83 260.5379,-47 445.0148,-47 445.0148,-83"/>
<text text-anchor="middle" x="352.7764" y="-60.8" font-family="Times,serif" font-size="14.00" fill="#000000">Analyze Purchase Requisition</text>
</g>
<!-- Create Purchase Requisition&#45;&gt;Analyze Purchase Requisition -->
<g id="edge1" class="edge">
<title>Create Purchase Requisition&#45;&gt;Analyze Purchase Requisition</title>
<path fill="none" stroke="#000000" stroke-width="1.2778" d="M174.604,-35.4682C198.8843,-39.4926 225.4718,-43.8994 250.5273,-48.0524"/>
<polygon fill="#000000" stroke="#000000" stroke-width="1.2778" points="249.9774,-51.5089 260.4152,-49.6913 251.1221,-44.6031 249.9774,-51.5089"/>
<text text-anchor="middle" x="217.5176" y="-48.8" font-family="Times,serif" font-size="14.00" fill="#000000">17:40:23</text>
</g>
<!-- Create Request for Quotation Requester -->
<g id="node3" class="node">
<title>Create Request for Quotation Requester</title>
<polygon fill="none" stroke="#000000" points="1279.3164,-70 1039.4531,-70 1039.4531,-34 1279.3164,-34 1279.3164,-70"/>
<text text-anchor="middle" x="1159.3848" y="-47.8" font-family="Times,serif" font-size="14.00" fill="#000000">Create Request for Quotation Requester</text>
</g>
<!-- Create Purchase Requisition&#45;&gt;Create Request for Quotation Requester -->
<g id="edge2" class="edge">
<title>Create Purchase Requisition&#45;&gt;Create Request for Quotation Requester</title>
<path fill="none" stroke="#000000" stroke-width="1.0712" d="M174.5355,-20.4835C260.5677,-20.0959 395.8139,-19.8131 512.9248,-21 600.6319,-21.8889 622.5945,-21.4788 710.2354,-25 817.7121,-29.3181 939.5111,-36.8022 1029.1327,-42.7972"/>
<polygon fill="#000000" stroke="#000000" stroke-width="1.0712" points="1029.1365,-46.3053 1039.3486,-43.4835 1029.6057,-39.321 1029.1365,-46.3053"/>
<text text-anchor="middle" x="488.0352" y="-23.8" font-family="Times,serif" font-size="14.00" fill="#000000">4:35:35</text>
</g>
<!-- Amend Purchase Requisition -->
<g id="node4" class="node">
<title>Amend Purchase Requisition</title>
<polygon fill="none" stroke="#000000" points="710.3909,-70 530.7693,-70 530.7693,-34 710.3909,-34 710.3909,-70"/>
<text text-anchor="middle" x="620.5801" y="-47.8" font-family="Times,serif" font-size="14.00" fill="#000000">Amend Purchase Requisition</text>
</g>
<!-- Analyze Purchase Requisition&#45;&gt;Amend Purchase Requisition -->
<g id="edge3" class="edge">
<title>Analyze Purchase Requisition&#45;&gt;Amend Purchase Requisition</title>
<path fill="none" stroke="#000000" stroke-width="1.1861" d="M445.3142,-60.5079C469.631,-59.3275 495.966,-58.0491 520.6515,-56.8508"/>
<polygon fill="#000000" stroke="#000000" stroke-width="1.1861" points="520.9328,-60.3414 530.7513,-56.3606 520.5934,-53.3496 520.9328,-60.3414"/>
<text text-anchor="middle" x="488.0352" y="-61.8" font-family="Times,serif" font-size="14.00" fill="#000000">11:51:54</text>
</g>
<!-- Create Request for Quotation Requester Manager -->
<g id="node5" class="node">
<title>Create Request for Quotation Requester Manager</title>
<polygon fill="none" stroke="#000000" points="1021.5108,-132 728.1435,-132 728.1435,-96 1021.5108,-96 1021.5108,-132"/>
<text text-anchor="middle" x="874.8271" y="-109.8" font-family="Times,serif" font-size="14.00" fill="#000000">Create Request for Quotation Requester Manager</text>
</g>
<!-- Analyze Purchase Requisition&#45;&gt;Create Request for Quotation Requester Manager -->
<g id="edge4" class="edge">
<title>Analyze Purchase Requisition&#45;&gt;Create Request for Quotation Requester Manager</title>
<path fill="none" stroke="#000000" stroke-width="1.0019" d="M445.2019,-75.1775C451.273,-75.8064 457.2956,-76.4192 463.1455,-77 547.205,-85.3464 641.0045,-93.8403 717.8132,-100.5812"/>
<polygon fill="#000000" stroke="#000000" stroke-width="1.0019" points="717.7864,-104.0922 728.0537,-101.4784 718.3974,-97.1189 717.7864,-104.0922"/>
<text text-anchor="middle" x="488.0352" y="-83.8" font-family="Times,serif" font-size="14.00" fill="#000000">0:12:07</text>
</g>
<!-- Analyze Request for Quotation -->
<g id="node6" class="node">
<title>Analyze Request for Quotation</title>
<polygon fill="none" stroke="#000000" points="1591.6362,-100 1401.5102,-100 1401.5102,-64 1591.6362,-64 1591.6362,-100"/>
<text text-anchor="middle" x="1496.5732" y="-77.8" font-family="Times,serif" font-size="14.00" fill="#000000">Analyze Request for Quotation</text>
</g>
<!-- Create Request for Quotation Requester&#45;&gt;Analyze Request for Quotation -->
<g id="edge12" class="edge">
<title>Create Request for Quotation Requester&#45;&gt;Analyze Request for Quotation</title>
<path fill="none" stroke="#000000" stroke-width="3.3301" d="M1279.6895,-62.7036C1316.0971,-65.9429 1355.7858,-69.474 1391.1421,-72.6197"/>
<polygon fill="#000000" stroke="#000000" stroke-width="3.3301" points="1391.2076,-76.1393 1401.4785,-73.5393 1391.828,-69.1668 1391.2076,-76.1393"/>
<text text-anchor="middle" x="1340.3213" y="-73.8" font-family="Times,serif" font-size="14.00" fill="#000000">6 days, 3:38:08</text>
</g>
<!-- Amend Purchase Requisition&#45;&gt;Analyze Purchase Requisition -->
<g id="edge5" class="edge">
<title>Amend Purchase Requisition&#45;&gt;Analyze Purchase Requisition</title>
<path fill="none" stroke="#000000" stroke-width="1.2862" d="M530.5623,-39.3271C508.486,-37.8205 484.939,-37.5626 463.1455,-40 452.8621,-41.1501 442.1384,-42.8851 431.5909,-44.9157"/>
<polygon fill="#000000" stroke="#000000" stroke-width="1.2862" points="430.6613,-41.5327 421.5525,-46.9437 432.0476,-48.3941 430.6613,-41.5327"/>
<text text-anchor="middle" x="488.0352" y="-42.8" font-family="Times,serif" font-size="14.00" fill="#000000">18:12:30</text>
</g>
<!-- Amend Purchase Requisition&#45;&gt;Create Request for Quotation Requester -->
<g id="edge6" class="edge">
<title>Amend Purchase Requisition&#45;&gt;Create Request for Quotation Requester</title>
<path fill="none" stroke="#000000" stroke-width="1.0756" d="M710.4605,-52C797.5908,-52 930.6993,-52 1029.3737,-52"/>
<polygon fill="#000000" stroke="#000000" stroke-width="1.0756" points="1029.4151,-55.5001 1039.4151,-52 1029.4151,-48.5001 1029.4151,-55.5001"/>
<text text-anchor="middle" x="874.8271" y="-54.8" font-family="Times,serif" font-size="14.00" fill="#000000">4:52:20</text>
</g>
<!-- Create Request for Quotation Requester Manager&#45;&gt;Analyze Request for Quotation -->
<g id="edge7" class="edge">
<title>Create Request for Quotation Requester Manager&#45;&gt;Analyze Request for Quotation</title>
<path fill="none" stroke="#000000" stroke-width="2.6174" d="M1021.4303,-107.2811C1123.022,-102.5052 1261.4021,-95.7622 1383.292,-89 1385.9664,-88.8516 1388.6763,-88.6993 1391.4102,-88.5438"/>
<polygon fill="#000000" stroke="#000000" stroke-width="2.6174" points="1391.6122,-92.038 1401.3943,-87.9685 1391.2095,-85.0496 1391.6122,-92.038"/>
<text text-anchor="middle" x="1159.3848" y="-108.8" font-family="Times,serif" font-size="14.00" fill="#000000">4 days, 6:30:18</text>
</g>
<!-- Amend Request for Quotation Requester -->
<g id="node7" class="node">
<title>Amend Request for Quotation Requester</title>
<polygon fill="none" stroke="#000000" points="1998.8436,-164 1754.6144,-164 1754.6144,-128 1998.8436,-128 1998.8436,-164"/>
<text text-anchor="middle" x="1876.729" y="-141.8" font-family="Times,serif" font-size="14.00" fill="#000000">Amend Request for Quotation Requester</text>
</g>
<!-- Analyze Request for Quotation&#45;&gt;Amend Request for Quotation Requester -->
<g id="edge8" class="edge">
<title>Analyze Request for Quotation&#45;&gt;Amend Request for Quotation Requester</title>
<path fill="none" stroke="#000000" stroke-width="1.0179" d="M1527.6114,-100.2195C1549.7356,-112.1972 1580.6203,-126.919 1609.8545,-134 1652.9274,-144.4329 1701.0282,-148.7492 1744.4021,-150.0616"/>
<polygon fill="#000000" stroke="#000000" stroke-width="1.0179" points="1744.3621,-153.5616 1754.4472,-150.315 1744.5387,-146.5638 1744.3621,-153.5616"/>
<text text-anchor="middle" x="1659.8252" y="-149.8" font-family="Times,serif" font-size="14.00" fill="#000000">1:13:00</text>
</g>
<!-- Send Request for Quotation to Supplier -->
<g id="node8" class="node">
<title>Send Request for Quotation to Supplier</title>
<polygon fill="none" stroke="#000000" points="1995.4811,-100 1757.9769,-100 1757.9769,-64 1995.4811,-64 1995.4811,-100"/>
<text text-anchor="middle" x="1876.729" y="-77.8" font-family="Times,serif" font-size="14.00" fill="#000000">Send Request for Quotation to Supplier</text>
</g>
<!-- Analyze Request for Quotation&#45;&gt;Send Request for Quotation to Supplier -->
<g id="edge9" class="edge">
<title>Analyze Request for Quotation&#45;&gt;Send Request for Quotation to Supplier</title>
<path fill="none" stroke="#000000" stroke-width="1.2694" d="M1592.0119,-82C1639.2304,-82 1696.9099,-82 1747.9756,-82"/>
<polygon fill="#000000" stroke="#000000" stroke-width="1.2694" points="1748.0955,-85.5001 1758.0955,-82 1748.0954,-78.5001 1748.0955,-85.5001"/>
<text text-anchor="middle" x="1659.8252" y="-84.8" font-family="Times,serif" font-size="14.00" fill="#000000">17:08:27</text>
</g>
<!-- Amend Request for Quotation Requester Manager -->
<g id="node9" class="node">
<title>Amend Request for Quotation Requester Manager</title>
<polygon fill="none" stroke="#000000" points="2025.5952,-36 1727.8628,-36 1727.8628,0 2025.5952,0 2025.5952,-36"/>
<text text-anchor="middle" x="1876.729" y="-13.8" font-family="Times,serif" font-size="14.00" fill="#000000">Amend Request for Quotation Requester Manager</text>
</g>
<!-- Analyze Request for Quotation&#45;&gt;Amend Request for Quotation Requester Manager -->
<g id="edge10" class="edge">
<title>Analyze Request for Quotation&#45;&gt;Amend Request for Quotation Requester Manager</title>
<path fill="none" stroke="#000000" stroke-width="1.2573" d="M1592.0119,-65.9327C1642.8435,-57.3751 1705.7983,-46.7765 1759.5743,-37.7232"/>
<polygon fill="#000000" stroke="#000000" stroke-width="1.2573" points="1760.2235,-41.1633 1769.5036,-36.0516 1759.0613,-34.2604 1760.2235,-41.1633"/>
<text text-anchor="middle" x="1659.8252" y="-63.8" font-family="Times,serif" font-size="14.00" fill="#000000">16:22:41</text>
</g>
<!-- Amend Request for Quotation Requester&#45;&gt;Analyze Request for Quotation -->
<g id="edge11" class="edge">
<title>Amend Request for Quotation Requester&#45;&gt;Analyze Request for Quotation</title>
<path fill="none" stroke="#000000" stroke-width="4.2296" d="M1778.3638,-127.9902C1755.8473,-123.9601 1732.0048,-119.7659 1709.7959,-116 1674.6447,-110.0395 1636.181,-103.8148 1601.7182,-98.3451"/>
<polygon fill="#000000" stroke="#000000" stroke-width="4.2296" points="1602.0923,-94.6573 1591.6365,-96.7483 1600.9344,-101.968 1602.0923,-94.6573"/>
<text text-anchor="middle" x="1659.8252" y="-118.8" font-family="Times,serif" font-size="14.00" fill="#000000">8 days, 12:35:49</text>
</g>
<!-- Create Quotation comparison Map -->
<g id="node10" class="node">
<title>Create Quotation comparison Map</title>
<polygon fill="none" stroke="#000000" points="2314.4473,-100 2104.4395,-100 2104.4395,-64 2314.4473,-64 2314.4473,-100"/>
<text text-anchor="middle" x="2209.4434" y="-77.8" font-family="Times,serif" font-size="14.00" fill="#000000">Create Quotation comparison Map</text>
</g>
<!-- Send Request for Quotation to Supplier&#45;&gt;Create Quotation comparison Map -->
<g id="edge13" class="edge">
<title>Send Request for Quotation to Supplier&#45;&gt;Create Quotation comparison Map</title>
<path fill="none" stroke="#000000" stroke-width="1.1234" d="M1995.4374,-82C2027.5172,-82 2062.1787,-82 2094.0724,-82"/>
<polygon fill="#000000" stroke="#000000" stroke-width="1.1234" points="2094.3235,-85.5001 2104.3235,-82 2094.3234,-78.5001 2094.3235,-85.5001"/>
<text text-anchor="middle" x="2065.0518" y="-84.8" font-family="Times,serif" font-size="14.00" fill="#000000">7:54:02</text>
</g>
<!-- Amend Request for Quotation Requester Manager&#45;&gt;Analyze Request for Quotation -->
<g id="edge31" class="edge">
<title>Amend Request for Quotation Requester Manager&#45;&gt;Analyze Request for Quotation</title>
<path fill="none" stroke="#000000" stroke-width="5" d="M1727.7479,-13.7463C1688.9403,-15.4563 1647.4706,-19.8186 1609.8545,-29 1583.9463,-35.3237 1556.8224,-47.7795 1535.6131,-59.0277"/>
<polygon fill="#000000" stroke="#000000" stroke-width="5" points="1533.3084,-55.3007 1526.609,-63.9181 1537.4847,-62.9898 1533.3084,-55.3007"/>
<text text-anchor="middle" x="1659.8252" y="-31.8" font-family="Times,serif" font-size="14.00" fill="#000000">10 days, 13:22:52</text>
</g>
<!-- Analyze Quotation comparison Map -->
<g id="node11" class="node">
<title>Analyze Quotation comparison Map</title>
<polygon fill="none" stroke="#000000" points="2620.396,-100 2400.1675,-100 2400.1675,-64 2620.396,-64 2620.396,-100"/>
<text text-anchor="middle" x="2510.2817" y="-77.8" font-family="Times,serif" font-size="14.00" fill="#000000">Analyze Quotation comparison Map</text>
</g>
<!-- Create Quotation comparison Map&#45;&gt;Analyze Quotation comparison Map -->
<g id="edge14" class="edge">
<title>Create Quotation comparison Map&#45;&gt;Analyze Quotation comparison Map</title>
<path fill="none" stroke="#000000" stroke-width="1.1575" d="M2314.662,-82C2338.9362,-82 2364.9418,-82 2389.8093,-82"/>
<polygon fill="#000000" stroke="#000000" stroke-width="1.1575" points="2390.0156,-85.5001 2400.0155,-82 2390.0155,-78.5001 2390.0156,-85.5001"/>
<text text-anchor="middle" x="2357.335" y="-84.8" font-family="Times,serif" font-size="14.00" fill="#000000">10:03:21</text>
</g>
<!-- Choose best option -->
<g id="node12" class="node">
<title>Choose best option</title>
<polygon fill="none" stroke="#000000" points="2822.6152,-100 2698.9522,-100 2698.9522,-64 2822.6152,-64 2822.6152,-100"/>
<text text-anchor="middle" x="2760.7837" y="-77.8" font-family="Times,serif" font-size="14.00" fill="#000000">Choose best option</text>
</g>
<!-- Analyze Quotation comparison Map&#45;&gt;Choose best option -->
<g id="edge15" class="edge">
<title>Analyze Quotation comparison Map&#45;&gt;Choose best option</title>
<path fill="none" stroke="#000000" stroke-width="1.004" d="M2620.5201,-82C2643.6449,-82 2667.4624,-82 2688.758,-82"/>
<polygon fill="#000000" stroke="#000000" stroke-width="1.004" points="2688.9956,-85.5001 2698.9956,-82 2688.9956,-78.5001 2688.9956,-85.5001"/>
<text text-anchor="middle" x="2659.7285" y="-84.8" font-family="Times,serif" font-size="14.00" fill="#000000">0:20:09</text>
</g>
<!-- Settle conditions with supplier -->
<g id="node13" class="node">
<title>Settle conditions with supplier</title>
<polygon fill="none" stroke="#000000" points="3094.7893,-100 2908.3748,-100 2908.3748,-64 3094.7893,-64 3094.7893,-100"/>
<text text-anchor="middle" x="3001.582" y="-77.8" font-family="Times,serif" font-size="14.00" fill="#000000">Settle conditions with supplier</text>
</g>
<!-- Choose best option&#45;&gt;Settle conditions with supplier -->
<g id="edge16" class="edge">
<title>Choose best option&#45;&gt;Settle conditions with supplier</title>
<path fill="none" stroke="#000000" stroke-width="1.189" d="M2822.4826,-82C2845.4866,-82 2872.2759,-82 2898.0179,-82"/>
<polygon fill="#000000" stroke="#000000" stroke-width="1.189" points="2898.2025,-85.5001 2908.2024,-82 2898.2024,-78.5001 2898.2025,-85.5001"/>
<text text-anchor="middle" x="2865.3389" y="-84.8" font-family="Times,serif" font-size="14.00" fill="#000000">12:03:05</text>
</g>
<!-- Create Purchase Order -->
<g id="node14" class="node">
<title>Create Purchase Order</title>
<polygon fill="none" stroke="#000000" points="3323.2918,-100 3180.8557,-100 3180.8557,-64 3323.2918,-64 3323.2918,-100"/>
<text text-anchor="middle" x="3252.0737" y="-77.8" font-family="Times,serif" font-size="14.00" fill="#000000">Create Purchase Order</text>
</g>
<!-- Settle conditions with supplier&#45;&gt;Create Purchase Order -->
<g id="edge17" class="edge">
<title>Settle conditions with supplier&#45;&gt;Create Purchase Order</title>
<path fill="none" stroke="#000000" stroke-width="1.3027" d="M3094.8559,-82C3119.6849,-82 3146.3106,-82 3170.4622,-82"/>
<polygon fill="#000000" stroke="#000000" stroke-width="1.3027" points="3170.6491,-85.5001 3180.649,-82 3170.649,-78.5001 3170.6491,-85.5001"/>
<text text-anchor="middle" x="3137.8252" y="-84.8" font-family="Times,serif" font-size="14.00" fill="#000000">19:15:07</text>
</g>
<!-- Confirm Purchase Order -->
<g id="node15" class="node">
<title>Confirm Purchase Order</title>
<polygon fill="none" stroke="#000000" points="3598.2974,-100 3445.5727,-100 3445.5727,-64 3598.2974,-64 3598.2974,-100"/>
<text text-anchor="middle" x="3521.9351" y="-77.8" font-family="Times,serif" font-size="14.00" fill="#000000">Confirm Purchase Order</text>
</g>
<!-- Create Purchase Order&#45;&gt;Confirm Purchase Order -->
<g id="edge18" class="edge">
<title>Create Purchase Order&#45;&gt;Confirm Purchase Order</title>
<path fill="none" stroke="#000000" stroke-width="1.6825" d="M3323.3296,-82C3357.7291,-82 3399.2929,-82 3435.4882,-82"/>
<polygon fill="#000000" stroke="#000000" stroke-width="1.6825" points="3435.5444,-85.5001 3445.5443,-82 3435.5443,-78.5001 3435.5444,-85.5001"/>
<text text-anchor="middle" x="3384.4683" y="-84.8" font-family="Times,serif" font-size="14.00" fill="#000000">1 day, 19:18:11</text>
</g>
<!-- Deliver Goods Services -->
<g id="node16" class="node">
<title>Deliver Goods Services</title>
<polygon fill="none" stroke="#000000" points="3876.2564,-100 3727.3247,-100 3727.3247,-64 3876.2564,-64 3876.2564,-100"/>
<text text-anchor="middle" x="3801.7905" y="-77.8" font-family="Times,serif" font-size="14.00" fill="#000000">Deliver Goods Services</text>
</g>
<!-- Confirm Purchase Order&#45;&gt;Deliver Goods Services -->
<g id="edge19" class="edge">
<title>Confirm Purchase Order&#45;&gt;Deliver Goods Services</title>
<path fill="none" stroke="#000000" stroke-width="2.0739" d="M3598.4068,-82C3634.9451,-82 3678.807,-82 3716.4288,-82"/>
<polygon fill="#000000" stroke="#000000" stroke-width="2.0739" points="3716.8634,-85.5001 3726.8634,-82 3716.8633,-78.5001 3716.8634,-85.5001"/>
<text text-anchor="middle" x="3662.8369" y="-84.8" font-family="Times,serif" font-size="14.00" fill="#000000">2 days, 20:05:05</text>
</g>
<!-- Release Purchase Order -->
<g id="node17" class="node">
<title>Release Purchase Order</title>
<polygon fill="none" stroke="#000000" points="4141.4343,-100 3991.9983,-100 3991.9983,-64 4141.4343,-64 4141.4343,-100"/>
<text text-anchor="middle" x="4066.7163" y="-77.8" font-family="Times,serif" font-size="14.00" fill="#000000">Release Purchase Order</text>
</g>
<!-- Deliver Goods Services&#45;&gt;Release Purchase Order -->
<g id="edge20" class="edge">
<title>Deliver Goods Services&#45;&gt;Release Purchase Order</title>
<path fill="none" stroke="#000000" stroke-width="1.5184" d="M3876.2921,-82C3909.0244,-82 3947.6384,-82 3981.5086,-82"/>
<polygon fill="#000000" stroke="#000000" stroke-width="1.5184" points="3981.856,-85.5001 3991.856,-82 3981.8559,-78.5001 3981.856,-85.5001"/>
<text text-anchor="middle" x="3934.0654" y="-84.8" font-family="Times,serif" font-size="14.00" fill="#000000">1 day, 8:54:41</text>
</g>
<!-- Approve Purchase Order for payment -->
<g id="node18" class="node">
<title>Approve Purchase Order for payment</title>
<polygon fill="none" stroke="#000000" points="4476.2985,-137 4249.8899,-137 4249.8899,-101 4476.2985,-101 4476.2985,-137"/>
<text text-anchor="middle" x="4363.0942" y="-114.8" font-family="Times,serif" font-size="14.00" fill="#000000">Approve Purchase Order for payment</text>
</g>
<!-- Release Purchase Order&#45;&gt;Approve Purchase Order for payment -->
<g id="edge21" class="edge">
<title>Release Purchase Order&#45;&gt;Approve Purchase Order for payment</title>
<path fill="none" stroke="#000000" stroke-width="1.2304" d="M4141.505,-91.3367C4171.1877,-95.0423 4206.1268,-99.4041 4239.3757,-103.5549"/>
<polygon fill="#000000" stroke="#000000" stroke-width="1.2304" points="4239.2757,-107.0695 4249.6323,-104.8353 4240.1429,-100.1234 4239.2757,-107.0695"/>
<text text-anchor="middle" x="4184.4648" y="-101.8" font-family="Times,serif" font-size="14.00" fill="#000000">14:40:35</text>
</g>
<!-- Settle dispute with supplier Purchasing Agent -->
<g id="node19" class="node">
<title>Settle dispute with supplier Purchasing Agent</title>
<polygon fill="none" stroke="#000000" points="4499.0742,-73 4227.1143,-73 4227.1143,-37 4499.0742,-37 4499.0742,-73"/>
<text text-anchor="middle" x="4363.0942" y="-50.8" font-family="Times,serif" font-size="14.00" fill="#000000">Settle dispute with supplier Purchasing Agent</text>
</g>
<!-- Release Purchase Order&#45;&gt;Settle dispute with supplier Purchasing Agent -->
<g id="edge22" class="edge">
<title>Release Purchase Order&#45;&gt;Settle dispute with supplier Purchasing Agent</title>
<path fill="none" stroke="#000000" stroke-width="1.1223" d="M4141.505,-75.1868C4164.6177,-73.0812 4190.9175,-70.6853 4217.1247,-68.2978"/>
<polygon fill="#000000" stroke="#000000" stroke-width="1.1223" points="4217.5163,-71.7767 4227.1575,-67.3838 4216.8812,-64.8056 4217.5163,-71.7767"/>
<text text-anchor="middle" x="4184.4648" y="-75.8" font-family="Times,serif" font-size="14.00" fill="#000000">7:49:50</text>
</g>
<!-- Send invoice -->
<g id="node20" class="node">
<title>Send invoice</title>
<polygon fill="none" stroke="#000000" points="4709.979,-137 4621.564,-137 4621.564,-101 4709.979,-101 4709.979,-137"/>
<text text-anchor="middle" x="4665.7715" y="-114.8" font-family="Times,serif" font-size="14.00" fill="#000000">Send invoice</text>
</g>
<!-- Approve Purchase Order for payment&#45;&gt;Send invoice -->
<g id="edge23" class="edge">
<title>Approve Purchase Order for payment&#45;&gt;Send invoice</title>
<path fill="none" stroke="#000000" stroke-width="1.7393" d="M4476.6612,-119C4522.6603,-119 4573.6329,-119 4611.0567,-119"/>
<polygon fill="#000000" stroke="#000000" stroke-width="1.7393" points="4611.2375,-122.5001 4621.2375,-119 4611.2375,-115.5001 4611.2375,-122.5001"/>
<text text-anchor="middle" x="4560.126" y="-121.8" font-family="Times,serif" font-size="14.00" fill="#000000">1 day, 22:54:06</text>
</g>
<!-- Settle dispute with supplier Purchasing Agent&#45;&gt;Release Purchase Order -->
<g id="edge30" class="edge">
<title>Settle dispute with supplier Purchasing Agent&#45;&gt;Release Purchase Order</title>
<path fill="none" stroke="#000000" stroke-width="1.264" d="M4227.1381,-45.5306C4204.4773,-45.895 4181.2895,-47.4712 4159.5752,-51 4146.8675,-53.0652 4133.5498,-56.6224 4121.0958,-60.6079"/>
<polygon fill="#000000" stroke="#000000" stroke-width="1.264" points="4119.6955,-57.3855 4111.3212,-63.8757 4121.915,-64.0244 4119.6955,-57.3855"/>
<text text-anchor="middle" x="4184.4648" y="-53.8" font-family="Times,serif" font-size="14.00" fill="#000000">16:48:04</text>
</g>
<!-- Authorize Supplier&#39;s Invoice payment -->
<g id="node21" class="node">
<title>Authorize Supplier&#39;s Invoice payment</title>
<polygon fill="none" stroke="#000000" points="5630.169,-114 5402.0127,-114 5402.0127,-78 5630.169,-78 5630.169,-114"/>
<text text-anchor="middle" x="5516.0908" y="-91.8" font-family="Times,serif" font-size="14.00" fill="#000000">Authorize Supplier&#39;s Invoice payment</text>
</g>
<!-- Send invoice&#45;&gt;Authorize Supplier&#39;s Invoice payment -->
<g id="edge24" class="edge">
<title>Send invoice&#45;&gt;Authorize Supplier&#39;s Invoice payment</title>
<path fill="none" stroke="#000000" stroke-width="1.2261" d="M4710.3068,-126.2194C4716.2826,-126.9559 4722.343,-127.5849 4728.125,-128 4750.1923,-129.5844 4755.7804,-128.1014 4777.9043,-128 5020.2978,-126.8889 5081.5424,-140.9562 5323.2725,-123 5346.6476,-121.2636 5371.507,-118.4869 5395.3313,-115.3608"/>
<polygon fill="#000000" stroke="#000000" stroke-width="1.2261" points="5396.0247,-118.7992 5405.471,-114.0016 5395.0947,-111.8613 5396.0247,-118.7992"/>
<text text-anchor="middle" x="5002.7168" y="-133.8" font-family="Times,serif" font-size="14.00" fill="#000000">14:23:54</text>
</g>
<!-- Release Supplier&#39;s Invoice -->
<g id="node22" class="node">
<title>Release Supplier&#39;s Invoice</title>
<polygon fill="none" stroke="#000000" points="4959.7886,-114 4795.9429,-114 4795.9429,-78 4959.7886,-78 4959.7886,-114"/>
<text text-anchor="middle" x="4877.8657" y="-91.8" font-family="Times,serif" font-size="14.00" fill="#000000">Release Supplier&#39;s Invoice</text>
</g>
<!-- Send invoice&#45;&gt;Release Supplier&#39;s Invoice -->
<g id="edge25" class="edge">
<title>Send invoice&#45;&gt;Release Supplier&#39;s Invoice</title>
<path fill="none" stroke="#000000" stroke-width="1.2252" d="M4710.2334,-114.1784C4732.2062,-111.7957 4759.5772,-108.8275 4785.7893,-105.985"/>
<polygon fill="#000000" stroke="#000000" stroke-width="1.2252" points="4786.2006,-109.461 4795.765,-104.9032 4785.4459,-102.5018 4786.2006,-109.461"/>
<text text-anchor="middle" x="4753.0146" y="-114.8" font-family="Times,serif" font-size="14.00" fill="#000000">14:20:38</text>
</g>
<!-- Pay invoice -->
<g id="node23" class="node">
<title>Pay invoice</title>
<polygon fill="none" stroke="#000000" points="5790.4702,-114 5709.0551,-114 5709.0551,-78 5790.4702,-78 5790.4702,-114"/>
<text text-anchor="middle" x="5749.7627" y="-91.8" font-family="Times,serif" font-size="14.00" fill="#000000">Pay invoice</text>
</g>
<!-- Authorize Supplier&#39;s Invoice payment&#45;&gt;Pay invoice -->
<g id="edge26" class="edge">
<title>Authorize Supplier&#39;s Invoice payment&#45;&gt;Pay invoice</title>
<path fill="none" stroke="#000000" stroke-width="1.0079" d="M5630.1886,-96C5654.2605,-96 5678.4875,-96 5698.7792,-96"/>
<polygon fill="#000000" stroke="#000000" stroke-width="1.0079" points="5699.0101,-99.5001 5709.0101,-96 5699.01,-92.5001 5699.0101,-99.5001"/>
<text text-anchor="middle" x="5669.5195" y="-98.8" font-family="Times,serif" font-size="14.00" fill="#000000">0:35:10</text>
</g>
<!-- Release Supplier&#39;s Invoice&#45;&gt;Authorize Supplier&#39;s Invoice payment -->
<g id="edge28" class="edge">
<title>Release Supplier&#39;s Invoice&#45;&gt;Authorize Supplier&#39;s Invoice payment</title>
<path fill="none" stroke="#000000" d="M4936.6158,-77.9773C4968.5174,-69.1248 5008.8481,-59.4272 5045.6064,-55 5168.1281,-40.2435 5200.5419,-42.0958 5323.2725,-55 5361.5306,-59.0226 5403.3656,-67.4171 5438.2606,-75.5688"/>
<polygon fill="#000000" stroke="#000000" points="5437.8433,-79.0669 5448.3813,-77.9713 5439.4601,-72.2562 5437.8433,-79.0669"/>
<text text-anchor="middle" x="5184.4395" y="-57.8" font-family="Times,serif" font-size="14.00" fill="#000000">0:05:00</text>
</g>
<!-- Settle dispute with supplier Financial Manager -->
<g id="node24" class="node">
<title>Settle dispute with supplier Financial Manager</title>
<polygon fill="none" stroke="#000000" points="5323.1057,-114 5045.7732,-114 5045.7732,-78 5323.1057,-78 5323.1057,-114"/>
<text text-anchor="middle" x="5184.4395" y="-91.8" font-family="Times,serif" font-size="14.00" fill="#000000">Settle dispute with supplier Financial Manager</text>
</g>
<!-- Release Supplier&#39;s Invoice&#45;&gt;Settle dispute with supplier Financial Manager -->
<g id="edge27" class="edge">
<title>Release Supplier&#39;s Invoice&#45;&gt;Settle dispute with supplier Financial Manager</title>
<path fill="none" stroke="#000000" stroke-width="1.0082" d="M4960.0219,-96C4983.274,-96 5009.3319,-96 5035.2343,-96"/>
<polygon fill="#000000" stroke="#000000" stroke-width="1.0082" points="5035.5343,-99.5001 5045.5342,-96 5035.5342,-92.5001 5035.5343,-99.5001"/>
<text text-anchor="middle" x="5002.7168" y="-98.8" font-family="Times,serif" font-size="14.00" fill="#000000">0:35:58</text>
</g>
<!-- Settle dispute with supplier Financial Manager&#45;&gt;Authorize Supplier&#39;s Invoice payment -->
<g id="edge29" class="edge">
<title>Settle dispute with supplier Financial Manager&#45;&gt;Authorize Supplier&#39;s Invoice payment</title>
<path fill="none" stroke="#000000" stroke-width="1.005" d="M5323.1678,-96C5345.9491,-96 5369.4317,-96 5391.8325,-96"/>
<polygon fill="#000000" stroke="#000000" stroke-width="1.005" points="5392.0423,-99.5001 5402.0423,-96 5392.0422,-92.5001 5392.0423,-99.5001"/>
<text text-anchor="middle" x="5362.6621" y="-98.8" font-family="Times,serif" font-size="14.00" fill="#000000">0:24:04</text>
</g>
</g>
</svg>
