<?xml version="1.0" encoding="UTF-8" standalone="no"?>
<!DOCTYPE svg PUBLIC "-//W3C//DTD SVG 1.1//EN"
 "http://www.w3.org/Graphics/SVG/1.1/DTD/svg11.dtd">
<!-- Generated by graphviz version 2.40.1 (20161225.0304)
 -->
<!-- Title: %3 Pages: 1 -->
<svg width="5062pt" height="172pt"
 viewBox="0.00 0.00 5062.20 172.00" xmlns="http://www.w3.org/2000/svg" xmlns:xlink="http://www.w3.org/1999/xlink">
<g id="graph0" class="graph" transform="scale(1 1) rotate(0) translate(4 168)">
<title>%3</title>
<polygon fill="#ffffff" stroke="transparent" points="-4,4 -4,-168 5058.2012,-168 5058.2012,4 -4,4"/>
<!-- Create Purchase Requisition -->
<g id="node1" class="node">
<title>Create Purchase Requisition</title>
<polygon fill="#737373" stroke="#000000" points="174.4423,-39 .1856,-39 .1856,-3 174.4423,-3 174.4423,-39"/>
<text text-anchor="middle" x="87.314" y="-23.8" font-family="Times,serif" font-size="14.00" fill="#ffffff">Create Purchase Requisition</text>
<text text-anchor="middle" x="87.314" y="-9.8" font-family="Times,serif" font-size="14.00" fill="#ffffff">(608)</text>
</g>
<!-- Analyze Purchase Requisition -->
<g id="node2" class="node">
<title>Analyze Purchase Requisition</title>
<polygon fill="#a8a8a8" stroke="#000000" points="416.2355,-83 231.7586,-83 231.7586,-47 416.2355,-47 416.2355,-83"/>
<text text-anchor="middle" x="323.9971" y="-67.8" font-family="Times,serif" font-size="14.00" fill="#000000">Analyze Purchase Requisition</text>
<text text-anchor="middle" x="323.9971" y="-53.8" font-family="Times,serif" font-size="14.00" fill="#000000">(382)</text>
</g>
<!-- Create Purchase Requisition&#45;&gt;Analyze Purchase Requisition -->
<g id="edge1" class="edge">
<title>Create Purchase Requisition&#45;&gt;Analyze Purchase Requisition</title>
<path fill="none" stroke="#000000" stroke-width="3.9041" d="M174.7736,-37.259C190.0047,-40.0905 205.9696,-43.0584 221.5595,-45.9566"/>
<polygon fill="#000000" stroke="#000000" stroke-width="3.9041" points="221.2673,-49.4622 231.7386,-47.8489 222.5468,-42.5801 221.2673,-49.4622"/>
<text text-anchor="middle" x="203.1279" y="-47.8" font-family="Times,serif" font-size="14.00" fill="#000000">374</text>
</g>
<!-- Create Request for Quotation Requester -->
<g id="node7" class="node">
<title>Create Request for Quotation Requester</title>
<polygon fill="#c9c9c9" stroke="#000000" points="1221.7578,-70 981.8945,-70 981.8945,-34 1221.7578,-34 1221.7578,-70"/>
<text text-anchor="middle" x="1101.8262" y="-54.8" font-family="Times,serif" font-size="14.00" fill="#000000">Create Request for Quotation Requester</text>
<text text-anchor="middle" x="1101.8262" y="-40.8" font-family="Times,serif" font-size="14.00" fill="#000000">(237)</text>
</g>
<!-- Create Purchase Requisition&#45;&gt;Create Request for Quotation Requester -->
<g id="edge2" class="edge">
<title>Create Purchase Requisition&#45;&gt;Create Request for Quotation Requester</title>
<path fill="none" stroke="#000000" stroke-width="2.8082" d="M174.6941,-20.9306C249.2688,-20.9448 359.363,-21.1398 455.3662,-22 543.0664,-22.7858 565.0351,-21.7012 652.6768,-25 760.1641,-29.0458 881.9623,-36.5505 971.5809,-42.6228"/>
<polygon fill="#000000" stroke="#000000" stroke-width="2.8082" points="971.5818,-46.1309 981.7965,-43.3182 972.0573,-39.147 971.5818,-46.1309"/>
<text text-anchor="middle" x="444.8662" y="-24.8" font-family="Times,serif" font-size="14.00" fill="#000000">234</text>
</g>
<!-- Amend Purchase Requisition -->
<g id="node3" class="node">
<title>Amend Purchase Requisition</title>
<polygon fill="#ffffff" stroke="#000000" points="652.8323,-70 473.2107,-70 473.2107,-34 652.8323,-34 652.8323,-70"/>
<text text-anchor="middle" x="563.0215" y="-54.8" font-family="Times,serif" font-size="14.00" fill="#000000">Amend Purchase Requisition</text>
<text text-anchor="middle" x="563.0215" y="-40.8" font-family="Times,serif" font-size="14.00" fill="#000000">(11)</text>
</g>
<!-- Analyze Purchase Requisition&#45;&gt;Amend Purchase Requisition -->
<g id="edge3" class="edge">
<title>Analyze Purchase Requisition&#45;&gt;Amend Purchase Requisition</title>
<path fill="none" stroke="#000000" stroke-width="1.0626" d="M416.4101,-59.9739C431.7127,-59.1416 447.641,-58.2753 463.1181,-57.4335"/>
<polygon fill="#000000" stroke="#000000" stroke-width="1.0626" points="463.4175,-60.9225 473.2126,-56.8845 463.0373,-53.9328 463.4175,-60.9225"/>
<text text-anchor="middle" x="444.8662" y="-61.8" font-family="Times,serif" font-size="14.00" fill="#000000">11</text>
</g>
<!-- Create Request for Quotation Requester Manager -->
<g id="node4" class="node">
<title>Create Request for Quotation Requester Manager</title>
<polygon fill="#b8b8b8" stroke="#000000" points="963.9522,-132 670.5849,-132 670.5849,-96 963.9522,-96 963.9522,-132"/>
<text text-anchor="middle" x="817.2686" y="-116.8" font-family="Times,serif" font-size="14.00" fill="#000000">Create Request for Quotation Requester Manager</text>
<text text-anchor="middle" x="817.2686" y="-102.8" font-family="Times,serif" font-size="14.00" fill="#000000">(307)</text>
</g>
<!-- Analyze Purchase Requisition&#45;&gt;Create Request for Quotation Requester Manager -->
<g id="edge4" class="edge">
<title>Analyze Purchase Requisition&#45;&gt;Create Request for Quotation Requester Manager</title>
<path fill="none" stroke="#000000" stroke-width="3.3796" d="M416.4272,-75.1319C422.4972,-75.7719 428.5183,-76.3996 434.3662,-77 508.6116,-84.6231 591.0032,-92.6416 660.28,-99.2576"/>
<polygon fill="#000000" stroke="#000000" stroke-width="3.3796" points="660.1163,-102.7577 670.4035,-100.2233 660.7811,-95.7894 660.1163,-102.7577"/>
<text text-anchor="middle" x="444.8662" y="-80.8" font-family="Times,serif" font-size="14.00" fill="#000000">307</text>
</g>
<!-- Amend Purchase Requisition&#45;&gt;Analyze Purchase Requisition -->
<g id="edge5" class="edge">
<title>Amend Purchase Requisition&#45;&gt;Analyze Purchase Requisition</title>
<path fill="none" stroke="#000000" stroke-width="1.0391" d="M473.3443,-39.9051C460.2609,-39.4264 446.9596,-39.6466 434.3662,-41 425.2743,-41.9771 415.8325,-43.3946 406.4699,-45.0596"/>
<polygon fill="#000000" stroke="#000000" stroke-width="1.0391" points="405.5458,-41.6718 396.3619,-46.9544 406.8356,-48.552 405.5458,-41.6718"/>
<text text-anchor="middle" x="444.8662" y="-43.8" font-family="Times,serif" font-size="14.00" fill="#000000">8</text>
</g>
<!-- Amend Purchase Requisition&#45;&gt;Create Request for Quotation Requester -->
<g id="edge6" class="edge">
<title>Amend Purchase Requisition&#45;&gt;Create Request for Quotation Requester</title>
<path fill="none" stroke="#000000" d="M652.9019,-52C740.0322,-52 873.1408,-52 971.8151,-52"/>
<polygon fill="#000000" stroke="#000000" points="971.8565,-55.5001 981.8565,-52 971.8565,-48.5001 971.8565,-55.5001"/>
<text text-anchor="middle" x="817.2686" y="-54.8" font-family="Times,serif" font-size="14.00" fill="#000000">3</text>
</g>
<!-- Analyze Request for Quotation -->
<g id="node5" class="node">
<title>Analyze Request for Quotation</title>
<polygon fill="#000000" stroke="#000000" points="1469.1362,-100 1279.0102,-100 1279.0102,-64 1469.1362,-64 1469.1362,-100"/>
<text text-anchor="middle" x="1374.0732" y="-84.8" font-family="Times,serif" font-size="14.00" fill="#ffffff">Analyze Request for Quotation</text>
<text text-anchor="middle" x="1374.0732" y="-70.8" font-family="Times,serif" font-size="14.00" fill="#ffffff">(1107)</text>
</g>
<!-- Create Request for Quotation Requester Manager&#45;&gt;Analyze Request for Quotation -->
<g id="edge7" class="edge">
<title>Create Request for Quotation Requester Manager&#45;&gt;Analyze Request for Quotation</title>
<path fill="none" stroke="#000000" stroke-width="3.3796" d="M963.9265,-105.5715C1059.6957,-100.0675 1182.4968,-93.01 1268.6684,-88.0577"/>
<polygon fill="#000000" stroke="#000000" stroke-width="3.3796" points="1268.9452,-91.5477 1278.7278,-87.4796 1268.5435,-84.5592 1268.9452,-91.5477"/>
<text text-anchor="middle" x="1101.8262" y="-106.8" font-family="Times,serif" font-size="14.00" fill="#000000">307</text>
</g>
<!-- Amend Request for Quotation Requester -->
<g id="node6" class="node">
<title>Amend Request for Quotation Requester</title>
<polygon fill="#8a8a8a" stroke="#000000" points="1797.4022,-164 1553.173,-164 1553.173,-128 1797.4022,-128 1797.4022,-164"/>
<text text-anchor="middle" x="1675.2876" y="-148.8" font-family="Times,serif" font-size="14.00" fill="#000000">Amend Request for Quotation Requester</text>
<text text-anchor="middle" x="1675.2876" y="-134.8" font-family="Times,serif" font-size="14.00" fill="#000000">(514)</text>
</g>
<!-- Analyze Request for Quotation&#45;&gt;Amend Request for Quotation Requester -->
<g id="edge8" class="edge">
<title>Analyze Request for Quotation&#45;&gt;Amend Request for Quotation Requester</title>
<path fill="none" stroke="#000000" stroke-width="5" d="M1405.154,-100.0472C1427.2977,-111.9459 1458.1883,-126.6441 1487.3545,-134 1505.0897,-138.4729 1524.0487,-141.564 1542.8496,-143.6635"/>
<polygon fill="#000000" stroke="#000000" stroke-width="5" points="1542.5686,-148.0325 1552.9631,-144.7017 1543.4622,-139.3283 1542.5686,-148.0325"/>
<text text-anchor="middle" x="1497.8545" y="-140.8" font-family="Times,serif" font-size="14.00" fill="#000000">514</text>
</g>
<!-- Send Request for Quotation to Supplier -->
<g id="node8" class="node">
<title>Send Request for Quotation to Supplier</title>
<polygon fill="#a1a1a1" stroke="#000000" points="1794.0397,-100 1556.5355,-100 1556.5355,-64 1794.0397,-64 1794.0397,-100"/>
<text text-anchor="middle" x="1675.2876" y="-84.8" font-family="Times,serif" font-size="14.00" fill="#000000">Send Request for Quotation to Supplier</text>
<text text-anchor="middle" x="1675.2876" y="-70.8" font-family="Times,serif" font-size="14.00" fill="#000000">(413)</text>
</g>
<!-- Analyze Request for Quotation&#45;&gt;Send Request for Quotation to Supplier -->
<g id="edge9" class="edge">
<title>Analyze Request for Quotation&#45;&gt;Send Request for Quotation to Supplier</title>
<path fill="none" stroke="#000000" stroke-width="4.2094" d="M1469.3793,-82C1493.8007,-82 1520.4749,-82 1546.2847,-82"/>
<polygon fill="#000000" stroke="#000000" stroke-width="4.2094" points="1546.51,-85.6833 1556.51,-82 1546.5099,-78.3169 1546.51,-85.6833"/>
<text text-anchor="middle" x="1497.8545" y="-84.8" font-family="Times,serif" font-size="14.00" fill="#000000">413</text>
</g>
<!-- Amend Request for Quotation Requester Manager -->
<g id="node24" class="node">
<title>Amend Request for Quotation Requester Manager</title>
<polygon fill="#f5f5f5" stroke="#000000" points="1824.1538,-36 1526.4214,-36 1526.4214,0 1824.1538,0 1824.1538,-36"/>
<text text-anchor="middle" x="1675.2876" y="-20.8" font-family="Times,serif" font-size="14.00" fill="#000000">Amend Request for Quotation Requester Manager</text>
<text text-anchor="middle" x="1675.2876" y="-6.8" font-family="Times,serif" font-size="14.00" fill="#000000">(49)</text>
</g>
<!-- Analyze Request for Quotation&#45;&gt;Amend Request for Quotation Requester Manager -->
<g id="edge10" class="edge">
<title>Analyze Request for Quotation&#45;&gt;Amend Request for Quotation Requester Manager</title>
<path fill="none" stroke="#000000" stroke-width="1.3601" d="M1459.1814,-63.9168C1496.8703,-55.9089 1541.3556,-46.457 1580.1382,-38.2167"/>
<polygon fill="#000000" stroke="#000000" stroke-width="1.3601" points="1581.3355,-41.5405 1590.3897,-36.0385 1579.8806,-34.6934 1581.3355,-41.5405"/>
<text text-anchor="middle" x="1497.8545" y="-60.8" font-family="Times,serif" font-size="14.00" fill="#000000">49</text>
</g>
<!-- Amend Request for Quotation Requester&#45;&gt;Analyze Request for Quotation -->
<g id="edge11" class="edge">
<title>Amend Request for Quotation Requester&#45;&gt;Analyze Request for Quotation</title>
<path fill="none" stroke="#000000" stroke-width="5" d="M1590.3897,-127.9615C1552.7261,-119.959 1508.2429,-110.5075 1469.4391,-102.2627"/>
<polygon fill="#000000" stroke="#000000" stroke-width="5" points="1469.8723,-97.8822 1459.1814,-100.0832 1468.0537,-106.4411 1469.8723,-97.8822"/>
<text text-anchor="middle" x="1497.8545" y="-112.8" font-family="Times,serif" font-size="14.00" fill="#000000">514</text>
</g>
<!-- Create Request for Quotation Requester&#45;&gt;Analyze Request for Quotation -->
<g id="edge12" class="edge">
<title>Create Request for Quotation Requester&#45;&gt;Analyze Request for Quotation</title>
<path fill="none" stroke="#000000" stroke-width="2.8317" d="M1222.0302,-65.2458C1237.571,-66.9583 1253.3925,-68.7017 1268.6694,-70.3851"/>
<polygon fill="#000000" stroke="#000000" stroke-width="2.8317" points="1268.2982,-73.8653 1278.6214,-71.4818 1269.0649,-66.9074 1268.2982,-73.8653"/>
<text text-anchor="middle" x="1250.292" y="-70.8" font-family="Times,serif" font-size="14.00" fill="#000000">237</text>
</g>
<!-- Create Quotation comparison Map -->
<g id="node9" class="node">
<title>Create Quotation comparison Map</title>
<polygon fill="#a1a1a1" stroke="#000000" points="2091.2266,-100 1881.2187,-100 1881.2187,-64 2091.2266,-64 2091.2266,-100"/>
<text text-anchor="middle" x="1986.2227" y="-84.8" font-family="Times,serif" font-size="14.00" fill="#000000">Create Quotation comparison Map</text>
<text text-anchor="middle" x="1986.2227" y="-70.8" font-family="Times,serif" font-size="14.00" fill="#000000">(413)</text>
</g>
<!-- Send Request for Quotation to Supplier&#45;&gt;Create Quotation comparison Map -->
<g id="edge13" class="edge">
<title>Send Request for Quotation to Supplier&#45;&gt;Create Quotation comparison Map</title>
<path fill="none" stroke="#000000" stroke-width="4.2094" d="M1794.1697,-82C1819.3335,-82 1845.853,-82 1870.8829,-82"/>
<polygon fill="#000000" stroke="#000000" stroke-width="4.2094" points="1871.1363,-85.6833 1881.1363,-82 1871.1363,-78.3169 1871.1363,-85.6833"/>
<text text-anchor="middle" x="1852.7207" y="-84.8" font-family="Times,serif" font-size="14.00" fill="#000000">413</text>
</g>
<!-- Analyze Quotation comparison Map -->
<g id="node10" class="node">
<title>Analyze Quotation comparison Map</title>
<polygon fill="#a1a1a1" stroke="#000000" points="2368.396,-100 2148.1675,-100 2148.1675,-64 2368.396,-64 2368.396,-100"/>
<text text-anchor="middle" x="2258.2817" y="-84.8" font-family="Times,serif" font-size="14.00" fill="#000000">Analyze Quotation comparison Map</text>
<text text-anchor="middle" x="2258.2817" y="-70.8" font-family="Times,serif" font-size="14.00" fill="#000000">(413)</text>
</g>
<!-- Create Quotation comparison Map&#45;&gt;Analyze Quotation comparison Map -->
<g id="edge14" class="edge">
<title>Create Quotation comparison Map&#45;&gt;Analyze Quotation comparison Map</title>
<path fill="none" stroke="#000000" stroke-width="4.2094" d="M2091.4078,-82C2106.6174,-82 2122.3701,-82 2137.8497,-82"/>
<polygon fill="#000000" stroke="#000000" stroke-width="4.2094" points="2137.9742,-85.6833 2147.9742,-82 2137.9742,-78.3169 2137.9742,-85.6833"/>
<text text-anchor="middle" x="2119.7246" y="-84.8" font-family="Times,serif" font-size="14.00" fill="#000000">413</text>
</g>
<!-- Choose best option -->
<g id="node11" class="node">
<title>Choose best option</title>
<polygon fill="#a1a1a1" stroke="#000000" points="2548.8359,-100 2425.1729,-100 2425.1729,-64 2548.8359,-64 2548.8359,-100"/>
<text text-anchor="middle" x="2487.0044" y="-84.8" font-family="Times,serif" font-size="14.00" fill="#000000">Choose best option</text>
<text text-anchor="middle" x="2487.0044" y="-70.8" font-family="Times,serif" font-size="14.00" fill="#000000">(413)</text>
</g>
<!-- Analyze Quotation comparison Map&#45;&gt;Choose best option -->
<g id="edge15" class="edge">
<title>Analyze Quotation comparison Map&#45;&gt;Choose best option</title>
<path fill="none" stroke="#000000" stroke-width="4.2094" d="M2368.6233,-82C2384.4021,-82 2400.2831,-82 2415.0627,-82"/>
<polygon fill="#000000" stroke="#000000" stroke-width="4.2094" points="2415.1041,-85.6833 2425.104,-82 2415.104,-78.3169 2415.1041,-85.6833"/>
<text text-anchor="middle" x="2396.8389" y="-84.8" font-family="Times,serif" font-size="14.00" fill="#000000">413</text>
</g>
<!-- Settle conditions with supplier -->
<g id="node12" class="node">
<title>Settle conditions with supplier</title>
<polygon fill="#a1a1a1" stroke="#000000" points="2792.2307,-100 2605.8162,-100 2605.8162,-64 2792.2307,-64 2792.2307,-100"/>
<text text-anchor="middle" x="2699.0234" y="-84.8" font-family="Times,serif" font-size="14.00" fill="#000000">Settle conditions with supplier</text>
<text text-anchor="middle" x="2699.0234" y="-70.8" font-family="Times,serif" font-size="14.00" fill="#000000">(413)</text>
</g>
<!-- Choose best option&#45;&gt;Settle conditions with supplier -->
<g id="edge16" class="edge">
<title>Choose best option&#45;&gt;Settle conditions with supplier</title>
<path fill="none" stroke="#000000" stroke-width="4.2094" d="M2548.899,-82C2563.4374,-82 2579.323,-82 2595.1454,-82"/>
<polygon fill="#000000" stroke="#000000" stroke-width="4.2094" points="2595.519,-85.6833 2605.5189,-82 2595.5189,-78.3169 2595.519,-85.6833"/>
<text text-anchor="middle" x="2577.1699" y="-84.8" font-family="Times,serif" font-size="14.00" fill="#000000">413</text>
</g>
<!-- Create Purchase Order -->
<g id="node13" class="node">
<title>Create Purchase Order</title>
<polygon fill="#a1a1a1" stroke="#000000" points="2991.9539,-100 2849.5178,-100 2849.5178,-64 2991.9539,-64 2991.9539,-100"/>
<text text-anchor="middle" x="2920.7358" y="-84.8" font-family="Times,serif" font-size="14.00" fill="#000000">Create Purchase Order</text>
<text text-anchor="middle" x="2920.7358" y="-70.8" font-family="Times,serif" font-size="14.00" fill="#000000">(413)</text>
</g>
<!-- Settle conditions with supplier&#45;&gt;Create Purchase Order -->
<g id="edge17" class="edge">
<title>Settle conditions with supplier&#45;&gt;Create Purchase Order</title>
<path fill="none" stroke="#000000" stroke-width="4.2094" d="M2792.4069,-82C2807.8878,-82 2823.8351,-82 2838.9999,-82"/>
<polygon fill="#000000" stroke="#000000" stroke-width="4.2094" points="2839.3583,-85.6833 2849.3583,-82 2839.3582,-78.3169 2839.3583,-85.6833"/>
<text text-anchor="middle" x="2820.877" y="-84.8" font-family="Times,serif" font-size="14.00" fill="#000000">413</text>
</g>
<!-- Confirm Purchase Order -->
<g id="node14" class="node">
<title>Confirm Purchase Order</title>
<polygon fill="#a1a1a1" stroke="#000000" points="3201.8882,-100 3049.1635,-100 3049.1635,-64 3201.8882,-64 3201.8882,-100"/>
<text text-anchor="middle" x="3125.5259" y="-84.8" font-family="Times,serif" font-size="14.00" fill="#000000">Confirm Purchase Order</text>
<text text-anchor="middle" x="3125.5259" y="-70.8" font-family="Times,serif" font-size="14.00" fill="#000000">(413)</text>
</g>
<!-- Create Purchase Order&#45;&gt;Confirm Purchase Order -->
<g id="edge18" class="edge">
<title>Create Purchase Order&#45;&gt;Confirm Purchase Order</title>
<path fill="none" stroke="#000000" stroke-width="4.2094" d="M2992.074,-82C3007.13,-82 3023.1755,-82 3038.7293,-82"/>
<polygon fill="#000000" stroke="#000000" stroke-width="4.2094" points="3038.8641,-85.6833 3048.864,-82 3038.864,-78.3169 3038.8641,-85.6833"/>
<text text-anchor="middle" x="3020.5947" y="-84.8" font-family="Times,serif" font-size="14.00" fill="#000000">413</text>
</g>
<!-- Deliver Goods Services -->
<g id="node15" class="node">
<title>Deliver Goods Services</title>
<polygon fill="#a1a1a1" stroke="#000000" points="3407.9058,-100 3258.9741,-100 3258.9741,-64 3407.9058,-64 3407.9058,-100"/>
<text text-anchor="middle" x="3333.4399" y="-84.8" font-family="Times,serif" font-size="14.00" fill="#000000">Deliver Goods Services</text>
<text text-anchor="middle" x="3333.4399" y="-70.8" font-family="Times,serif" font-size="14.00" fill="#000000">(413)</text>
</g>
<!-- Confirm Purchase Order&#45;&gt;Deliver Goods Services -->
<g id="edge19" class="edge">
<title>Confirm Purchase Order&#45;&gt;Deliver Goods Services</title>
<path fill="none" stroke="#000000" stroke-width="4.2094" d="M3202.0596,-82C3217.2567,-82 3233.2959,-82 3248.7467,-82"/>
<polygon fill="#000000" stroke="#000000" stroke-width="4.2094" points="3248.8004,-85.6833 3258.8004,-82 3248.8003,-78.3169 3248.8004,-85.6833"/>
<text text-anchor="middle" x="3230.457" y="-84.8" font-family="Times,serif" font-size="14.00" fill="#000000">413</text>
</g>
<!-- Release Purchase Order -->
<g id="node16" class="node">
<title>Release Purchase Order</title>
<polygon fill="#999999" stroke="#000000" points="3614.4998,-100 3465.0637,-100 3465.0637,-64 3614.4998,-64 3614.4998,-100"/>
<text text-anchor="middle" x="3539.7817" y="-84.8" font-family="Times,serif" font-size="14.00" fill="#000000">Release Purchase Order</text>
<text text-anchor="middle" x="3539.7817" y="-70.8" font-family="Times,serif" font-size="14.00" fill="#000000">(439)</text>
</g>
<!-- Deliver Goods Services&#45;&gt;Release Purchase Order -->
<g id="edge20" class="edge">
<title>Deliver Goods Services&#45;&gt;Release Purchase Order</title>
<path fill="none" stroke="#000000" stroke-width="4.2094" d="M3407.9341,-82C3423.18,-82 3439.3334,-82 3454.9118,-82"/>
<polygon fill="#000000" stroke="#000000" stroke-width="4.2094" points="3455.0506,-85.6833 3465.0506,-82 3455.0506,-78.3169 3455.0506,-85.6833"/>
<text text-anchor="middle" x="3436.4229" y="-84.8" font-family="Times,serif" font-size="14.00" fill="#000000">413</text>
</g>
<!-- Approve Purchase Order for payment -->
<g id="node17" class="node">
<title>Approve Purchase Order for payment</title>
<polygon fill="#a1a1a1" stroke="#000000" points="3920.5847,-137 3694.1761,-137 3694.1761,-101 3920.5847,-101 3920.5847,-137"/>
<text text-anchor="middle" x="3807.3804" y="-121.8" font-family="Times,serif" font-size="14.00" fill="#000000">Approve Purchase Order for payment</text>
<text text-anchor="middle" x="3807.3804" y="-107.8" font-family="Times,serif" font-size="14.00" fill="#000000">(413)</text>
</g>
<!-- Release Purchase Order&#45;&gt;Approve Purchase Order for payment -->
<g id="edge21" class="edge">
<title>Release Purchase Order&#45;&gt;Approve Purchase Order for payment</title>
<path fill="none" stroke="#000000" stroke-width="4.2094" d="M3614.6787,-92.3558C3636.1901,-95.3301 3660.2394,-98.6553 3683.859,-101.9211"/>
<polygon fill="#000000" stroke="#000000" stroke-width="4.2094" points="3683.5365,-105.5947 3693.9467,-103.3159 3684.5455,-98.2977 3683.5365,-105.5947"/>
<text text-anchor="middle" x="3643.1406" y="-99.8" font-family="Times,serif" font-size="14.00" fill="#000000">413</text>
</g>
<!-- Settle dispute with supplier Purchasing Agent -->
<g id="node23" class="node">
<title>Settle dispute with supplier Purchasing Agent</title>
<polygon fill="#fafafa" stroke="#000000" points="3943.3603,-73 3671.4005,-73 3671.4005,-37 3943.3603,-37 3943.3603,-73"/>
<text text-anchor="middle" x="3807.3804" y="-57.8" font-family="Times,serif" font-size="14.00" fill="#000000">Settle dispute with supplier Purchasing Agent</text>
<text text-anchor="middle" x="3807.3804" y="-43.8" font-family="Times,serif" font-size="14.00" fill="#000000">(26)</text>
</g>
<!-- Release Purchase Order&#45;&gt;Settle dispute with supplier Purchasing Agent -->
<g id="edge22" class="edge">
<title>Release Purchase Order&#45;&gt;Settle dispute with supplier Purchasing Agent</title>
<path fill="none" stroke="#000000" stroke-width="1.18" d="M3614.6787,-74.4431C3629.4038,-72.9574 3645.318,-71.3517 3661.4696,-69.722"/>
<polygon fill="#000000" stroke="#000000" stroke-width="1.18" points="3661.9503,-73.1914 3671.5484,-68.7051 3661.2476,-66.2267 3661.9503,-73.1914"/>
<text text-anchor="middle" x="3643.1406" y="-74.8" font-family="Times,serif" font-size="14.00" fill="#000000">26</text>
</g>
<!-- Send invoice -->
<g id="node18" class="node">
<title>Send invoice</title>
<polygon fill="#a1a1a1" stroke="#000000" points="4088.6811,-137 4000.2661,-137 4000.2661,-101 4088.6811,-101 4088.6811,-137"/>
<text text-anchor="middle" x="4044.4736" y="-121.8" font-family="Times,serif" font-size="14.00" fill="#000000">Send invoice</text>
<text text-anchor="middle" x="4044.4736" y="-107.8" font-family="Times,serif" font-size="14.00" fill="#000000">(413)</text>
</g>
<!-- Approve Purchase Order for payment&#45;&gt;Send invoice -->
<g id="edge23" class="edge">
<title>Approve Purchase Order for payment&#45;&gt;Send invoice</title>
<path fill="none" stroke="#000000" stroke-width="4.2094" d="M3920.7189,-119C3944.8574,-119 3969.2843,-119 3989.9862,-119"/>
<polygon fill="#000000" stroke="#000000" stroke-width="4.2094" points="3990.1406,-122.6833 4000.1406,-119 3990.1406,-115.3169 3990.1406,-122.6833"/>
<text text-anchor="middle" x="3971.6201" y="-121.8" font-family="Times,serif" font-size="14.00" fill="#000000">413</text>
</g>
<!-- Authorize Supplier&#39;s Invoice payment -->
<g id="node19" class="node">
<title>Authorize Supplier&#39;s Invoice payment</title>
<polygon fill="#a1a1a1" stroke="#000000" points="4915.5332,-114 4687.3769,-114 4687.3769,-78 4915.5332,-78 4915.5332,-114"/>
<text text-anchor="middle" x="4801.4551" y="-98.8" font-family="Times,serif" font-size="14.00" fill="#000000">Authorize Supplier&#39;s Invoice payment</text>
<text text-anchor="middle" x="4801.4551" y="-84.8" font-family="Times,serif" font-size="14.00" fill="#000000">(413)</text>
</g>
<!-- Send invoice&#45;&gt;Authorize Supplier&#39;s Invoice payment -->
<g id="edge24" class="edge">
<title>Send invoice&#45;&gt;Authorize Supplier&#39;s Invoice payment</title>
<path fill="none" stroke="#000000" stroke-width="1.0548" d="M4089.0089,-126.2194C4094.9847,-126.9559 4101.0452,-127.5849 4106.8271,-128 4116.1365,-128.6684 4118.4939,-128.0458 4127.8271,-128 4354.3193,-126.8889 4411.7674,-142.561 4637.416,-123 4656.8488,-121.3154 4677.4536,-118.6386 4697.2572,-115.6108"/>
<polygon fill="#000000" stroke="#000000" stroke-width="1.0548" points="4697.8795,-119.0561 4707.2166,-114.0492 4696.7951,-112.1406 4697.8795,-119.0561"/>
<text text-anchor="middle" x="4334.75" y="-133.8" font-family="Times,serif" font-size="14.00" fill="#000000">10</text>
</g>
<!-- Release Supplier&#39;s Invoice -->
<g id="node21" class="node">
<title>Release Supplier&#39;s Invoice</title>
<polygon fill="#a3a3a3" stroke="#000000" points="4309.7114,-114 4145.8657,-114 4145.8657,-78 4309.7114,-78 4309.7114,-114"/>
<text text-anchor="middle" x="4227.7886" y="-98.8" font-family="Times,serif" font-size="14.00" fill="#000000">Release Supplier&#39;s Invoice</text>
<text text-anchor="middle" x="4227.7886" y="-84.8" font-family="Times,serif" font-size="14.00" fill="#000000">(403)</text>
</g>
<!-- Send invoice&#45;&gt;Release Supplier&#39;s Invoice -->
<g id="edge25" class="edge">
<title>Send invoice&#45;&gt;Release Supplier&#39;s Invoice</title>
<path fill="none" stroke="#000000" stroke-width="4.1311" d="M4088.8491,-113.4323C4103.0645,-111.6488 4119.3695,-109.603 4135.693,-107.555"/>
<polygon fill="#000000" stroke="#000000" stroke-width="4.1311" points="4136.3684,-111.1134 4145.8406,-106.2818 4135.4684,-103.9402 4136.3684,-111.1134"/>
<text text-anchor="middle" x="4117.3271" y="-112.8" font-family="Times,serif" font-size="14.00" fill="#000000">403</text>
</g>
<!-- Pay invoice -->
<g id="node20" class="node">
<title>Pay invoice</title>
<polygon fill="#a1a1a1" stroke="#000000" points="5054.0552,-114 4972.6401,-114 4972.6401,-78 5054.0552,-78 5054.0552,-114"/>
<text text-anchor="middle" x="5013.3477" y="-98.8" font-family="Times,serif" font-size="14.00" fill="#000000">Pay invoice</text>
<text text-anchor="middle" x="5013.3477" y="-84.8" font-family="Times,serif" font-size="14.00" fill="#000000">(413)</text>
</g>
<!-- Authorize Supplier&#39;s Invoice payment&#45;&gt;Pay invoice -->
<g id="edge26" class="edge">
<title>Authorize Supplier&#39;s Invoice payment&#45;&gt;Pay invoice</title>
<path fill="none" stroke="#000000" stroke-width="4.2094" d="M4915.7741,-96C4932.1324,-96 4948.2229,-96 4962.4724,-96"/>
<polygon fill="#000000" stroke="#000000" stroke-width="4.2094" points="4962.5005,-99.6833 4972.5005,-96 4962.5004,-92.3169 4962.5005,-99.6833"/>
<text text-anchor="middle" x="4943.9941" y="-98.8" font-family="Times,serif" font-size="14.00" fill="#000000">413</text>
</g>
<!-- Release Supplier&#39;s Invoice&#45;&gt;Authorize Supplier&#39;s Invoice payment -->
<g id="edge28" class="edge">
<title>Release Supplier&#39;s Invoice&#45;&gt;Authorize Supplier&#39;s Invoice payment</title>
<path fill="none" stroke="#000000" stroke-width="3.5049" d="M4273.706,-77.9923C4298.7161,-69.144 4330.4575,-59.4457 4359.75,-55 4481.7599,-36.4825 4514.9331,-39.9251 4637.416,-55 4669.7436,-58.9788 4704.864,-67.2107 4734.2833,-75.2615"/>
<polygon fill="#000000" stroke="#000000" stroke-width="3.5049" points="4733.4568,-78.6645 4744.0294,-77.9785 4735.3366,-71.9216 4733.4568,-78.6645"/>
<text text-anchor="middle" x="4498.583" y="-57.8" font-family="Times,serif" font-size="14.00" fill="#000000">323</text>
</g>
<!-- Settle dispute with supplier Financial Manager -->
<g id="node22" class="node">
<title>Settle dispute with supplier Financial Manager</title>
<polygon fill="#ededed" stroke="#000000" points="4637.2492,-114 4359.9168,-114 4359.9168,-78 4637.2492,-78 4637.2492,-114"/>
<text text-anchor="middle" x="4498.583" y="-98.8" font-family="Times,serif" font-size="14.00" fill="#000000">Settle dispute with supplier Financial Manager</text>
<text text-anchor="middle" x="4498.583" y="-84.8" font-family="Times,serif" font-size="14.00" fill="#000000">(80)</text>
</g>
<!-- Release Supplier&#39;s Invoice&#45;&gt;Settle dispute with supplier Financial Manager -->
<g id="edge27" class="edge">
<title>Release Supplier&#39;s Invoice&#45;&gt;Settle dispute with supplier Financial Manager</title>
<path fill="none" stroke="#000000" stroke-width="1.6027" d="M4309.7707,-96C4322.5476,-96 4336.0803,-96 4349.7981,-96"/>
<polygon fill="#000000" stroke="#000000" stroke-width="1.6027" points="4349.8113,-99.5001 4359.8113,-96 4349.8113,-92.5001 4349.8113,-99.5001"/>
<text text-anchor="middle" x="4334.75" y="-98.8" font-family="Times,serif" font-size="14.00" fill="#000000">80</text>
</g>
<!-- Settle dispute with supplier Financial Manager&#45;&gt;Authorize Supplier&#39;s Invoice payment -->
<g id="edge29" class="edge">
<title>Settle dispute with supplier Financial Manager&#45;&gt;Authorize Supplier&#39;s Invoice payment</title>
<path fill="none" stroke="#000000" stroke-width="1.6027" d="M4637.6089,-96C4650.7384,-96 4663.9931,-96 4676.9748,-96"/>
<polygon fill="#000000" stroke="#000000" stroke-width="1.6027" points="4677.3197,-99.5001 4687.3197,-96 4677.3196,-92.5001 4677.3197,-99.5001"/>
<text text-anchor="middle" x="4662.416" y="-98.8" font-family="Times,serif" font-size="14.00" fill="#000000">80</text>
</g>
<!-- Settle dispute with supplier Purchasing Agent&#45;&gt;Release Purchase Order -->
<g id="edge30" class="edge">
<title>Settle dispute with supplier Purchasing Agent&#45;&gt;Release Purchase Order</title>
<path fill="none" stroke="#000000" stroke-width="1.18" d="M3671.5968,-48.0587C3658.3897,-48.7655 3645.2287,-50.017 3632.6406,-52 3620.3597,-53.9346 3607.4893,-57.2251 3595.3766,-60.9353"/>
<polygon fill="#000000" stroke="#000000" stroke-width="1.18" points="3594.3085,-57.6022 3585.8505,-63.9829 3596.4415,-64.2693 3594.3085,-57.6022"/>
<text text-anchor="middle" x="3643.1406" y="-54.8" font-family="Times,serif" font-size="14.00" fill="#000000">26</text>
</g>
<!-- Amend Request for Quotation Requester Manager&#45;&gt;Analyze Request for Quotation -->
<g id="edge31" class="edge">
<title>Amend Request for Quotation Requester Manager&#45;&gt;Analyze Request for Quotation</title>
<path fill="none" stroke="#000000" stroke-width="1.3601" d="M1526.3753,-28.2271C1513.0961,-30.3533 1499.9283,-32.9149 1487.3545,-36 1464.4859,-41.6111 1440.1654,-50.9968 1419.9454,-59.8323"/>
<polygon fill="#000000" stroke="#000000" stroke-width="1.3601" points="1418.375,-56.7003 1410.6692,-63.9715 1421.2275,-63.0927 1418.375,-56.7003"/>
<text text-anchor="middle" x="1497.8545" y="-38.8" font-family="Times,serif" font-size="14.00" fill="#000000">49</text>
</g>
</g>
</svg>
