<?xml version="1.0" encoding="UTF-8" standalone="no"?>
<!DOCTYPE svg PUBLIC "-//W3C//DTD SVG 1.1//EN"
 "http://www.w3.org/Graphics/SVG/1.1/DTD/svg11.dtd">
<!-- Generated by graphviz version 2.40.1 (20161225.0304)
 -->
<!-- Title: %3 Pages: 1 -->
<svg width="1065pt" height="122pt"
 viewBox="0.00 0.00 1064.55 122.00" xmlns="http://www.w3.org/2000/svg" xmlns:xlink="http://www.w3.org/1999/xlink">
<g id="graph0" class="graph" transform="scale(1 1) rotate(0) translate(4 118)">
<title>%3</title>
<polygon fill="#ffffff" stroke="transparent" points="-4,4 -4,-118 1060.5508,-118 1060.5508,4 -4,4"/>
<!-- a -->
<g id="node1" class="node">
<title>a</title>
<polygon fill="none" stroke="#000000" points="54,-78 0,-78 0,-42 54,-42 54,-78"/>
<text text-anchor="middle" x="27" y="-55.8" font-family="Times,serif" font-size="14.00" fill="#000000">a</text>
</g>
<!-- b -->
<g id="node2" class="node">
<title>b</title>
<polygon fill="none" stroke="#000000" points="230.584,-78 176.584,-78 176.584,-42 230.584,-42 230.584,-78"/>
<text text-anchor="middle" x="203.584" y="-55.8" font-family="Times,serif" font-size="14.00" fill="#000000">b</text>
</g>
<!-- a&#45;&gt;b -->
<g id="edge1" class="edge">
<title>a&#45;&gt;b</title>
<path fill="none" stroke="#000000" stroke-width="2.2883" d="M54.2043,-60C84.1471,-60 132.4754,-60 166.0194,-60"/>
<polygon fill="#000000" stroke="#000000" stroke-width="2.2883" points="166.3488,-63.5001 176.3488,-60 166.3488,-56.5001 166.3488,-63.5001"/>
<text text-anchor="middle" x="115.292" y="-62.8" font-family="Times,serif" font-size="14.00" fill="#000000">1 day, 22:10:23</text>
</g>
<!-- d -->
<g id="node3" class="node">
<title>d</title>
<polygon fill="none" stroke="#000000" points="400.168,-114 346.168,-114 346.168,-78 400.168,-78 400.168,-114"/>
<text text-anchor="middle" x="373.168" y="-91.8" font-family="Times,serif" font-size="14.00" fill="#000000">d</text>
</g>
<!-- b&#45;&gt;d -->
<g id="edge2" class="edge">
<title>b&#45;&gt;d</title>
<path fill="none" stroke="#000000" stroke-width="1.5584" d="M230.8306,-65.784C259.3863,-71.846 304.429,-81.4078 336.1837,-88.1488"/>
<polygon fill="#000000" stroke="#000000" stroke-width="1.5584" points="335.4801,-91.5774 345.989,-90.2303 336.9338,-84.73 335.4801,-91.5774"/>
<text text-anchor="middle" x="288.376" y="-88.8" font-family="Times,serif" font-size="14.00" fill="#000000">1 day, 0:44:48</text>
</g>
<!-- c -->
<g id="node4" class="node">
<title>c</title>
<polygon fill="none" stroke="#000000" points="400.168,-60 346.168,-60 346.168,-24 400.168,-24 400.168,-60"/>
<text text-anchor="middle" x="373.168" y="-37.8" font-family="Times,serif" font-size="14.00" fill="#000000">c</text>
</g>
<!-- b&#45;&gt;c -->
<g id="edge3" class="edge">
<title>b&#45;&gt;c</title>
<path fill="none" stroke="#000000" stroke-width="1.6948" d="M230.6189,-54.0223C236.5169,-52.8783 242.7417,-51.7921 248.584,-51 277.7283,-47.0487 310.9595,-44.758 335.7672,-43.4775"/>
<polygon fill="#000000" stroke="#000000" stroke-width="1.6948" points="336.0281,-46.969 345.8468,-42.9886 335.689,-39.9772 336.0281,-46.969"/>
<text text-anchor="middle" x="288.376" y="-53.8" font-family="Times,serif" font-size="14.00" fill="#000000">1 day, 4:45:08</text>
</g>
<!-- e -->
<g id="node5" class="node">
<title>e</title>
<polygon fill="none" stroke="#000000" points="532.9473,-86 478.9473,-86 478.9473,-50 532.9473,-50 532.9473,-86"/>
<text text-anchor="middle" x="505.9473" y="-63.8" font-family="Times,serif" font-size="14.00" fill="#000000">e</text>
</g>
<!-- d&#45;&gt;e -->
<g id="edge4" class="edge">
<title>d&#45;&gt;e</title>
<path fill="none" stroke="#000000" d="M400.2798,-89.8997C406.173,-88.5948 412.3764,-87.2372 418.168,-86 434.7659,-82.4542 453.1597,-78.6614 468.8039,-75.4762"/>
<polygon fill="#000000" stroke="#000000" points="469.537,-78.8988 478.6408,-73.4794 468.1444,-72.0387 469.537,-78.8988"/>
<text text-anchor="middle" x="439.5576" y="-88.8" font-family="Times,serif" font-size="14.00" fill="#000000">8:21:20</text>
</g>
<!-- g -->
<g id="node6" class="node">
<title>g</title>
<polygon fill="none" stroke="#000000" points="900.8008,-84 846.8008,-84 846.8008,-48 900.8008,-48 900.8008,-84"/>
<text text-anchor="middle" x="873.8008" y="-61.8" font-family="Times,serif" font-size="14.00" fill="#000000">g</text>
</g>
<!-- d&#45;&gt;g -->
<g id="edge5" class="edge">
<title>d&#45;&gt;g</title>
<path fill="none" stroke="#000000" stroke-width="4.1688" d="M400.2695,-98.8006C406.1634,-99.3001 412.3696,-99.7428 418.168,-100 437.1623,-100.8425 441.9412,-100.5127 460.9473,-100 617.5105,-95.7762 657.9125,-104.0311 812.8301,-81 820.7146,-79.8278 829.0696,-78.1014 836.9829,-76.233"/>
<polygon fill="#000000" stroke="#000000" stroke-width="4.1688" points="837.8744,-79.7702 846.7016,-73.8215 836.1174,-72.6895 837.8744,-79.7702"/>
<text text-anchor="middle" x="593.918" y="-100.8" font-family="Times,serif" font-size="14.00" fill="#000000">4 days, 5:22:35</text>
</g>
<!-- f -->
<g id="node7" class="node">
<title>f</title>
<polygon fill="none" stroke="#000000" points="708.8887,-36 654.8887,-36 654.8887,0 708.8887,0 708.8887,-36"/>
<text text-anchor="middle" x="681.8887" y="-13.8" font-family="Times,serif" font-size="14.00" fill="#000000">f</text>
</g>
<!-- e&#45;&gt;f -->
<g id="edge6" class="edge">
<title>e&#45;&gt;f</title>
<path fill="none" stroke="#000000" stroke-width="1.7665" d="M532.9663,-51.9501C538.7574,-48.9803 544.9436,-46.1439 550.9473,-44 581.5849,-33.0593 617.9914,-26.2997 644.6295,-22.4253"/>
<polygon fill="#000000" stroke="#000000" stroke-width="1.7665" points="645.2599,-25.8715 654.6848,-21.0319 644.299,-18.9377 645.2599,-25.8715"/>
<text text-anchor="middle" x="593.918" y="-46.8" font-family="Times,serif" font-size="14.00" fill="#000000">1 day, 6:51:20</text>
</g>
<!-- g&#45;&gt;e -->
<g id="edge10" class="edge">
<title>g&#45;&gt;e</title>
<path fill="none" stroke="#000000" stroke-width="1.4992" d="M846.712,-66.1473C781.8328,-66.5 617.4348,-67.3938 543.2626,-67.7971"/>
<polygon fill="#000000" stroke="#000000" stroke-width="1.4992" points="542.9772,-64.2985 532.9964,-67.8529 543.0153,-71.2984 542.9772,-64.2985"/>
<text text-anchor="middle" x="681.8887" y="-69.8" font-family="Times,serif" font-size="14.00" fill="#000000">23:00:30</text>
</g>
<!-- h -->
<g id="node8" class="node">
<title>h</title>
<polygon fill="none" stroke="#000000" points="1056.5508,-44 1002.5508,-44 1002.5508,-8 1056.5508,-8 1056.5508,-44"/>
<text text-anchor="middle" x="1029.5508" y="-21.8" font-family="Times,serif" font-size="14.00" fill="#000000">h</text>
</g>
<!-- g&#45;&gt;h -->
<g id="edge9" class="edge">
<title>g&#45;&gt;h</title>
<path fill="none" stroke="#000000" stroke-width="1.4501" d="M900.9304,-59.0325C926.3129,-52.5137 964.4349,-42.7232 992.5909,-35.4921"/>
<polygon fill="#000000" stroke="#000000" stroke-width="1.4501" points="993.6562,-38.8322 1002.4713,-32.9546 991.9149,-32.0522 993.6562,-38.8322"/>
<text text-anchor="middle" x="959.6611" y="-52.8" font-family="Times,serif" font-size="14.00" fill="#000000">21:34:02</text>
</g>
<!-- f&#45;&gt;g -->
<g id="edge7" class="edge">
<title>f&#45;&gt;g</title>
<path fill="none" stroke="#000000" stroke-width="5" d="M709,-22.1598C735.6762,-26.5386 777.4372,-34.1609 812.8301,-44 820.8464,-46.2285 829.3182,-49.0049 837.3135,-51.8268"/>
<polygon fill="#000000" stroke="#000000" stroke-width="5" points="835.8746,-55.9588 846.7673,-55.2577 838.8597,-47.7337 835.8746,-55.9588"/>
<text text-anchor="middle" x="769.8594" y="-46.8" font-family="Times,serif" font-size="14.00" fill="#000000">5 days, 5:46:33</text>
</g>
<!-- f&#45;&gt;h -->
<g id="edge8" class="edge">
<title>f&#45;&gt;h</title>
<path fill="none" stroke="#000000" stroke-width="4.0899" d="M709.1691,-18.6277C770.986,-20.0502 921.8149,-23.5209 992.2141,-25.1409"/>
<polygon fill="#000000" stroke="#000000" stroke-width="4.0899" points="992.3173,-28.7227 1002.397,-25.3752 992.4821,-21.5674 992.3173,-28.7227"/>
<text text-anchor="middle" x="873.8008" y="-26.8" font-family="Times,serif" font-size="14.00" fill="#000000">4 days, 3:03:30</text>
</g>
</g>
</svg>
