<?xml version="1.0" encoding="UTF-8" standalone="no"?>
<!DOCTYPE svg PUBLIC "-//W3C//DTD SVG 1.1//EN"
 "http://www.w3.org/Graphics/SVG/1.1/DTD/svg11.dtd">
<!-- Generated by graphviz version 2.40.1 (20161225.0304)
 -->
<!-- Title: %3 Pages: 1 -->
<svg width="125pt" height="517pt"
 viewBox="0.00 0.00 124.90 516.95" xmlns="http://www.w3.org/2000/svg" xmlns:xlink="http://www.w3.org/1999/xlink">
<g id="graph0" class="graph" transform="scale(1 1) rotate(0) translate(4 512.9503)">
<title>%3</title>
<polygon fill="#ffffff" stroke="transparent" points="-4,4 -4,-512.9503 120.9006,-512.9503 120.9006,4 -4,4"/>
<!-- u1 -->
<g id="node1" class="node">
<title>u1</title>
<ellipse fill="none" stroke="#000000" cx="18.9503" cy="-119" rx="18.9007" ry="18.9007"/>
<text text-anchor="middle" x="18.9503" y="-114.8" font-family="Times,serif" font-size="14.00" fill="#000000">u1</text>
</g>
<!-- a -->
<g id="node2" class="node">
<title>a</title>
<ellipse fill="none" stroke="#000000" cx="98.9006" cy="-18" rx="18" ry="18"/>
<text text-anchor="middle" x="98.9006" y="-13.8" font-family="Times,serif" font-size="14.00" fill="#000000">a</text>
</g>
<!-- u1&#45;&#45;a -->
<g id="edge1" class="edge">
<title>u1&#45;&#45;a</title>
<path fill="none" stroke="#000000" d="M30.7472,-104.0971C46.0369,-84.7819 72.5164,-51.3308 87.5729,-32.3101"/>
<text text-anchor="middle" x="59.4006" y="-74.8" font-family="Times,serif" font-size="14.00" fill="#000000">1</text>
</g>
<!-- h -->
<g id="node3" class="node">
<title>h</title>
<ellipse fill="none" stroke="#000000" cx="98.9006" cy="-92" rx="18" ry="18"/>
<text text-anchor="middle" x="98.9006" y="-87.8" font-family="Times,serif" font-size="14.00" fill="#000000">h</text>
</g>
<!-- u1&#45;&#45;h -->
<g id="edge2" class="edge">
<title>u1&#45;&#45;h</title>
<path fill="none" stroke="#000000" d="M37.0922,-112.8733C50.453,-108.3612 68.5076,-102.264 81.6525,-97.8248"/>
<text text-anchor="middle" x="59.4006" y="-109.8" font-family="Times,serif" font-size="14.00" fill="#000000">1</text>
</g>
<!-- c -->
<g id="node4" class="node">
<title>c</title>
<ellipse fill="none" stroke="#000000" cx="98.9006" cy="-156" rx="18" ry="18"/>
<text text-anchor="middle" x="98.9006" y="-151.8" font-family="Times,serif" font-size="14.00" fill="#000000">c</text>
</g>
<!-- u1&#45;&#45;c -->
<g id="edge3" class="edge">
<title>u1&#45;&#45;c</title>
<path fill="none" stroke="#000000" d="M36.2983,-127.0284C49.9842,-133.3621 68.946,-142.1374 82.406,-148.3665"/>
<text text-anchor="middle" x="59.4006" y="-141.8" font-family="Times,serif" font-size="14.00" fill="#000000">1</text>
</g>
<!-- u3 -->
<g id="node5" class="node">
<title>u3</title>
<ellipse fill="none" stroke="#000000" cx="18.9503" cy="-249" rx="18.9007" ry="18.9007"/>
<text text-anchor="middle" x="18.9503" y="-244.8" font-family="Times,serif" font-size="14.00" fill="#000000">u3</text>
</g>
<!-- b -->
<g id="node6" class="node">
<title>b</title>
<ellipse fill="none" stroke="#000000" cx="98.9006" cy="-230" rx="18" ry="18"/>
<text text-anchor="middle" x="98.9006" y="-225.8" font-family="Times,serif" font-size="14.00" fill="#000000">b</text>
</g>
<!-- u3&#45;&#45;b -->
<g id="edge4" class="edge">
<title>u3&#45;&#45;b</title>
<path fill="none" stroke="#000000" stroke-width="5" d="M37.4934,-244.5933C50.6864,-241.458 68.301,-237.2719 81.2809,-234.1873"/>
<text text-anchor="middle" x="59.4006" y="-243.8" font-family="Times,serif" font-size="14.00" fill="#000000">2</text>
</g>
<!-- u6 -->
<g id="node7" class="node">
<title>u6</title>
<ellipse fill="none" stroke="#000000" cx="18.9503" cy="-370" rx="18.9007" ry="18.9007"/>
<text text-anchor="middle" x="18.9503" y="-365.8" font-family="Times,serif" font-size="14.00" fill="#000000">u6</text>
</g>
<!-- d -->
<g id="node8" class="node">
<title>d</title>
<ellipse fill="none" stroke="#000000" cx="98.9006" cy="-315" rx="18" ry="18"/>
<text text-anchor="middle" x="98.9006" y="-310.8" font-family="Times,serif" font-size="14.00" fill="#000000">d</text>
</g>
<!-- u6&#45;&#45;d -->
<g id="edge5" class="edge">
<title>u6&#45;&#45;d</title>
<path fill="none" stroke="#000000" d="M34.7459,-359.1338C49.0353,-349.3037 69.9273,-334.9315 83.949,-325.2856"/>
<text text-anchor="middle" x="59.4006" y="-347.8" font-family="Times,serif" font-size="14.00" fill="#000000">1</text>
</g>
<!-- g -->
<g id="node9" class="node">
<title>g</title>
<ellipse fill="none" stroke="#000000" cx="98.9006" cy="-379" rx="18" ry="18"/>
<text text-anchor="middle" x="98.9006" y="-374.8" font-family="Times,serif" font-size="14.00" fill="#000000">g</text>
</g>
<!-- u6&#45;&#45;g -->
<g id="edge6" class="edge">
<title>u6&#45;&#45;g</title>
<path fill="none" stroke="#000000" stroke-width="5" d="M37.8974,-372.1329C50.9192,-373.5987 68.1026,-375.5331 80.913,-376.9751"/>
<text text-anchor="middle" x="59.4006" y="-377.8" font-family="Times,serif" font-size="14.00" fill="#000000">2</text>
</g>
<!-- u7 -->
<g id="node10" class="node">
<title>u7</title>
<ellipse fill="none" stroke="#000000" cx="18.9503" cy="-434" rx="18.9007" ry="18.9007"/>
<text text-anchor="middle" x="18.9503" y="-429.8" font-family="Times,serif" font-size="14.00" fill="#000000">u7</text>
</g>
<!-- e -->
<g id="node11" class="node">
<title>e</title>
<ellipse fill="none" stroke="#000000" cx="98.9006" cy="-434" rx="18" ry="18"/>
<text text-anchor="middle" x="98.9006" y="-429.8" font-family="Times,serif" font-size="14.00" fill="#000000">e</text>
</g>
<!-- u7&#45;&#45;e -->
<g id="edge7" class="edge">
<title>u7&#45;&#45;e</title>
<path fill="none" stroke="#000000" stroke-width="5" d="M38.304,-434C51.2439,-434 68.1535,-434 80.821,-434"/>
<text text-anchor="middle" x="59.4006" y="-436.8" font-family="Times,serif" font-size="14.00" fill="#000000">2</text>
</g>
<!-- u8 -->
<g id="node12" class="node">
<title>u8</title>
<ellipse fill="none" stroke="#000000" cx="18.9503" cy="-490" rx="18.9007" ry="18.9007"/>
<text text-anchor="middle" x="18.9503" y="-485.8" font-family="Times,serif" font-size="14.00" fill="#000000">u8</text>
</g>
<!-- f -->
<g id="node13" class="node">
<title>f</title>
<ellipse fill="none" stroke="#000000" cx="98.9006" cy="-490" rx="18" ry="18"/>
<text text-anchor="middle" x="98.9006" y="-485.8" font-family="Times,serif" font-size="14.00" fill="#000000">f</text>
</g>
<!-- u8&#45;&#45;f -->
<g id="edge8" class="edge">
<title>u8&#45;&#45;f</title>
<path fill="none" stroke="#000000" stroke-width="5" d="M38.304,-490C51.2439,-490 68.1535,-490 80.821,-490"/>
<text text-anchor="middle" x="59.4006" y="-492.8" font-family="Times,serif" font-size="14.00" fill="#000000">2</text>
</g>
<!-- u2 -->
<g id="node14" class="node">
<title>u2</title>
<ellipse fill="none" stroke="#000000" cx="18.9503" cy="-27" rx="18.9007" ry="18.9007"/>
<text text-anchor="middle" x="18.9503" y="-22.8" font-family="Times,serif" font-size="14.00" fill="#000000">u2</text>
</g>
<!-- u2&#45;&#45;a -->
<g id="edge10" class="edge">
<title>u2&#45;&#45;a</title>
<path fill="none" stroke="#000000" stroke-width="5" d="M35.2776,-17.0712C41.5018,-13.8254 48.8084,-10.6356 55.9006,-9 64.5217,-7.0118 74.1587,-8.6733 82.121,-11.0852"/>
<text text-anchor="middle" x="59.4006" y="-11.8" font-family="Times,serif" font-size="14.00" fill="#000000">2</text>
</g>
<!-- u2&#45;&#45;h -->
<g id="edge9" class="edge">
<title>u2&#45;&#45;h</title>
<path fill="none" stroke="#000000" d="M37.1581,-32.5454C45.5279,-35.6542 55.2675,-40.1077 62.9006,-46 73.6574,-54.3037 83.0167,-66.5178 89.4943,-76.2736"/>
<text text-anchor="middle" x="59.4006" y="-48.8" font-family="Times,serif" font-size="14.00" fill="#000000">1</text>
</g>
<!-- u5 -->
<g id="node15" class="node">
<title>u5</title>
<ellipse fill="none" stroke="#000000" cx="18.9503" cy="-305" rx="18.9007" ry="18.9007"/>
<text text-anchor="middle" x="18.9503" y="-300.8" font-family="Times,serif" font-size="14.00" fill="#000000">u5</text>
</g>
<!-- u5&#45;&#45;d -->
<g id="edge11" class="edge">
<title>u5&#45;&#45;d</title>
<path fill="none" stroke="#000000" d="M38.277,-304.5155C45.9695,-304.5632 54.8828,-304.9203 62.9006,-306 69.0299,-306.8254 75.6247,-308.2974 81.474,-309.815"/>
<text text-anchor="middle" x="59.4006" y="-308.8" font-family="Times,serif" font-size="14.00" fill="#000000">1</text>
</g>
<!-- u4 -->
<g id="node16" class="node">
<title>u4</title>
<ellipse fill="none" stroke="#000000" cx="18.9503" cy="-193" rx="18.9007" ry="18.9007"/>
<text text-anchor="middle" x="18.9503" y="-188.8" font-family="Times,serif" font-size="14.00" fill="#000000">u4</text>
</g>
<!-- u4&#45;&#45;b -->
<g id="edge12" class="edge">
<title>u4&#45;&#45;b</title>
<path fill="none" stroke="#000000" d="M36.2983,-201.0284C49.9842,-207.3621 68.946,-216.1374 82.406,-222.3665"/>
<text text-anchor="middle" x="59.4006" y="-215.8" font-family="Times,serif" font-size="14.00" fill="#000000">1</text>
</g>
</g>
</svg>
