<?xml version="1.0" encoding="UTF-8" standalone="no"?>
<!DOCTYPE svg PUBLIC "-//W3C//DTD SVG 1.1//EN"
 "http://www.w3.org/Graphics/SVG/1.1/DTD/svg11.dtd">
<!-- Generated by graphviz version 2.40.1 (20161225.0304)
 -->
<!-- Title: %3 Pages: 1 -->
<svg width="531pt" height="485pt"
 viewBox="0.00 0.00 531.30 485.00" xmlns="http://www.w3.org/2000/svg" xmlns:xlink="http://www.w3.org/1999/xlink">
<g id="graph0" class="graph" transform="scale(1 1) rotate(0) translate(4 481)">
<title>%3</title>
<polygon fill="#ffffff" stroke="transparent" points="-4,4 -4,-481 527.304,-481 527.304,4 -4,4"/>
<!-- u1 -->
<g id="node1" class="node">
<title>u1</title>
<ellipse fill="none" stroke="#000000" cx="18.9503" cy="-335" rx="18.9007" ry="18.9007"/>
<text text-anchor="middle" x="18.9503" y="-330.8" font-family="Times,serif" font-size="14.00" fill="#000000">u1</text>
</g>
<!-- u2 -->
<g id="node2" class="node">
<title>u2</title>
<ellipse fill="none" stroke="#000000" cx="99.8509" cy="-199" rx="18.9007" ry="18.9007"/>
<text text-anchor="middle" x="99.8509" y="-194.8" font-family="Times,serif" font-size="14.00" fill="#000000">u2</text>
</g>
<!-- u1&#45;&#45;u2 -->
<g id="edge1" class="edge">
<title>u1&#45;&#45;u2</title>
<path fill="none" stroke="#000000" stroke-width="5" d="M27.4338,-317.759C34.6334,-303.424 45.4334,-282.5979 55.9006,-265 66.3863,-247.3708 79.5546,-227.9049 88.7307,-214.7124"/>
<text text-anchor="middle" x="59.4006" y="-267.8" font-family="Times,serif" font-size="14.00" fill="#000000">3</text>
</g>
<!-- u3 -->
<g id="node3" class="node">
<title>u3</title>
<ellipse fill="none" stroke="#000000" cx="180.7514" cy="-96" rx="18.9007" ry="18.9007"/>
<text text-anchor="middle" x="180.7514" y="-91.8" font-family="Times,serif" font-size="14.00" fill="#000000">u3</text>
</g>
<!-- u1&#45;&#45;u3 -->
<g id="edge2" class="edge">
<title>u1&#45;&#45;u3</title>
<path fill="none" stroke="#000000" stroke-width="1.5" d="M21.7759,-316.1632C27.7006,-281.7161 44.0464,-207.4741 80.9006,-157 101.6245,-128.6173 139.9387,-110.7381 162.6046,-102.1281"/>
<text text-anchor="middle" x="99.8509" y="-159.8" font-family="Times,serif" font-size="14.00" fill="#000000">2</text>
</g>
<!-- u6 -->
<g id="node4" class="node">
<title>u6</title>
<ellipse fill="none" stroke="#000000" cx="342.5526" cy="-273" rx="18.9007" ry="18.9007"/>
<text text-anchor="middle" x="342.5526" y="-268.8" font-family="Times,serif" font-size="14.00" fill="#000000">u6</text>
</g>
<!-- u1&#45;&#45;u6 -->
<g id="edge3" class="edge">
<title>u1&#45;&#45;u6</title>
<path fill="none" stroke="#000000" stroke-width="1.5" d="M35.2887,-344.8813C41.5141,-348.122 48.8186,-351.3206 55.9006,-353 93.9158,-362.0147 105.1106,-359.4281 143.8011,-354 215.7554,-343.9052 293.4105,-302.1918 326.3326,-282.8858"/>
<text text-anchor="middle" x="180.7514" y="-352.8" font-family="Times,serif" font-size="14.00" fill="#000000">2</text>
</g>
<!-- u7 -->
<g id="node5" class="node">
<title>u7</title>
<ellipse fill="none" stroke="#000000" cx="423.4531" cy="-235" rx="18.9007" ry="18.9007"/>
<text text-anchor="middle" x="423.4531" y="-230.8" font-family="Times,serif" font-size="14.00" fill="#000000">u7</text>
</g>
<!-- u1&#45;&#45;u7 -->
<g id="edge4" class="edge">
<title>u1&#45;&#45;u7</title>
<path fill="none" stroke="#000000" stroke-width="1.5" d="M31.7467,-349.0304C38.355,-355.4513 46.9081,-362.5943 55.9006,-367 113.2955,-395.1196 137.343,-382.01 199.7017,-368 275.6419,-350.9387 297.4768,-345.2567 361.5028,-301 381.9283,-286.8814 400.7392,-265.0497 412.148,-250.4038"/>
<text text-anchor="middle" x="221.2017" y="-365.8" font-family="Times,serif" font-size="14.00" fill="#000000">2</text>
</g>
<!-- u8 -->
<g id="node6" class="node">
<title>u8</title>
<ellipse fill="none" stroke="#000000" cx="504.3537" cy="-331" rx="18.9007" ry="18.9007"/>
<text text-anchor="middle" x="504.3537" y="-326.8" font-family="Times,serif" font-size="14.00" fill="#000000">u8</text>
</g>
<!-- u1&#45;&#45;u8 -->
<g id="edge5" class="edge">
<title>u1&#45;&#45;u8</title>
<path fill="none" stroke="#000000" stroke-width="1.5" d="M21.9132,-353.8868C28.6881,-389.4922 48.8508,-463 99.8509,-463 99.8509,-463 99.8509,-463 423.4531,-463 475.8658,-463 495.3708,-386.4116 501.6903,-349.9124"/>
<text text-anchor="middle" x="261.652" y="-465.8" font-family="Times,serif" font-size="14.00" fill="#000000">2</text>
</g>
<!-- u5 -->
<g id="node7" class="node">
<title>u5</title>
<ellipse fill="none" stroke="#000000" cx="261.652" cy="-231" rx="18.9007" ry="18.9007"/>
<text text-anchor="middle" x="261.652" y="-226.8" font-family="Times,serif" font-size="14.00" fill="#000000">u5</text>
</g>
<!-- u1&#45;&#45;u5 -->
<g id="edge6" class="edge">
<title>u1&#45;&#45;u5</title>
<path fill="none" stroke="#000000" d="M37.8925,-337.7678C72.57,-341.859 147.4867,-346.0948 199.7017,-316 226.2806,-300.6809 244.6544,-268.8617 254.1458,-248.7961"/>
<text text-anchor="middle" x="140.3011" y="-338.8" font-family="Times,serif" font-size="14.00" fill="#000000">1</text>
</g>
<!-- u4 -->
<g id="node8" class="node">
<title>u4</title>
<ellipse fill="none" stroke="#000000" cx="180.7514" cy="-288" rx="18.9007" ry="18.9007"/>
<text text-anchor="middle" x="180.7514" y="-283.8" font-family="Times,serif" font-size="14.00" fill="#000000">u4</text>
</g>
<!-- u1&#45;&#45;u4 -->
<g id="edge7" class="edge">
<title>u1&#45;&#45;u4</title>
<path fill="none" stroke="#000000" d="M35.8778,-326.0317C48.095,-319.8889 65.1456,-311.982 80.9006,-307 108.3255,-298.3278 141.3071,-292.9963 161.651,-290.2671"/>
<text text-anchor="middle" x="99.8509" y="-309.8" font-family="Times,serif" font-size="14.00" fill="#000000">1</text>
</g>
<!-- u2&#45;&#45;u3 -->
<g id="edge8" class="edge">
<title>u2&#45;&#45;u3</title>
<path fill="none" stroke="#000000" stroke-width="1.5" d="M105.7876,-180.9993C111.7395,-164.9653 122.1312,-141.5476 136.8011,-125 144.3209,-116.5177 154.8675,-109.4487 163.7444,-104.4139"/>
<text text-anchor="middle" x="140.3011" y="-127.8" font-family="Times,serif" font-size="14.00" fill="#000000">2</text>
</g>
<!-- u2&#45;&#45;u6 -->
<g id="edge9" class="edge">
<title>u2&#45;&#45;u6</title>
<path fill="none" stroke="#000000" stroke-width="1.5" d="M117.0231,-207.6871C123.2113,-210.7319 130.2767,-214.1105 136.8011,-217 147.7431,-221.8459 150.6815,-222.5769 161.8011,-227 197.7295,-241.2913 205.3149,-249.1351 242.7017,-259 270.2903,-266.2796 303.2271,-269.9648 323.5169,-271.6817"/>
<text text-anchor="middle" x="221.2017" y="-256.8" font-family="Times,serif" font-size="14.00" fill="#000000">2</text>
</g>
<!-- u2&#45;&#45;u7 -->
<g id="edge10" class="edge">
<title>u2&#45;&#45;u7</title>
<path fill="none" stroke="#000000" stroke-width="1.5" d="M118.2394,-194.1896C143.5394,-187.0525 189.9015,-172.0814 224.7017,-150 233.9931,-144.1045 232.4763,-137.0654 242.7017,-133 258.3547,-126.7767 264.5607,-127.8607 280.6023,-133 335.1614,-150.4792 386.6272,-197.2951 410.1189,-220.9328"/>
<text text-anchor="middle" x="261.652" y="-135.8" font-family="Times,serif" font-size="14.00" fill="#000000">2</text>
</g>
<!-- u2&#45;&#45;u8 -->
<g id="edge11" class="edge">
<title>u2&#45;&#45;u8</title>
<path fill="none" stroke="#000000" stroke-width="1.5" d="M112.6081,-184.6225C114.891,-181.5846 117.0853,-178.2965 118.8011,-175 156.8948,-101.8129 98.244,0 180.7514,0 180.7514,0 180.7514,0 423.4531,0 488.0819,0 501.3225,-241.1298 503.8148,-311.7733"/>
<text text-anchor="middle" x="302.1023" y="-2.8" font-family="Times,serif" font-size="14.00" fill="#000000">2</text>
</g>
<!-- u2&#45;&#45;u5 -->
<g id="edge12" class="edge">
<title>u2&#45;&#45;u5</title>
<path fill="none" stroke="#000000" d="M118.7633,-200.8341C138.9502,-202.9817 171.8019,-207.0232 199.7017,-213 214.7054,-216.2142 231.3925,-221.1432 243.6643,-225.0312"/>
<text text-anchor="middle" x="180.7514" y="-215.8" font-family="Times,serif" font-size="14.00" fill="#000000">1</text>
</g>
<!-- u2&#45;&#45;u4 -->
<g id="edge13" class="edge">
<title>u2&#45;&#45;u4</title>
<path fill="none" stroke="#000000" d="M112.3162,-213.8944C119.3918,-222.2499 128.4731,-232.8101 136.8011,-242 146.74,-252.9673 158.3159,-265.0566 167.0919,-274.0884"/>
<text text-anchor="middle" x="140.3011" y="-251.8" font-family="Times,serif" font-size="14.00" fill="#000000">1</text>
</g>
<!-- u3&#45;&#45;u6 -->
<g id="edge14" class="edge">
<title>u3&#45;&#45;u6</title>
<path fill="none" stroke="#000000" stroke-width="1.5" d="M195.498,-108.1079C215.7785,-125.1093 252.9108,-157.5141 280.6023,-189 302.2688,-213.6355 303.8759,-222.7852 323.6023,-249 325.8368,-251.9695 328.2662,-255.1094 330.6168,-258.1046"/>
<text text-anchor="middle" x="261.652" y="-191.8" font-family="Times,serif" font-size="14.00" fill="#000000">2</text>
</g>
<!-- u3&#45;&#45;u7 -->
<g id="edge15" class="edge">
<title>u3&#45;&#45;u7</title>
<path fill="none" stroke="#000000" stroke-width="1.5" d="M199.4269,-91.3947C239.2251,-82.7911 333.1046,-69.1149 386.5028,-116 401.6208,-129.274 414.2763,-186.0785 420.0669,-216.151"/>
<text text-anchor="middle" x="302.1023" y="-87.8" font-family="Times,serif" font-size="14.00" fill="#000000">2</text>
</g>
<!-- u3&#45;&#45;u8 -->
<g id="edge16" class="edge">
<title>u3&#45;&#45;u8</title>
<path fill="none" stroke="#000000" stroke-width="1.5" d="M193.5551,-81.8057C208.3639,-67.0236 234.2434,-46 261.652,-46 261.652,-46 261.652,-46 423.4531,-46 478.8733,-46 498.3163,-247.9573 503.0812,-311.8578"/>
<text text-anchor="middle" x="342.5526" y="-48.8" font-family="Times,serif" font-size="14.00" fill="#000000">2</text>
</g>
<!-- u3&#45;&#45;u5 -->
<g id="edge17" class="edge">
<title>u3&#45;&#45;u5</title>
<path fill="none" stroke="#000000" d="M190.5099,-112.2842C206.0594,-138.2318 236.2877,-188.6742 251.8589,-214.6581"/>
<text text-anchor="middle" x="221.2017" y="-170.8" font-family="Times,serif" font-size="14.00" fill="#000000">1</text>
</g>
<!-- u6&#45;&#45;u7 -->
<g id="edge18" class="edge">
<title>u6&#45;&#45;u7</title>
<path fill="none" stroke="#000000" stroke-width="1.5" d="M359.7095,-264.9412C373.3458,-258.536 392.3397,-249.6144 406.042,-243.1782"/>
<text text-anchor="middle" x="383.0028" y="-258.8" font-family="Times,serif" font-size="14.00" fill="#000000">2</text>
</g>
<!-- u6&#45;&#45;u8 -->
<g id="edge19" class="edge">
<title>u6&#45;&#45;u8</title>
<path fill="none" stroke="#000000" stroke-width="1.5" d="M360.4863,-279.4286C391.5878,-290.5774 455.1823,-313.3738 486.3396,-324.5426"/>
<text text-anchor="middle" x="423.4531" y="-311.8" font-family="Times,serif" font-size="14.00" fill="#000000">2</text>
</g>
<!-- u7&#45;&#45;u8 -->
<g id="edge20" class="edge">
<title>u7&#45;&#45;u8</title>
<path fill="none" stroke="#000000" stroke-width="1.5" d="M435.7402,-249.5803C450.9459,-267.624 476.6921,-298.1756 491.951,-316.2825"/>
<text text-anchor="middle" x="463.9034" y="-288.8" font-family="Times,serif" font-size="14.00" fill="#000000">2</text>
</g>
<!-- u5&#45;&#45;u6 -->
<g id="edge21" class="edge">
<title>u5&#45;&#45;u6</title>
<path fill="none" stroke="#000000" d="M279.4691,-237.9945C287.5735,-241.3551 297.2072,-245.6037 305.6023,-250 312.6978,-253.7157 320.2524,-258.2977 326.6694,-262.3915"/>
<text text-anchor="middle" x="302.1023" y="-252.8" font-family="Times,serif" font-size="14.00" fill="#000000">1</text>
</g>
<!-- u5&#45;&#45;u7 -->
<g id="edge22" class="edge">
<title>u5&#45;&#45;u7</title>
<path fill="none" stroke="#000000" d="M280.8,-230.6339C300.9046,-230.3352 333.4344,-230.0948 361.5028,-231 375.9374,-231.4655 392.2343,-232.5396 404.4891,-233.4577"/>
<text text-anchor="middle" x="342.5526" y="-233.8" font-family="Times,serif" font-size="14.00" fill="#000000">1</text>
</g>
<!-- u5&#45;&#45;u8 -->
<g id="edge23" class="edge">
<title>u5&#45;&#45;u8</title>
<path fill="none" stroke="#000000" d="M272.0825,-247.1577C283.099,-263.006 301.8637,-286.7997 323.6023,-301 374.6012,-334.314 450.4448,-334.5744 485.4254,-332.5908"/>
<text text-anchor="middle" x="383.0028" y="-328.8" font-family="Times,serif" font-size="14.00" fill="#000000">1</text>
</g>
</g>
</svg>
