<?xml version="1.0" encoding="UTF-8" standalone="no"?>
<!DOCTYPE svg PUBLIC "-//W3C//DTD SVG 1.1//EN"
 "http://www.w3.org/Graphics/SVG/1.1/DTD/svg11.dtd">
<!-- Generated by graphviz version 2.40.1 (20161225.0304)
 -->
<!-- Title: %3 Pages: 1 -->
<svg width="644pt" height="122pt"
 viewBox="0.00 0.00 644.00 122.00" xmlns="http://www.w3.org/2000/svg" xmlns:xlink="http://www.w3.org/1999/xlink">
<g id="graph0" class="graph" transform="scale(1 1) rotate(0) translate(4 118)">
<title>%3</title>
<polygon fill="#ffffff" stroke="transparent" points="-4,4 -4,-118 640,-118 640,4 -4,4"/>
<!-- a -->
<g id="node1" class="node">
<title>a</title>
<polygon fill="#000000" stroke="#000000" points="54,-78 0,-78 0,-42 54,-42 54,-78"/>
<text text-anchor="middle" x="27" y="-62.8" font-family="Times,serif" font-size="14.00" fill="#ffffff">a</text>
<text text-anchor="middle" x="27" y="-48.8" font-family="Times,serif" font-size="14.00" fill="#ffffff">(3)</text>
</g>
<!-- b -->
<g id="node2" class="node">
<title>b</title>
<polygon fill="#000000" stroke="#000000" points="151,-78 97,-78 97,-42 151,-42 151,-78"/>
<text text-anchor="middle" x="124" y="-62.8" font-family="Times,serif" font-size="14.00" fill="#ffffff">b</text>
<text text-anchor="middle" x="124" y="-48.8" font-family="Times,serif" font-size="14.00" fill="#ffffff">(3)</text>
</g>
<!-- a&#45;&gt;b -->
<g id="edge1" class="edge">
<title>a&#45;&gt;b</title>
<path fill="none" stroke="#000000" stroke-width="5" d="M54.0199,-60C64.1304,-60 75.8016,-60 86.6794,-60"/>
<polygon fill="#000000" stroke="#000000" stroke-width="5" points="86.7886,-64.3751 96.7886,-60 86.7885,-55.6251 86.7886,-64.3751"/>
<text text-anchor="middle" x="75.5" y="-62.8" font-family="Times,serif" font-size="14.00" fill="#000000">3</text>
</g>
<!-- d -->
<g id="node3" class="node">
<title>d</title>
<polygon fill="#7f7f7f" stroke="#000000" points="248,-114 194,-114 194,-78 248,-78 248,-114"/>
<text text-anchor="middle" x="221" y="-98.8" font-family="Times,serif" font-size="14.00" fill="#000000">d</text>
<text text-anchor="middle" x="221" y="-84.8" font-family="Times,serif" font-size="14.00" fill="#000000">(2)</text>
</g>
<!-- b&#45;&gt;d -->
<g id="edge2" class="edge">
<title>b&#45;&gt;d</title>
<path fill="none" stroke="#000000" stroke-width="3" d="M151.0199,-70.028C161.3389,-73.8577 173.2836,-78.2908 184.3512,-82.3984"/>
<polygon fill="#000000" stroke="#000000" stroke-width="3" points="183.1956,-85.7027 193.7886,-85.9009 185.6312,-79.1401 183.1956,-85.7027"/>
<text text-anchor="middle" x="172.5" y="-81.8" font-family="Times,serif" font-size="14.00" fill="#000000">2</text>
</g>
<!-- c -->
<g id="node8" class="node">
<title>c</title>
<polygon fill="#ffffff" stroke="#000000" points="248,-60 194,-60 194,-24 248,-24 248,-60"/>
<text text-anchor="middle" x="221" y="-44.8" font-family="Times,serif" font-size="14.00" fill="#000000">c</text>
<text text-anchor="middle" x="221" y="-30.8" font-family="Times,serif" font-size="14.00" fill="#000000">(1)</text>
</g>
<!-- b&#45;&gt;c -->
<g id="edge3" class="edge">
<title>b&#45;&gt;c</title>
<path fill="none" stroke="#000000" d="M151.1054,-54.4603C156.999,-53.289 163.2042,-52.081 169,-51 173.8129,-50.1024 178.8824,-49.1873 183.8914,-48.3012"/>
<polygon fill="#000000" stroke="#000000" points="184.7384,-51.7064 193.9871,-46.538 183.534,-44.8108 184.7384,-51.7064"/>
<text text-anchor="middle" x="172.5" y="-53.8" font-family="Times,serif" font-size="14.00" fill="#000000">1</text>
</g>
<!-- e -->
<g id="node4" class="node">
<title>e</title>
<polygon fill="#7f7f7f" stroke="#000000" points="345,-86 291,-86 291,-50 345,-50 345,-86"/>
<text text-anchor="middle" x="318" y="-70.8" font-family="Times,serif" font-size="14.00" fill="#000000">e</text>
<text text-anchor="middle" x="318" y="-56.8" font-family="Times,serif" font-size="14.00" fill="#000000">(2)</text>
</g>
<!-- d&#45;&gt;e -->
<g id="edge4" class="edge">
<title>d&#45;&gt;e</title>
<path fill="none" stroke="#000000" d="M248.0199,-88.2004C258.2347,-85.2519 270.0425,-81.8434 281.0155,-78.6759"/>
<polygon fill="#000000" stroke="#000000" points="282.1515,-81.991 290.7886,-75.8548 280.2101,-75.2656 282.1515,-81.991"/>
<text text-anchor="middle" x="269.5" y="-84.8" font-family="Times,serif" font-size="14.00" fill="#000000">1</text>
</g>
<!-- g -->
<g id="node6" class="node">
<title>g</title>
<polygon fill="#7f7f7f" stroke="#000000" points="539,-84 485,-84 485,-48 539,-48 539,-84"/>
<text text-anchor="middle" x="512" y="-68.8" font-family="Times,serif" font-size="14.00" fill="#000000">g</text>
<text text-anchor="middle" x="512" y="-54.8" font-family="Times,serif" font-size="14.00" fill="#000000">(2)</text>
</g>
<!-- d&#45;&gt;g -->
<g id="edge5" class="edge">
<title>d&#45;&gt;g</title>
<path fill="none" stroke="#000000" d="M248.2334,-99.2424C256.2076,-99.8809 264.9464,-100.2793 273,-100 348.3611,-97.3864 367.2367,-94.827 442,-85 453.1565,-83.5336 456.0706,-83.677 467,-81 469.6096,-80.3608 472.2849,-79.641 474.9667,-78.8713"/>
<polygon fill="#000000" stroke="#000000" points="476.0644,-82.1957 484.6018,-75.9217 474.0153,-75.5023 476.0644,-82.1957"/>
<text text-anchor="middle" x="366.5" y="-96.8" font-family="Times,serif" font-size="14.00" fill="#000000">1</text>
</g>
<!-- f -->
<g id="node5" class="node">
<title>f</title>
<polygon fill="#7f7f7f" stroke="#000000" points="442,-36 388,-36 388,0 442,0 442,-36"/>
<text text-anchor="middle" x="415" y="-20.8" font-family="Times,serif" font-size="14.00" fill="#000000">f</text>
<text text-anchor="middle" x="415" y="-6.8" font-family="Times,serif" font-size="14.00" fill="#000000">(2)</text>
</g>
<!-- e&#45;&gt;f -->
<g id="edge6" class="edge">
<title>e&#45;&gt;f</title>
<path fill="none" stroke="#000000" stroke-width="3" d="M345.0667,-53.4163C350.9628,-50.281 357.1787,-47.007 363,-44 368.0443,-41.3944 373.3824,-38.6785 378.6417,-36.0267"/>
<polygon fill="#000000" stroke="#000000" stroke-width="3" points="380.5742,-38.973 387.9427,-31.3601 377.435,-32.7163 380.5742,-38.973"/>
<text text-anchor="middle" x="366.5" y="-46.8" font-family="Times,serif" font-size="14.00" fill="#000000">2</text>
</g>
<!-- f&#45;&gt;g -->
<g id="edge7" class="edge">
<title>f&#45;&gt;g</title>
<path fill="none" stroke="#000000" d="M442.0199,-31.3707C452.4431,-36.5286 464.5251,-42.5072 475.6863,-48.0303"/>
<polygon fill="#000000" stroke="#000000" points="474.2736,-51.2363 484.7886,-52.5346 477.3782,-44.9624 474.2736,-51.2363"/>
<text text-anchor="middle" x="463.5" y="-46.8" font-family="Times,serif" font-size="14.00" fill="#000000">1</text>
</g>
<!-- h -->
<g id="node7" class="node">
<title>h</title>
<polygon fill="#7f7f7f" stroke="#000000" points="636,-44 582,-44 582,-8 636,-8 636,-44"/>
<text text-anchor="middle" x="609" y="-28.8" font-family="Times,serif" font-size="14.00" fill="#000000">h</text>
<text text-anchor="middle" x="609" y="-14.8" font-family="Times,serif" font-size="14.00" fill="#000000">(2)</text>
</g>
<!-- f&#45;&gt;h -->
<g id="edge8" class="edge">
<title>f&#45;&gt;h</title>
<path fill="none" stroke="#000000" d="M442.384,-19.1292C476.1804,-20.5229 533.8069,-22.8993 571.6442,-24.4596"/>
<polygon fill="#000000" stroke="#000000" points="571.6196,-27.9614 581.7553,-24.8765 571.908,-20.9674 571.6196,-27.9614"/>
<text text-anchor="middle" x="512" y="-26.8" font-family="Times,serif" font-size="14.00" fill="#000000">1</text>
</g>
<!-- g&#45;&gt;e -->
<g id="edge10" class="edge">
<title>g&#45;&gt;e</title>
<path fill="none" stroke="#000000" d="M484.7553,-66.2809C451.0246,-66.6286 393.4037,-67.2226 355.512,-67.6133"/>
<polygon fill="#000000" stroke="#000000" points="355.3474,-64.1147 345.384,-67.7177 355.4196,-71.1143 355.3474,-64.1147"/>
<text text-anchor="middle" x="415" y="-69.8" font-family="Times,serif" font-size="14.00" fill="#000000">1</text>
</g>
<!-- g&#45;&gt;h -->
<g id="edge9" class="edge">
<title>g&#45;&gt;h</title>
<path fill="none" stroke="#000000" d="M539.0199,-54.8578C549.3389,-50.6025 561.2836,-45.6769 572.3512,-41.1129"/>
<polygon fill="#000000" stroke="#000000" points="573.8781,-44.2692 581.7886,-37.2212 571.2094,-37.7979 573.8781,-44.2692"/>
<text text-anchor="middle" x="560.5" y="-50.8" font-family="Times,serif" font-size="14.00" fill="#000000">1</text>
</g>
</g>
</svg>
