<?xml version="1.0" encoding="UTF-8" standalone="no"?>
<!DOCTYPE svg PUBLIC "-//W3C//DTD SVG 1.1//EN"
 "http://www.w3.org/Graphics/SVG/1.1/DTD/svg11.dtd">
<!-- Generated by graphviz version 2.40.1 (20161225.0304)
 -->
<!-- Title: %3 Pages: 1 -->
<svg width="450pt" height="222pt"
 viewBox="0.00 0.00 450.40 222.00" xmlns="http://www.w3.org/2000/svg" xmlns:xlink="http://www.w3.org/1999/xlink">
<g id="graph0" class="graph" transform="scale(1 1) rotate(0) translate(4 218)">
<title>%3</title>
<polygon fill="#ffffff" stroke="transparent" points="-4,4 -4,-218 446.4034,-218 446.4034,4 -4,4"/>
<!-- u1 -->
<g id="node1" class="node">
<title>u1</title>
<ellipse fill="none" stroke="#000000" cx="18.9503" cy="-88" rx="18.9007" ry="18.9007"/>
<text text-anchor="middle" x="18.9503" y="-83.8" font-family="Times,serif" font-size="14.00" fill="#000000">u1</text>
</g>
<!-- u3 -->
<g id="node2" class="node">
<title>u3</title>
<ellipse fill="none" stroke="#000000" cx="99.8509" cy="-88" rx="18.9007" ry="18.9007"/>
<text text-anchor="middle" x="99.8509" y="-83.8" font-family="Times,serif" font-size="14.00" fill="#000000">u3</text>
</g>
<!-- u1&#45;&gt;u3 -->
<g id="edge1" class="edge">
<title>u1&#45;&gt;u3</title>
<path fill="none" stroke="#000000" d="M38.1226,-88C47.7947,-88 59.7359,-88 70.5304,-88"/>
<polygon fill="#000000" stroke="#000000" points="70.8162,-91.5001 80.8162,-88 70.8161,-84.5001 70.8162,-91.5001"/>
<text text-anchor="middle" x="59.4006" y="-90.8" font-family="Times,serif" font-size="14.00" fill="#000000">1</text>
</g>
<!-- u6 -->
<g id="node3" class="node">
<title>u6</title>
<ellipse fill="none" stroke="#000000" cx="261.652" cy="-112" rx="18.9007" ry="18.9007"/>
<text text-anchor="middle" x="261.652" y="-107.8" font-family="Times,serif" font-size="14.00" fill="#000000">u6</text>
</g>
<!-- u3&#45;&gt;u6 -->
<g id="edge2" class="edge">
<title>u3&#45;&gt;u6</title>
<path fill="none" stroke="#000000" d="M119.0994,-88.8902C139.2861,-90.0208 171.8819,-92.4041 199.7017,-97 210.8381,-98.8398 222.935,-101.5948 233.459,-104.2436"/>
<polygon fill="#000000" stroke="#000000" points="232.8059,-107.6901 243.3649,-106.8192 234.5674,-100.9153 232.8059,-107.6901"/>
<text text-anchor="middle" x="180.7514" y="-99.8" font-family="Times,serif" font-size="14.00" fill="#000000">1</text>
</g>
<!-- u5 -->
<g id="node4" class="node">
<title>u5</title>
<ellipse fill="none" stroke="#000000" cx="180.7514" cy="-139" rx="18.9007" ry="18.9007"/>
<text text-anchor="middle" x="180.7514" y="-134.8" font-family="Times,serif" font-size="14.00" fill="#000000">u5</text>
</g>
<!-- u3&#45;&gt;u5 -->
<g id="edge3" class="edge">
<title>u3&#45;&gt;u5</title>
<path fill="none" stroke="#000000" d="M116.2223,-98.3206C127.7015,-105.5571 143.2484,-115.3579 156.2056,-123.5262"/>
<polygon fill="#000000" stroke="#000000" points="154.3545,-126.4967 164.6804,-128.8688 158.0875,-120.5751 154.3545,-126.4967"/>
<text text-anchor="middle" x="140.3011" y="-118.8" font-family="Times,serif" font-size="14.00" fill="#000000">1</text>
</g>
<!-- u7 -->
<g id="node5" class="node">
<title>u7</title>
<ellipse fill="none" stroke="#000000" cx="342.5526" cy="-103" rx="18.9007" ry="18.9007"/>
<text text-anchor="middle" x="342.5526" y="-98.8" font-family="Times,serif" font-size="14.00" fill="#000000">u7</text>
</g>
<!-- u6&#45;&gt;u7 -->
<g id="edge4" class="edge">
<title>u6&#45;&gt;u7</title>
<path fill="none" stroke="#000000" stroke-width="5" d="M280.8243,-109.8671C290.5972,-108.7799 302.6866,-107.435 313.5691,-106.2243"/>
<polygon fill="#000000" stroke="#000000" stroke-width="5" points="314.063,-110.5715 323.5179,-105.1176 313.0954,-101.8751 314.063,-110.5715"/>
<text text-anchor="middle" x="302.1023" y="-110.8" font-family="Times,serif" font-size="14.00" fill="#000000">2</text>
</g>
<!-- u2 -->
<g id="node6" class="node">
<title>u2</title>
<ellipse fill="none" stroke="#000000" cx="342.5526" cy="-47" rx="18.9007" ry="18.9007"/>
<text text-anchor="middle" x="342.5526" y="-42.8" font-family="Times,serif" font-size="14.00" fill="#000000">u2</text>
</g>
<!-- u6&#45;&gt;u2 -->
<g id="edge5" class="edge">
<title>u6&#45;&gt;u2</title>
<path fill="none" stroke="#000000" d="M276.4904,-100.078C288.5031,-90.4264 305.6351,-76.6615 319.4424,-65.568"/>
<polygon fill="#000000" stroke="#000000" points="321.9309,-68.0584 327.5343,-59.0665 317.5465,-62.6015 321.9309,-68.0584"/>
<text text-anchor="middle" x="302.1023" y="-84.8" font-family="Times,serif" font-size="14.00" fill="#000000">1</text>
</g>
<!-- u5&#45;&gt;u6 -->
<g id="edge11" class="edge">
<title>u5&#45;&gt;u6</title>
<path fill="none" stroke="#000000" d="M199.109,-132.8733C209.4213,-129.4316 222.4971,-125.0677 234.0236,-121.2208"/>
<polygon fill="#000000" stroke="#000000" points="235.2681,-124.4953 243.6457,-118.0095 233.052,-117.8553 235.2681,-124.4953"/>
<text text-anchor="middle" x="221.2017" y="-129.8" font-family="Times,serif" font-size="14.00" fill="#000000">1</text>
</g>
<!-- u8 -->
<g id="node7" class="node">
<title>u8</title>
<ellipse fill="none" stroke="#000000" cx="423.4531" cy="-158" rx="18.9007" ry="18.9007"/>
<text text-anchor="middle" x="423.4531" y="-153.8" font-family="Times,serif" font-size="14.00" fill="#000000">u8</text>
</g>
<!-- u7&#45;&gt;u8 -->
<g id="edge6" class="edge">
<title>u7&#45;&gt;u8</title>
<path fill="none" stroke="#000000" stroke-width="5" d="M359.0742,-112.629C367.4202,-117.6235 377.6317,-123.9352 386.5028,-130 391.0377,-133.1003 395.7808,-136.5376 400.2988,-139.9119"/>
<polygon fill="#000000" stroke="#000000" stroke-width="5" points="397.9869,-143.65 408.5958,-146.2179 403.2816,-136.6837 397.9869,-143.65"/>
<text text-anchor="middle" x="383.0028" y="-132.8" font-family="Times,serif" font-size="14.00" fill="#000000">2</text>
</g>
<!-- u2&#45;&gt;u3 -->
<g id="edge9" class="edge">
<title>u2&#45;&gt;u3</title>
<path fill="none" stroke="#000000" d="M323.5966,-50.2023C281.3235,-57.3435 179.1089,-74.6108 128.8021,-83.1092"/>
<polygon fill="#000000" stroke="#000000" points="128.1725,-79.6659 118.8953,-84.7828 129.3386,-86.5681 128.1725,-79.6659"/>
<text text-anchor="middle" x="221.2017" y="-70.8" font-family="Times,serif" font-size="14.00" fill="#000000">1</text>
</g>
<!-- u4 -->
<g id="node8" class="node">
<title>u4</title>
<ellipse fill="none" stroke="#000000" cx="423.4531" cy="-24" rx="18.9007" ry="18.9007"/>
<text text-anchor="middle" x="423.4531" y="-19.8" font-family="Times,serif" font-size="14.00" fill="#000000">u4</text>
</g>
<!-- u2&#45;&gt;u4 -->
<g id="edge10" class="edge">
<title>u2&#45;&gt;u4</title>
<path fill="none" stroke="#000000" d="M360.9102,-41.7809C371.0469,-38.8991 383.8538,-35.2581 395.2347,-32.0225"/>
<polygon fill="#000000" stroke="#000000" points="396.5065,-35.2997 405.1682,-29.1984 394.5922,-28.5665 396.5065,-35.2997"/>
<text text-anchor="middle" x="383.0028" y="-39.8" font-family="Times,serif" font-size="14.00" fill="#000000">1</text>
</g>
<!-- u8&#45;&gt;u1 -->
<g id="edge8" class="edge">
<title>u8&#45;&gt;u1</title>
<path fill="none" stroke="#000000" d="M409.1103,-170.8296C393.7764,-183.181 368.1894,-200 342.5526,-200 99.8509,-200 99.8509,-200 99.8509,-200 58.549,-200 36.2075,-149.3311 26.0057,-116.1539"/>
<polygon fill="#000000" stroke="#000000" points="29.3543,-115.1341 23.2217,-106.4945 22.6281,-117.0727 29.3543,-115.1341"/>
<text text-anchor="middle" x="221.2017" y="-202.8" font-family="Times,serif" font-size="14.00" fill="#000000">1</text>
</g>
<!-- u8&#45;&gt;u6 -->
<g id="edge7" class="edge">
<title>u8&#45;&gt;u6</title>
<path fill="none" stroke="#000000" d="M404.6556,-153.87C380.0599,-148.3099 335.7218,-137.7489 298.6023,-126 295.463,-125.0064 292.2019,-123.8931 288.975,-122.7401"/>
<polygon fill="#000000" stroke="#000000" points="290.1462,-119.4416 279.5532,-119.2415 287.7094,-126.0037 290.1462,-119.4416"/>
<text text-anchor="middle" x="342.5526" y="-146.8" font-family="Times,serif" font-size="14.00" fill="#000000">1</text>
</g>
<!-- u4&#45;&gt;u1 -->
<g id="edge12" class="edge">
<title>u4&#45;&gt;u1</title>
<path fill="none" stroke="#000000" d="M406.2155,-15.7406C390.128,-8.7982 365.2605,0 342.5526,0 99.8509,0 99.8509,0 99.8509,0 66.3594,0 42.9437,-34.9717 30.2099,-60.8227"/>
<polygon fill="#000000" stroke="#000000" points="26.8961,-59.6484 25.8538,-70.1919 33.2436,-62.5997 26.8961,-59.6484"/>
<text text-anchor="middle" x="221.2017" y="-2.8" font-family="Times,serif" font-size="14.00" fill="#000000">1</text>
</g>
</g>
</svg>
