<?xml version="1.0" encoding="UTF-8" standalone="no"?>
<!DOCTYPE svg PUBLIC "-//W3C//DTD SVG 1.1//EN"
 "http://www.w3.org/Graphics/SVG/1.1/DTD/svg11.dtd">
<!-- Generated by graphviz version 2.40.1 (20161225.0304)
 -->
<!-- Title: %3 Pages: 1 -->
<svg width="127pt" height="158pt"
 viewBox="0.00 0.00 126.80 157.90" xmlns="http://www.w3.org/2000/svg" xmlns:xlink="http://www.w3.org/1999/xlink">
<g id="graph0" class="graph" transform="scale(1 1) rotate(0) translate(4 153.9006)">
<title>%3</title>
<polygon fill="#ffffff" stroke="transparent" points="-4,4 -4,-153.9006 122.8011,-153.9006 122.8011,4 -4,4"/>
<!-- u1 -->
<g id="node1" class="node">
<title>u1</title>
<ellipse fill="none" stroke="#000000" cx="18.9503" cy="-18.9503" rx="18.9007" ry="18.9007"/>
<text text-anchor="middle" x="18.9503" y="-14.7503" font-family="Times,serif" font-size="14.00" fill="#000000">u1</text>
</g>
<!-- u2 -->
<g id="node2" class="node">
<title>u2</title>
<ellipse fill="none" stroke="#000000" cx="99.8509" cy="-18.9503" rx="18.9007" ry="18.9007"/>
<text text-anchor="middle" x="99.8509" y="-14.7503" font-family="Times,serif" font-size="14.00" fill="#000000">u2</text>
</g>
<!-- u1&#45;&#45;u2 -->
<g id="edge1" class="edge">
<title>u1&#45;&#45;u2</title>
<path fill="none" stroke="#000000" d="M38.1226,-18.9503C51.0188,-18.9503 67.9488,-18.9503 80.8162,-18.9503"/>
<text text-anchor="middle" x="59.4006" y="-21.7503" font-family="Times,serif" font-size="14.00" fill="#000000">2</text>
</g>
<!-- u3 -->
<g id="node3" class="node">
<title>u3</title>
<ellipse fill="none" stroke="#000000" cx="18.9503" cy="-74.9503" rx="18.9007" ry="18.9007"/>
<text text-anchor="middle" x="18.9503" y="-70.7503" font-family="Times,serif" font-size="14.00" fill="#000000">u3</text>
</g>
<!-- u4 -->
<g id="node4" class="node">
<title>u4</title>
<ellipse fill="none" stroke="#000000" cx="99.8509" cy="-74.9503" rx="18.9007" ry="18.9007"/>
<text text-anchor="middle" x="99.8509" y="-70.7503" font-family="Times,serif" font-size="14.00" fill="#000000">u4</text>
</g>
<!-- u3&#45;&#45;u4 -->
<g id="edge2" class="edge">
<title>u3&#45;&#45;u4</title>
<path fill="none" stroke="#000000" d="M38.1226,-74.9503C51.0188,-74.9503 67.9488,-74.9503 80.8162,-74.9503"/>
<text text-anchor="middle" x="59.4006" y="-77.7503" font-family="Times,serif" font-size="14.00" fill="#000000">1</text>
</g>
<!-- u5 -->
<g id="node5" class="node">
<title>u5</title>
<ellipse fill="none" stroke="#000000" cx="18.9503" cy="-130.9503" rx="18.9007" ry="18.9007"/>
<text text-anchor="middle" x="18.9503" y="-126.7503" font-family="Times,serif" font-size="14.00" fill="#000000">u5</text>
</g>
<!-- u6 -->
<g id="node6" class="node">
<title>u6</title>
<ellipse fill="none" stroke="#000000" cx="99.8509" cy="-130.9503" rx="18.9007" ry="18.9007"/>
<text text-anchor="middle" x="99.8509" y="-126.7503" font-family="Times,serif" font-size="14.00" fill="#000000">u6</text>
</g>
<!-- u5&#45;&#45;u6 -->
<g id="edge3" class="edge">
<title>u5&#45;&#45;u6</title>
<path fill="none" stroke="#000000" d="M38.1226,-130.9503C51.0188,-130.9503 67.9488,-130.9503 80.8162,-130.9503"/>
<text text-anchor="middle" x="59.4006" y="-133.7503" font-family="Times,serif" font-size="14.00" fill="#000000">1</text>
</g>
</g>
</svg>
